<svg id="visual" viewBox="0 0 900 600" width="900" height="600" xmlns="http://www.w3.org/2000/svg" xmlns:xlink="http://www.w3.org/1999/xlink" version="1.1"><rect x="0" y="0" width="900" height="600" fill="#ffffff"></rect><path d="M0 483L15 484.7C30 486.3 60 489.7 90 476.7C120 463.7 150 434.3 180 424.3C210 414.3 240 423.7 270 444.3C300 465 330 497 360 516.5C390 536 420 543 450 532.8C480 522.7 510 495.3 540 494C570 492.7 600 517.3 630 528.2C660 539 690 536 720 516.8C750 497.7 780 462.3 810 465.2C840 468 870 509 885 529.5L900 550" fill="none" stroke-linecap="round" stroke-linejoin="miter" stroke="#009473" stroke-width="40"></path></svg>