<svg id="visual" viewBox="0 0 900 600" width="900" height="600" xmlns="http://www.w3.org/2000/svg" xmlns:xlink="http://www.w3.org/1999/xlink" version="1.1"><rect x="0" y="0" width="900" height="600" fill="#ffffff"></rect><path d="M0 489L13.7 496.3C27.3 503.7 54.7 518.3 82 516.7C109.3 515 136.7 497 163.8 500.8C191 504.7 218 530.3 245.2 534.3C272.3 538.3 299.7 520.7 327 515.3C354.3 510 381.7 517 409 520.5C436.3 524 463.7 524 491 520C518.3 516 545.7 508 573 504.5C600.3 501 627.7 502 654.8 497.8C682 493.7 709 484.3 736.2 482.7C763.3 481 790.7 487 818 495.8C845.3 504.7 872.7 516.3 886.3 522.2L900 528" fill="none" stroke-linecap="round" stroke-linejoin="miter" stroke="#009473" stroke-width="40"></path></svg>