<svg id="visual" viewBox="0 0 900 600" width="900" height="600" xmlns="http://www.w3.org/2000/svg" xmlns:xlink="http://www.w3.org/1999/xlink" version="1.1"><rect x="0" y="0" width="900" height="600" fill="#ffffff"></rect><path d="M0 352L12.5 325C25 298 50 244 75 208.7C100 173.3 125 156.7 150 190.8C175 225 200 310 225 324.3C250 338.7 275 282.3 300 252.3C325 222.3 350 218.7 375 206.5C400 194.3 425 173.7 450 167.2C475 160.7 500 168.3 525 184.8C550 201.3 575 226.7 600 262.2C625 297.7 650 343.3 675 381.3C700 419.3 725 449.7 750 462.2C775 474.7 800 469.3 825 430.5C850 391.7 875 319.3 887.5 283.2L900 247" fill="none" stroke-linecap="round" stroke-linejoin="miter" stroke="#009473" stroke-width="59"></path></svg>