<svg id="visual" viewBox="0 0 3840 1600" width="3840" height="1600" xmlns="http://www.w3.org/2000/svg" xmlns:xlink="http://www.w3.org/1999/xlink" version="1.1"><rect x="0" y="0" width="3840" height="1600" fill="#FBF9F4"></rect><path d="M0 754L91.5 733.7C183 713.3 366 672.7 548.8 625.2C731.7 577.7 914.3 523.3 1097.2 500C1280 476.7 1463 484.3 1645.8 475.5C1828.7 466.7 2011.3 441.3 2194.2 447.8C2377 454.3 2560 492.7 2742.8 486.7C2925.7 480.7 3108.3 430.3 3291.2 423C3474 415.7 3657 451.3 3748.5 469.2L3840 487L3840 1601L3748.5 1601C3657 1601 3474 1601 3291.2 1601C3108.3 1601 2925.7 1601 2742.8 1601C2560 1601 2377 1601 2194.2 1601C2011.3 1601 1828.7 1601 1645.8 1601C1463 1601 1280 1601 1097.2 1601C914.3 1601 731.7 1601 548.8 1601C366 1601 183 1601 91.5 1601L0 1601Z" fill="#cbfbda"></path><path d="M0 647L91.5 668.7C183 690.3 366 733.7 548.8 719C731.7 704.3 914.3 631.7 1097.2 603.7C1280 575.7 1463 592.3 1645.8 603C1828.7 613.7 2011.3 618.3 2194.2 660.5C2377 702.7 2560 782.3 2742.8 810.3C2925.7 838.3 3108.3 814.7 3291.2 768.7C3474 722.7 3657 654.3 3748.5 620.2L3840 586L3840 1601L3748.5 1601C3657 1601 3474 1601 3291.2 1601C3108.3 1601 2925.7 1601 2742.8 1601C2560 1601 2377 1601 2194.2 1601C2011.3 1601 1828.7 1601 1645.8 1601C1463 1601 1280 1601 1097.2 1601C914.3 1601 731.7 1601 548.8 1601C366 1601 183 1601 91.5 1601L0 1601Z" fill="#bbf3ce"></path><path d="M0 883L91.5 860.2C183 837.3 366 791.7 548.8 760.3C731.7 729 914.3 712 1097.2 722.8C1280 733.7 1463 772.3 1645.8 800.7C1828.7 829 2011.3 847 2194.2 848.3C2377 849.7 2560 834.3 2742.8 799.3C2925.7 764.3 3108.3 709.7 3291.2 704.8C3474 700 3657 745 3748.5 767.5L3840 790L3840 1601L3748.5 1601C3657 1601 3474 1601 3291.2 1601C3108.3 1601 2925.7 1601 2742.8 1601C2560 1601 2377 1601 2194.2 1601C2011.3 1601 1828.7 1601 1645.8 1601C1463 1601 1280 1601 1097.2 1601C914.3 1601 731.7 1601 548.8 1601C366 1601 183 1601 91.5 1601L0 1601Z" fill="#abecc3"></path><path d="M0 816L91.5 833.5C183 851 366 886 548.8 916.8C731.7 947.7 914.3 974.3 1097.2 959.5C1280 944.7 1463 888.3 1645.8 884C1828.7 879.7 2011.3 927.3 2194.2 958.2C2377 989 2560 1003 2742.8 967.3C2925.7 931.7 3108.3 846.3 3291.2 809.2C3474 772 3657 783 3748.5 788.5L3840 794L3840 1601L3748.5 1601C3657 1601 3474 1601 3291.2 1601C3108.3 1601 2925.7 1601 2742.8 1601C2560 1601 2377 1601 2194.2 1601C2011.3 1601 1828.7 1601 1645.8 1601C1463 1601 1280 1601 1097.2 1601C914.3 1601 731.7 1601 548.8 1601C366 1601 183 1601 91.5 1601L0 1601Z" fill="#9be4b7"></path><path d="M0 1088L91.5 1064.5C183 1041 366 994 548.8 998.7C731.7 1003.3 914.3 1059.7 1097.2 1087.7C1280 1115.7 1463 1115.3 1645.8 1102.8C1828.7 1090.3 2011.3 1065.7 2194.2 1046.5C2377 1027.3 2560 1013.7 2742.8 995.8C2925.7 978 3108.3 956 3291.2 946.3C3474 936.7 3657 939.3 3748.5 940.7L3840 942L3840 1601L3748.5 1601C3657 1601 3474 1601 3291.2 1601C3108.3 1601 2925.7 1601 2742.8 1601C2560 1601 2377 1601 2194.2 1601C2011.3 1601 1828.7 1601 1645.8 1601C1463 1601 1280 1601 1097.2 1601C914.3 1601 731.7 1601 548.8 1601C366 1601 183 1601 91.5 1601L0 1601Z" fill="#8addac"></path><path d="M0 1136L91.5 1124.8C183 1113.7 366 1091.3 548.8 1067C731.7 1042.7 914.3 1016.3 1097.2 1004.5C1280 992.7 1463 995.3 1645.8 1001C1828.7 1006.7 2011.3 1015.3 2194.2 1043.8C2377 1072.3 2560 1120.7 2742.8 1123C2925.7 1125.3 3108.3 1081.7 3291.2 1075.8C3474 1070 3657 1102 3748.5 1118L3840 1134L3840 1601L3748.5 1601C3657 1601 3474 1601 3291.2 1601C3108.3 1601 2925.7 1601 2742.8 1601C2560 1601 2377 1601 2194.2 1601C2011.3 1601 1828.7 1601 1645.8 1601C1463 1601 1280 1601 1097.2 1601C914.3 1601 731.7 1601 548.8 1601C366 1601 183 1601 91.5 1601L0 1601Z" fill="#78d5a2"></path><path d="M0 1184L91.5 1200C183 1216 366 1248 548.8 1244.7C731.7 1241.3 914.3 1202.7 1097.2 1204C1280 1205.3 1463 1246.7 1645.8 1242.3C1828.7 1238 2011.3 1188 2194.2 1165.2C2377 1142.3 2560 1146.7 2742.8 1170.8C2925.7 1195 3108.3 1239 3291.2 1249.5C3474 1260 3657 1237 3748.5 1225.5L3840 1214L3840 1601L3748.5 1601C3657 1601 3474 1601 3291.2 1601C3108.3 1601 2925.7 1601 2742.8 1601C2560 1601 2377 1601 2194.2 1601C2011.3 1601 1828.7 1601 1645.8 1601C1463 1601 1280 1601 1097.2 1601C914.3 1601 731.7 1601 548.8 1601C366 1601 183 1601 91.5 1601L0 1601Z" fill="#65cd97"></path><path d="M0 1345L91.5 1317.3C183 1289.7 366 1234.3 548.8 1218C731.7 1201.7 914.3 1224.3 1097.2 1224C1280 1223.7 1463 1200.3 1645.8 1189.2C1828.7 1178 2011.3 1179 2194.2 1200C2377 1221 2560 1262 2742.8 1275.7C2925.7 1289.3 3108.3 1275.7 3291.2 1276.5C3474 1277.3 3657 1292.7 3748.5 1300.3L3840 1308L3840 1601L3748.5 1601C3657 1601 3474 1601 3291.2 1601C3108.3 1601 2925.7 1601 2742.8 1601C2560 1601 2377 1601 2194.2 1601C2011.3 1601 1828.7 1601 1645.8 1601C1463 1601 1280 1601 1097.2 1601C914.3 1601 731.7 1601 548.8 1601C366 1601 183 1601 91.5 1601L0 1601Z" fill="#50c68d"></path><path d="M0 1334L91.5 1327.8C183 1321.7 366 1309.3 548.8 1324.5C731.7 1339.7 914.3 1382.3 1097.2 1397.7C1280 1413 1463 1401 1645.8 1392.2C1828.7 1383.3 2011.3 1377.7 2194.2 1365.5C2377 1353.3 2560 1334.7 2742.8 1328C2925.7 1321.3 3108.3 1326.7 3291.2 1329.2C3474 1331.7 3657 1331.3 3748.5 1331.2L3840 1331L3840 1601L3748.5 1601C3657 1601 3474 1601 3291.2 1601C3108.3 1601 2925.7 1601 2742.8 1601C2560 1601 2377 1601 2194.2 1601C2011.3 1601 1828.7 1601 1645.8 1601C1463 1601 1280 1601 1097.2 1601C914.3 1601 731.7 1601 548.8 1601C366 1601 183 1601 91.5 1601L0 1601Z" fill="#36be84"></path><path d="M0 1491L91.5 1491.5C183 1492 366 1493 548.8 1492.3C731.7 1491.7 914.3 1489.3 1097.2 1474.3C1280 1459.3 1463 1431.7 1645.8 1423.2C1828.7 1414.7 2011.3 1425.3 2194.2 1444.8C2377 1464.3 2560 1492.7 2742.8 1490.7C2925.7 1488.7 3108.3 1456.3 3291.2 1443.8C3474 1431.3 3657 1438.7 3748.5 1442.3L3840 1446L3840 1601L3748.5 1601C3657 1601 3474 1601 3291.2 1601C3108.3 1601 2925.7 1601 2742.8 1601C2560 1601 2377 1601 2194.2 1601C2011.3 1601 1828.7 1601 1645.8 1601C1463 1601 1280 1601 1097.2 1601C914.3 1601 731.7 1601 548.8 1601C366 1601 183 1601 91.5 1601L0 1601Z" fill="#00b67a"></path></svg>