<svg id="visual" viewBox="0 0 900 600" width="900" height="600" xmlns="http://www.w3.org/2000/svg" xmlns:xlink="http://www.w3.org/1999/xlink" version="1.1"><rect x="0" y="0" width="900" height="600" fill="#ffffff"></rect><path d="M0 173L12.5 174.3C25 175.7 50 178.3 75 202.3C100 226.3 125 271.7 150 318.7C175 365.7 200 414.3 225 432.8C250 451.3 275 439.7 300 425C325 410.3 350 392.7 375 383.3C400 374 425 373 450 396.8C475 420.7 500 469.3 525 490.3C550 511.3 575 504.7 600 451.5C625 398.3 650 298.7 675 286.8C700 275 725 351 750 373C775 395 800 363 825 335.8C850 308.7 875 286.3 887.5 275.2L900 264" fill="none" stroke-linecap="round" stroke-linejoin="miter" stroke="#009473" stroke-width="59"></path></svg>