<svg id="visual" viewBox="0 0 900 600" width="900" height="600" xmlns="http://www.w3.org/2000/svg" xmlns:xlink="http://www.w3.org/1999/xlink" version="1.1"><path d="M845 600L863 600L863 563L827 563L827 525L827 525L827 488L881 488L881 450L827 450L827 413L863 413L863 375L854 375L854 338L836 338L836 300L872 300L872 263L836 263L836 225L881 225L881 188L854 188L854 150L809 150L809 113L854 113L854 75L809 75L809 38L890 38L890 0L900 0L900 38L900 38L900 75L900 75L900 113L900 113L900 150L900 150L900 188L900 188L900 225L900 225L900 263L900 263L900 300L900 300L900 338L900 338L900 375L900 375L900 413L900 413L900 450L900 450L900 488L900 488L900 525L900 525L900 563L900 563L900 600L900 600Z" fill="#66cc66"></path><path d="M818 600L836 600L836 563L755 563L755 525L818 525L818 488L872 488L872 450L773 450L773 413L791 413L791 375L791 375L791 338L791 338L791 300L836 300L836 263L809 263L809 225L863 225L863 188L809 188L809 150L800 150L800 113L845 113L845 75L800 75L800 38L818 38L818 0L891 0L891 38L810 38L810 75L855 75L855 113L810 113L810 150L855 150L855 188L882 188L882 225L837 225L837 263L873 263L873 300L837 300L837 338L855 338L855 375L864 375L864 413L828 413L828 450L882 450L882 488L828 488L828 525L828 525L828 563L864 563L864 600L846 600Z" fill="#5bc669"></path><path d="M773 600L800 600L800 563L710 563L710 525L737 525L737 488L809 488L809 450L683 450L683 413L737 413L737 375L773 375L773 338L710 338L710 300L755 300L755 263L791 263L791 225L782 225L782 188L746 188L746 150L782 150L782 113L782 113L782 75L764 75L764 38L737 38L737 0L819 0L819 38L801 38L801 75L846 75L846 113L801 113L801 150L810 150L810 188L864 188L864 225L810 225L810 263L837 263L837 300L792 300L792 338L792 338L792 375L792 375L792 413L774 413L774 450L873 450L873 488L819 488L819 525L756 525L756 563L837 563L837 600L819 600Z" fill="#4fc06c"></path><path d="M656 600L665 600L665 563L674 563L674 525L710 525L710 488L728 488L728 450L584 450L584 413L656 413L656 375L755 375L755 338L638 338L638 300L701 300L701 263L683 263L683 225L710 225L710 188L692 188L692 150L755 150L755 113L710 113L710 75L638 75L638 38L683 38L683 0L738 0L738 38L765 38L765 75L783 75L783 113L783 113L783 150L747 150L747 188L783 188L783 225L792 225L792 263L756 263L756 300L711 300L711 338L774 338L774 375L738 375L738 413L684 413L684 450L810 450L810 488L738 488L738 525L711 525L711 563L801 563L801 600L774 600Z" fill="#44ba6e"></path><path d="M620 600L611 600L611 563L611 563L611 525L638 525L638 488L719 488L719 450L575 450L575 413L584 413L584 375L710 375L710 338L593 338L593 300L692 300L692 263L629 263L629 225L647 225L647 188L665 188L665 150L692 150L692 113L656 113L656 75L575 75L575 38L620 38L620 0L684 0L684 38L639 38L639 75L711 75L711 113L756 113L756 150L693 150L693 188L711 188L711 225L684 225L684 263L702 263L702 300L639 300L639 338L756 338L756 375L657 375L657 413L585 413L585 450L729 450L729 488L711 488L711 525L675 525L675 563L666 563L666 600L657 600Z" fill="#39b470"></path><path d="M557 600L575 600L575 563L530 563L530 525L584 525L584 488L611 488L611 450L530 450L530 413L485 413L485 375L620 375L620 338L521 338L521 300L602 300L602 263L548 263L548 225L584 225L584 188L575 188L575 150L620 150L620 113L575 113L575 75L548 75L548 38L584 38L584 0L621 0L621 38L576 38L576 75L657 75L657 113L693 113L693 150L666 150L666 188L648 188L648 225L630 225L630 263L693 263L693 300L594 300L594 338L711 338L711 375L585 375L585 413L576 413L576 450L720 450L720 488L639 488L639 525L612 525L612 563L612 563L612 600L621 600Z" fill="#2fae72"></path><path d="M413 600L530 600L530 563L467 563L467 525L521 525L521 488L557 488L557 450L458 450L458 413L449 413L449 375L503 375L503 338L458 338L458 300L575 300L575 263L458 263L458 225L458 225L458 188L494 188L494 150L512 150L512 113L458 113L458 75L413 75L413 38L440 38L440 0L585 0L585 38L549 38L549 75L576 75L576 113L621 113L621 150L576 150L576 188L585 188L585 225L549 225L549 263L603 263L603 300L522 300L522 338L621 338L621 375L486 375L486 413L531 413L531 450L612 450L612 488L585 488L585 525L531 525L531 563L576 563L576 600L558 600Z" fill="#24a773"></path><path d="M368 600L341 600L341 563L188 563L188 525L251 525L251 488L395 488L395 450L377 450L377 413L296 413L296 375L332 375L332 338L233 338L233 300L251 300L251 263L224 263L224 225L350 225L350 188L278 188L278 150L152 150L152 113L179 113L179 75L350 75L350 38L359 38L359 0L441 0L441 38L414 38L414 75L459 75L459 113L513 113L513 150L495 150L495 188L459 188L459 225L459 225L459 263L576 263L576 300L459 300L459 338L504 338L504 375L450 375L450 413L459 413L459 450L558 450L558 488L522 488L522 525L468 525L468 563L531 563L531 600L414 600Z" fill="#18a173"></path><path d="M296 600L251 600L251 563L116 563L116 525L107 525L107 488L287 488L287 450L215 450L215 413L251 413L251 375L161 375L161 338L80 338L80 300L143 300L143 263L62 263L62 225L197 225L197 188L215 188L215 150L98 150L98 113L80 113L80 75L287 75L287 38L323 38L323 0L360 0L360 38L351 38L351 75L180 75L180 113L153 113L153 150L279 150L279 188L351 188L351 225L225 225L225 263L252 263L252 300L234 300L234 338L333 338L333 375L297 375L297 413L378 413L378 450L396 450L396 488L252 488L252 525L189 525L189 563L342 563L342 600L369 600Z" fill="#0c9b73"></path><path d="M0 600L0 600L0 563L0 563L0 525L0 525L0 488L0 488L0 450L0 450L0 413L0 413L0 375L0 375L0 338L0 338L0 300L0 300L0 263L0 263L0 225L0 225L0 188L0 188L0 150L0 150L0 113L0 113L0 75L0 75L0 38L0 38L0 0L324 0L324 38L288 38L288 75L81 75L81 113L99 113L99 150L216 150L216 188L198 188L198 225L63 225L63 263L144 263L144 300L81 300L81 338L162 338L162 375L252 375L252 413L216 413L216 450L288 450L288 488L108 488L108 525L117 525L117 563L252 563L252 600L297 600Z" fill="#009473"></path></svg>