<svg width="64" height="64" viewBox="0 0 64 64" fill="none" xmlns="http://www.w3.org/2000/svg">
<path d="M41 33H7V63H41V33Z" fill="url(#paint0_linear_197_34)"/>
<path d="M57 33H41V63H57V33Z" fill="url(#paint1_linear_197_34)"/>
<path d="M41 61H7V63H41V61Z" fill="#CBA07A"/>
<path d="M57 61H41V63H57V61Z" fill="#CBA07A"/>
<path d="M57 33V45H45.87L41 36.88V33H57Z" fill="#CBA07A"/>
<path d="M47 43H63L57 33H41L47 43Z" fill="url(#paint2_linear_197_34)"/>
<path d="M41 33V36.88L36.13 45H7V33H41Z" fill="#CBA07A"/>
<path d="M35 43H1L7 33H41L35 43Z" fill="url(#paint3_linear_197_34)"/>
<path d="M17 55H11V59H17V55Z" fill="url(#paint4_linear_197_34)"/>
<path d="M45.6101 13.76L47.8601 12.46L43.8601 5.54L41.6101 6.83C40.0192 5.32624 38.0977 4.21653 36.0001 3.59V1H28.0001V3.59C25.9025 4.21653 23.9811 5.32624 22.3901 6.83L20.1401 5.54L16.1401 12.46L18.3901 13.76C17.87 15.8887 17.87 18.1113 18.3901 20.24L16.1401 21.54L20.1401 28.46L22.3901 27.17C23.9811 28.6738 25.9025 29.7835 28.0001 30.41V33H36.0001V30.41C38.0977 29.7835 40.0192 28.6738 41.6101 27.17L43.8601 28.46L47.8601 21.54L45.6101 20.24C46.1303 18.1113 46.1303 15.8887 45.6101 13.76Z" fill="url(#paint5_linear_197_34)"/>
<path d="M45.6101 20.24L47.8601 21.54L43.8601 28.46L41.6101 27.17C40.0192 28.6738 38.0977 29.7835 36.0001 30.41V33H28.0001V30.41C25.9025 29.7835 23.9811 28.6738 22.3901 27.17L20.1401 28.46L16.1401 21.54L18.3901 20.24C18.0404 18.8555 17.9089 17.425 18.0001 16C18.0001 19.713 19.4751 23.274 22.1006 25.8995C24.7262 28.525 28.2871 30 32.0001 30C35.7132 30 39.2741 28.525 41.8996 25.8995C44.5251 23.274 46.0001 19.713 46.0001 16C46.0968 17.4251 45.9651 18.8565 45.6101 20.24Z" fill="#42455E"/>
<path d="M18.0801 13.5801C18.7101 13.9501 18.2101 13.3901 18.0801 16.0001C18.0019 15.1953 18.0019 14.3848 18.0801 13.5801Z" fill="url(#paint6_linear_197_34)"/>
<path d="M32 27C37.5228 27 42 22.5228 42 17C42 11.4772 37.5228 7 32 7C26.4772 7 22 11.4772 22 17C22 22.5228 26.4772 27 32 27Z" fill="url(#paint7_linear_197_34)"/>
<path d="M32 27C37.5228 27 42 22.5228 42 17C42 11.4772 37.5228 7 32 7C26.4772 7 22 11.4772 22 17C22 22.5228 26.4772 27 32 27Z" fill="url(#paint8_linear_197_34)"/>
<path d="M41.9998 18.0007C41.7522 15.5338 40.597 13.2469 38.7585 11.5837C36.9199 9.92043 34.5291 8.99945 32.0498 8.99945C29.5706 8.99945 27.1797 9.92043 25.3411 11.5837C23.5026 13.2469 22.3474 15.5338 22.0998 18.0007C21.9602 16.6102 22.1136 15.206 22.5501 13.8784C22.9866 12.5509 23.6965 11.3296 24.634 10.2933C25.5715 9.25697 26.7158 8.42865 27.9931 7.86175C29.2704 7.29485 30.6524 7.00195 32.0498 7.00195C33.4473 7.00195 34.8292 7.29485 36.1065 7.86175C37.3838 8.42865 38.5281 9.25697 39.4656 10.2933C40.4031 11.3296 41.113 12.5509 41.5495 13.8784C41.986 15.206 42.1394 16.6102 41.9998 18.0007Z" fill="#00B67A"/>
<path d="M33 16H31C30.7348 16 30.4804 15.8946 30.2929 15.7071C30.1054 15.5196 30 15.2652 30 15C30 14.7348 30.1054 14.4804 30.2929 14.2929C30.4804 14.1054 30.7348 14 31 14H35C35.2652 14 35.5196 13.8946 35.7071 13.7071C35.8946 13.5196 36 13.2652 36 13C36 12.7348 35.8946 12.4804 35.7071 12.2929C35.5196 12.1054 35.2652 12 35 12H33V11C33 10.7348 32.8946 10.4804 32.7071 10.2929C32.5196 10.1054 32.2652 10 32 10C31.7348 10 31.4804 10.1054 31.2929 10.2929C31.1054 10.4804 31 10.7348 31 11V12C30.2044 12 29.4413 12.3161 28.8787 12.8787C28.3161 13.4413 28 14.2044 28 15C28 15.7956 28.3161 16.5587 28.8787 17.1213C29.4413 17.6839 30.2044 18 31 18H33C33.2652 18 33.5196 18.1054 33.7071 18.2929C33.8946 18.4804 34 18.7348 34 19C34 19.2652 33.8946 19.5196 33.7071 19.7071C33.5196 19.8946 33.2652 20 33 20H29C28.7348 20 28.4804 20.1054 28.2929 20.2929C28.1054 20.4804 28 20.7348 28 21C28 21.2652 28.1054 21.5196 28.2929 21.7071C28.4804 21.8946 28.7348 22 29 22H31V23C31 23.2652 31.1054 23.5196 31.2929 23.7071C31.4804 23.8946 31.7348 24 32 24C32.2652 24 32.5196 23.8946 32.7071 23.7071C32.8946 23.5196 33 23.2652 33 23V22C33.7956 22 34.5587 21.6839 35.1213 21.1213C35.6839 20.5587 36 19.7956 36 19C36 18.2044 35.6839 17.4413 35.1213 16.8787C34.5587 16.3161 33.7956 16 33 16Z" fill="#FFF2E3"/>
<defs>
<linearGradient id="paint0_linear_197_34" x1="7" y1="48" x2="41" y2="48" gradientUnits="userSpaceOnUse">
<stop stop-color="#D1A788"/>
<stop offset="1" stop-color="#F2D3B8"/>
</linearGradient>
<linearGradient id="paint1_linear_197_34" x1="41" y1="0" x2="57" y2="0" gradientUnits="userSpaceOnUse">
<stop stop-color="#D1A788"/>
<stop offset="1" stop-color="#F2D3B8"/>
</linearGradient>
<linearGradient id="paint2_linear_197_34" x1="52" y1="43" x2="52" y2="33" gradientUnits="userSpaceOnUse">
<stop stop-color="#D1A788"/>
<stop offset="1" stop-color="#F2D3B8"/>
</linearGradient>
<linearGradient id="paint3_linear_197_34" x1="21" y1="43" x2="21" y2="33" gradientUnits="userSpaceOnUse">
<stop stop-color="#D1A788"/>
<stop offset="1" stop-color="#F2D3B8"/>
</linearGradient>
<linearGradient id="paint4_linear_197_34" x1="11" y1="57" x2="17" y2="57" gradientUnits="userSpaceOnUse">
<stop stop-color="#D4D8E1"/>
<stop offset="1" stop-color="#F3F4F5"/>
</linearGradient>
<linearGradient id="paint5_linear_197_34" x1="32.0001" y1="33" x2="32.0001" y2="1" gradientUnits="userSpaceOnUse">
<stop stop-color="#474F72"/>
<stop offset="1" stop-color="#878C9F"/>
</linearGradient>
<linearGradient id="paint6_linear_197_34" x1="18.2001" y1="16.0001" x2="18.2001" y2="13.5801" gradientUnits="userSpaceOnUse">
<stop stop-color="#474F72"/>
<stop offset="1" stop-color="#878C9F"/>
</linearGradient>
<linearGradient id="paint7_linear_197_34" x1="32" y1="27" x2="32" y2="7" gradientUnits="userSpaceOnUse">
<stop stop-color="#E9A254"/>
<stop offset="1" stop-color="#F4BB79"/>
</linearGradient>
<linearGradient id="paint8_linear_197_34" x1="32" y1="27" x2="32" y2="7" gradientUnits="userSpaceOnUse">
<stop stop-color="#9BE4B7"/>
<stop offset="1" stop-color="#36BE84"/>
</linearGradient>
</defs>
</svg>
