<svg width="64" height="64" viewBox="0 0 64 64" fill="none" xmlns="http://www.w3.org/2000/svg">
<path d="M32 27C38.6274 27 44 21.6274 44 15C44 8.37258 38.6274 3 32 3C25.3726 3 20 8.37258 20 15C20 21.6274 25.3726 27 32 27Z" fill="url(#paint0_linear_197_54)"/>
<path d="M27.6401 12.9994V11.4994C27.6401 5.89941 36.3601 6.04941 36.3601 11.4994V12.9994C36.3601 18.6294 27.6401 18.4694 27.6401 12.9994Z" fill="url(#paint1_linear_197_54)"/>
<path d="M39.7802 24.1293C37.6094 25.9778 34.8514 26.993 32.0002 26.993C29.149 26.993 26.391 25.9778 24.2202 24.1293C24.4869 23.1702 24.8211 22.2312 25.2202 21.3193C25.8524 20.0749 26.8167 19.0299 28.0064 18.2999C29.196 17.57 30.5645 17.1836 31.9602 17.1836C33.3559 17.1836 34.7244 17.57 35.9141 18.2999C37.1037 19.0299 38.068 20.0749 38.7002 21.3193C39.1266 22.2291 39.4875 23.1681 39.7802 24.1293Z" fill="url(#paint2_linear_197_54)"/>
<path d="M25.2601 21.3207C24.861 22.2326 24.5268 23.1716 24.2601 24.1307C22.7096 22.8082 21.5214 21.1127 20.8076 19.2039C20.0938 17.2952 19.8778 15.236 20.1801 13.2207C20.4265 14.8469 21.0047 16.4051 21.8785 17.7985C22.7524 19.1919 23.9034 20.3908 25.2601 21.3207Z" fill="#00B67A"/>
<path d="M39.7798 24.1307C39.5131 23.1716 39.1789 22.2326 38.7798 21.3207C40.1439 20.3947 41.3025 19.1976 42.1834 17.8039C43.0643 16.4103 43.6486 14.8501 43.8998 13.2207C44.1973 15.2395 43.9751 17.3008 43.2542 19.2098C42.5333 21.1189 41.3375 22.8125 39.7798 24.1307Z" fill="#00B67A"/>
<path d="M39.7802 24.1303C37.6094 25.9788 34.8514 26.994 32.0002 26.994C29.149 26.994 26.391 25.9788 24.2202 24.1303C24.4869 23.1713 24.8211 22.2323 25.2202 21.3203C27.2087 22.6702 29.5568 23.3919 31.9602 23.3919C34.3636 23.3919 36.7117 22.6702 38.7002 21.3203C39.1266 22.2301 39.4875 23.1692 39.7802 24.1303Z" fill="white"/>
<path d="M13 61C19.6274 61 25 55.6274 25 49C25 42.3726 19.6274 37 13 37C6.37258 37 1 42.3726 1 49C1 55.6274 6.37258 61 13 61Z" fill="url(#paint3_linear_197_54)"/>
<path d="M8.64014 46.9994V45.4994C8.64014 39.8994 17.3601 40.0494 17.3601 45.4994V46.9994C17.3601 52.6294 8.64014 52.4694 8.64014 46.9994Z" fill="url(#paint4_linear_197_54)"/>
<path d="M20.7802 58.1293C18.6094 59.9778 15.8514 60.993 13.0002 60.993C10.149 60.993 7.39099 59.9778 5.22021 58.1293C5.48694 57.1702 5.82111 56.2312 6.22021 55.3193C6.85241 54.0749 7.81675 53.0299 9.00637 52.2999C10.196 51.57 11.5645 51.1836 12.9602 51.1836C14.3559 51.1836 15.7244 51.57 16.9141 52.2999C18.1037 53.0299 19.068 54.0749 19.7002 55.3193C20.1266 56.2291 20.4875 57.1681 20.7802 58.1293Z" fill="url(#paint5_linear_197_54)"/>
<path d="M6.25997 55.3207C5.86087 56.2326 5.5267 57.1717 5.25997 58.1307C3.70227 56.8125 2.50644 55.1189 1.78553 53.2098C1.06461 51.3008 0.842429 49.2395 1.13997 47.2207C1.39118 48.8501 1.97547 50.4103 2.85637 51.8039C3.73727 53.1976 4.8959 54.3947 6.25997 55.3207Z" fill="#00B67A"/>
<path d="M20.7798 58.1307C20.5131 57.1717 20.1789 56.2326 19.7798 55.3207C21.1439 54.3947 22.3025 53.1976 23.1834 51.8039C24.0643 50.4103 24.6486 48.8501 24.8998 47.2207C25.1973 49.2395 24.9751 51.3008 24.2542 53.2098C23.5333 55.1189 22.3375 56.8125 20.7798 58.1307Z" fill="#00B67A"/>
<path d="M20.7802 58.1303C18.6094 59.9788 15.8514 60.994 13.0002 60.994C10.149 60.994 7.39099 59.9788 5.22021 58.1303C5.48694 57.1713 5.82111 56.2323 6.22021 55.3203C8.20873 56.6702 10.5568 57.3919 12.9602 57.3919C15.3636 57.3919 17.7117 56.6702 19.7002 55.3203C20.1266 56.2301 20.4875 57.1692 20.7802 58.1303Z" fill="white"/>
<path d="M51 61C57.6274 61 63 55.6274 63 49C63 42.3726 57.6274 37 51 37C44.3726 37 39 42.3726 39 49C39 55.6274 44.3726 61 51 61Z" fill="url(#paint6_linear_197_54)"/>
<path d="M46.6401 46.9994V45.4994C46.6401 39.8994 55.3601 40.0494 55.3601 45.4994V46.9994C55.3601 52.6294 46.6401 52.4694 46.6401 46.9994Z" fill="url(#paint7_linear_197_54)"/>
<path d="M58.7802 58.1293C56.6094 59.9778 53.8514 60.993 51.0002 60.993C48.149 60.993 45.391 59.9778 43.2202 58.1293C43.4869 57.1702 43.8211 56.2312 44.2202 55.3193C44.8524 54.0749 45.8167 53.0299 47.0064 52.2999C48.196 51.57 49.5645 51.1836 50.9602 51.1836C52.3559 51.1836 53.7244 51.57 54.9141 52.2999C56.1037 53.0299 57.068 54.0749 57.7002 55.3193C58.1266 56.2291 58.4875 57.1681 58.7802 58.1293Z" fill="url(#paint8_linear_197_54)"/>
<path d="M44.2601 55.3207C43.861 56.2326 43.5268 57.1717 43.2601 58.1307C41.7096 56.8082 40.5214 55.1127 39.8076 53.2039C39.0938 51.2952 38.8778 49.236 39.1801 47.2207C39.4265 48.8469 40.0047 50.4051 40.8785 51.7985C41.7524 53.1919 42.9034 54.3908 44.2601 55.3207Z" fill="#00B67A"/>
<path d="M58.7798 58.1307C58.5131 57.1717 58.1789 56.2326 57.7798 55.3207C59.1439 54.3947 60.3025 53.1976 61.1834 51.8039C62.0643 50.4103 62.6486 48.8501 62.8998 47.2207C63.1973 49.2395 62.9751 51.3008 62.2542 53.2098C61.5333 55.1189 60.3375 56.8125 58.7798 58.1307Z" fill="#00B67A"/>
<path d="M58.7802 58.1303C56.6094 59.9788 53.8514 60.994 51.0002 60.994C48.149 60.994 45.391 59.9788 43.2202 58.1303C43.4869 57.1713 43.8211 56.2323 44.2202 55.3203C46.2087 56.6702 48.5568 57.3919 50.9602 57.3919C53.3636 57.3919 55.7117 56.6702 57.7002 55.3203C58.1266 56.2301 58.4875 57.1692 58.7802 58.1303Z" fill="white"/>
<path d="M40.8399 35.36L43.8399 33.6L40.8399 28.4L37.8399 30.16C36.9999 29.4464 36.0378 28.8908 34.9999 28.52V25H28.9999V28.52C27.962 28.8908 26.9998 29.4464 26.1599 30.16L23.1099 28.4L20.1099 33.6L23.1599 35.36C22.9449 36.4428 22.9449 37.5572 23.1599 38.64L20.1099 40.4L23.1099 45.6L26.1599 43.84C26.9998 44.5536 27.962 45.1092 28.9999 45.48V49H34.9999V45.48C36.0378 45.1092 36.9999 44.5536 37.8399 43.84L40.8399 45.6L43.8399 40.4L40.8399 38.64C41.0549 37.5572 41.0549 36.4428 40.8399 35.36Z" fill="url(#paint9_linear_197_54)"/>
<path d="M41.0699 38.7695L43.8899 40.3995L40.8899 45.5995L37.8899 43.8395C37.035 44.5584 36.0554 45.1142 34.9999 45.4795V48.9995H28.9999V45.4795C27.962 45.1088 26.9998 44.5531 26.1599 43.8395L23.1099 45.5995L20.1099 40.3995L22.9299 38.7695C23.8505 40.3599 25.1731 41.6803 26.765 42.5982C28.3569 43.5161 30.1623 43.9992 31.9999 43.9992C33.8375 43.9992 35.6428 43.5161 37.2347 42.5982C38.8267 41.6803 40.1493 40.3599 41.0699 38.7695Z" fill="#42455E"/>
<path d="M32 40C33.6569 40 35 38.6569 35 37C35 35.3431 33.6569 34 32 34C30.3431 34 29 35.3431 29 37C29 38.6569 30.3431 40 32 40Z" fill="#42455E"/>
<defs>
<linearGradient id="paint0_linear_197_54" x1="32" y1="27" x2="32" y2="3" gradientUnits="userSpaceOnUse">
<stop stop-color="#9BE4B7"/>
<stop offset="1" stop-color="#36BE84"/>
</linearGradient>
<linearGradient id="paint1_linear_197_54" x1="32.0001" y1="17.1694" x2="32.0001" y2="7.37941" gradientUnits="userSpaceOnUse">
<stop offset="0.29" stop-color="white"/>
</linearGradient>
<linearGradient id="paint2_linear_197_54" x1="32.0002" y1="26.9893" x2="32.0002" y2="17.1893" gradientUnits="userSpaceOnUse">
<stop offset="1" stop-color="white"/>
</linearGradient>
<linearGradient id="paint3_linear_197_54" x1="13" y1="61" x2="13" y2="37" gradientUnits="userSpaceOnUse">
<stop stop-color="#9BE4B7"/>
<stop offset="1" stop-color="#36BE84"/>
</linearGradient>
<linearGradient id="paint4_linear_197_54" x1="13.0001" y1="51.1694" x2="13.0001" y2="41.3794" gradientUnits="userSpaceOnUse">
<stop offset="1" stop-color="white"/>
</linearGradient>
<linearGradient id="paint5_linear_197_54" x1="13.0002" y1="60.9893" x2="13.0002" y2="51.1893" gradientUnits="userSpaceOnUse">
<stop offset="1" stop-color="white"/>
</linearGradient>
<linearGradient id="paint6_linear_197_54" x1="51" y1="61" x2="51" y2="37" gradientUnits="userSpaceOnUse">
<stop stop-color="#9BE4B7"/>
<stop offset="1" stop-color="#36BE84"/>
</linearGradient>
<linearGradient id="paint7_linear_197_54" x1="51.0001" y1="51.1694" x2="51.0001" y2="41.3794" gradientUnits="userSpaceOnUse">
<stop offset="1" stop-color="white"/>
</linearGradient>
<linearGradient id="paint8_linear_197_54" x1="51.0002" y1="60.9893" x2="51.0002" y2="51.1893" gradientUnits="userSpaceOnUse">
<stop offset="1" stop-color="white"/>
</linearGradient>
<linearGradient id="paint9_linear_197_54" x1="31.9999" y1="49" x2="31.9999" y2="25" gradientUnits="userSpaceOnUse">
<stop stop-color="#474F72"/>
<stop offset="1" stop-color="#878C9F"/>
</linearGradient>
</defs>
</svg>
