<svg width="64" height="64" viewBox="0 0 64 64" fill="none" xmlns="http://www.w3.org/2000/svg">
<path d="M27.2002 60.4C27.0145 60.4 26.8324 60.3483 26.6745 60.2507C26.5165 60.153 26.3888 60.0133 26.3058 59.8472C26.2227 59.6811 26.1876 59.4952 26.2042 59.3102C26.2209 59.1252 26.2888 58.9486 26.4002 58.8L28.0002 56.67V50C28.0002 49.7348 28.1056 49.4804 28.2931 49.2929C28.4806 49.1054 28.735 49 29.0002 49C29.2654 49 29.5198 49.1054 29.7073 49.2929C29.8948 49.4804 30.0002 49.7348 30.0002 50C30.0002 57.54 30.0802 57.23 29.8002 57.6C27.9002 60.13 27.8502 60.4 27.2002 60.4Z" fill="#61CE9A"/>
<path d="M36.7998 60.4C36.1298 60.4 36.0798 60.1 34.1998 57.6C33.9198 57.23 33.9998 57.55 33.9998 50C33.9998 49.7348 34.1052 49.4804 34.2927 49.2929C34.4803 49.1054 34.7346 49 34.9998 49C35.2651 49 35.5194 49.1054 35.7069 49.2929C35.8945 49.4804 35.9998 49.7348 35.9998 50V56.67L37.5998 58.8C37.7113 58.9486 37.7791 59.1252 37.7958 59.3102C37.8125 59.4952 37.7773 59.6811 37.6943 59.8472C37.6112 60.0133 37.4835 60.153 37.3256 60.2507C37.1676 60.3483 36.9855 60.4 36.7998 60.4Z" fill="#61CE9A"/>
<path d="M47.3001 60.94C46.8901 60.94 47.3001 61.11 40.4701 56.85C39.8401 56.46 40.0001 56.51 40.0001 50C40.0001 49.7348 40.1054 49.4804 40.293 49.2929C40.4805 49.1054 40.7349 49 41.0001 49C41.2653 49 41.5197 49.1054 41.7072 49.2929C41.8947 49.4804 42.0001 49.7348 42.0001 50V55.45L47.8301 59.09C48.0152 59.2047 48.1578 59.3767 48.2362 59.5798C48.3146 59.7829 48.3246 60.0061 48.2646 60.2154C48.2047 60.4247 48.078 60.6088 47.9039 60.7395C47.7298 60.8703 47.5178 60.9407 47.3001 60.94Z" fill="#61CE9A"/>
<path d="M14 59V56C14 55.7348 14.1054 55.4804 14.2929 55.2929C14.4804 55.1054 14.7348 55 15 55H22V50C22 49.7348 22.1054 49.4804 22.2929 49.2929C22.4804 49.1054 22.7348 49 23 49C23.2652 49 23.5196 49.1054 23.7071 49.2929C23.8946 49.4804 24 49.7348 24 50V56C24 56.2652 23.8946 56.5196 23.7071 56.7071C23.5196 56.8946 23.2652 57 23 57H16V59C16 59.2652 15.8946 59.5196 15.7071 59.7071C15.5196 59.8946 15.2652 60 15 60C14.7348 60 14.4804 59.8946 14.2929 59.7071C14.1054 59.5196 14 59.2652 14 59Z" fill="#61CE9A"/>
<path d="M34 13.9996V6.99961C34 6.55961 34 6.60961 36 3.99961C36.1591 3.78744 36.396 3.64717 36.6586 3.60966C36.9211 3.57216 37.1878 3.64048 37.4 3.79961C37.6122 3.95874 37.7524 4.19564 37.79 4.45819C37.8275 4.72074 37.7591 4.98744 37.6 5.19961L36 7.32961V13.9996C36 14.2648 35.8946 14.5192 35.7071 14.7067C35.5196 14.8943 35.2652 14.9996 35 14.9996C34.7348 14.9996 34.4804 14.8943 34.2929 14.7067C34.1054 14.5192 34 14.2648 34 13.9996Z" fill="#61CE9A"/>
<path d="M28.0002 13.9996V7.32961L26.4002 5.19961C26.2411 4.98744 26.1727 4.72074 26.2102 4.45819C26.2478 4.19564 26.388 3.95874 26.6002 3.79961C26.8124 3.64048 27.0791 3.57216 27.3416 3.60966C27.6042 3.64717 27.8411 3.78744 28.0002 3.99961L29.8002 6.39961C30.0802 6.76961 30.0002 6.39961 30.0002 13.9996C30.0002 14.2648 29.8948 14.5192 29.7073 14.7067C29.5198 14.8943 29.2654 14.9996 29.0002 14.9996C28.735 14.9996 28.4806 14.8943 28.2931 14.7067C28.1056 14.5192 28.0002 14.2648 28.0002 13.9996Z" fill="#61CE9A"/>
<path d="M21.9999 14.0003V8.5503L16.1699 4.9103C15.9445 4.76973 15.7841 4.54537 15.7241 4.28657C15.6641 4.02777 15.7094 3.75573 15.8499 3.5303C15.9905 3.30486 16.2149 3.1445 16.4737 3.08449C16.7325 3.02448 17.0045 3.06973 17.2299 3.2103L23.5299 7.1503C24.1599 7.5403 23.9999 7.4903 23.9999 14.0003C23.9999 14.2655 23.8946 14.5199 23.7071 14.7074C23.5195 14.8949 23.2652 15.0003 22.9999 15.0003C22.7347 15.0003 22.4804 14.8949 22.2928 14.7074C22.1053 14.5199 21.9999 14.2655 21.9999 14.0003Z" fill="#61CE9A"/>
<path d="M40 14V8C40 7.73478 40.1054 7.48043 40.2929 7.29289C40.4804 7.10536 40.7348 7 41 7H48V5C48 4.73478 48.1054 4.48043 48.2929 4.29289C48.4804 4.10536 48.7348 4 49 4C49.2652 4 49.5196 4.10536 49.7071 4.29289C49.8946 4.48043 50 4.73478 50 5V8C50 8.26522 49.8946 8.51957 49.7071 8.70711C49.5196 8.89464 49.2652 9 49 9H42V14C42 14.2652 41.8946 14.5196 41.7071 14.7071C41.5196 14.8946 41.2652 15 41 15C40.7348 15 40.4804 14.8946 40.2929 14.7071C40.1054 14.5196 40 14.2652 40 14Z" fill="#61CE9A"/>
<path d="M14.0001 29.9992C6.4601 29.9992 6.7701 30.0792 6.4001 29.7992L4.0001 27.9992C3.89504 27.9204 3.80654 27.8217 3.73963 27.7087C3.67272 27.5957 3.62872 27.4706 3.61015 27.3406C3.57264 27.0781 3.64097 26.8114 3.8001 26.5992C3.95923 26.387 4.19613 26.2468 4.45868 26.2093C4.72123 26.1718 4.98793 26.2401 5.2001 26.3992L7.3301 27.9992H14.0001C14.2653 27.9992 14.5197 28.1046 14.7072 28.2921C14.8947 28.4797 15.0001 28.734 15.0001 28.9992C15.0001 29.2644 14.8947 29.5188 14.7072 29.7063C14.5197 29.8939 14.2653 29.9992 14.0001 29.9992Z" fill="#61CE9A"/>
<path d="M4.6001 37.8C4.39022 37.8 4.18565 37.734 4.01539 37.6112C3.84512 37.4885 3.71779 37.3153 3.65141 37.1162C3.58504 36.9171 3.583 36.7022 3.64558 36.5018C3.70816 36.3015 3.83219 36.1259 4.0001 36C6.6101 34 6.5601 34 7.0001 34H14.0001C14.2653 34 14.5197 34.1054 14.7072 34.2929C14.8947 34.4804 15.0001 34.7348 15.0001 35C15.0001 35.2652 14.8947 35.5196 14.7072 35.7071C14.5197 35.8946 14.2653 36 14.0001 36H7.3301C5.0001 37.73 5.0001 37.8 4.6001 37.8Z" fill="#61CE9A"/>
<path d="M4.06011 48.3002C3.88143 48.3005 3.70593 48.253 3.55184 48.1626C3.39776 48.0721 3.27072 47.942 3.18395 47.7858C3.09718 47.6296 3.05384 47.453 3.05844 47.2744C3.06304 47.0958 3.11541 46.9217 3.21011 46.7702C7.53011 39.8702 7.25011 40.0002 8.00011 40.0002H14.0001C14.2653 40.0002 14.5197 40.1055 14.7072 40.2931C14.8948 40.4806 15.0001 40.735 15.0001 41.0002C15.0001 41.2654 14.8948 41.5197 14.7072 41.7073C14.5197 41.8948 14.2653 42.0002 14.0001 42.0002H8.55011C4.58011 48.3502 4.81011 48.3002 4.06011 48.3002Z" fill="#61CE9A"/>
<path d="M14 24H8C7.73478 24 7.48043 23.8946 7.29289 23.7071C7.10536 23.5196 7 23.2652 7 23V16H5C4.73478 16 4.48043 15.8946 4.29289 15.7071C4.10536 15.5196 4 15.2652 4 15C4 14.7348 4.10536 14.4804 4.29289 14.2929C4.48043 14.1054 4.73478 14 5 14H8C8.26522 14 8.51957 14.1054 8.70711 14.2929C8.89464 14.4804 9 14.7348 9 15V22H14C14.2652 22 14.5196 22.1054 14.7071 22.2929C14.8946 22.4804 15 22.7348 15 23C15 23.2652 14.8946 23.5196 14.7071 23.7071C14.5196 23.8946 14.2652 24 14 24Z" fill="#61CE9A"/>
<path d="M59.4 37.8C58.96 37.8 59 37.8 56.67 36H50C49.7348 36 49.4804 35.8946 49.2929 35.7071C49.1054 35.5196 49 35.2652 49 35C49 34.7348 49.1054 34.4804 49.2929 34.2929C49.4804 34.1054 49.7348 34 50 34H57C57.44 34 57.38 34 60 36C60.1679 36.1259 60.2919 36.3015 60.3545 36.5018C60.4171 36.7022 60.4151 36.9171 60.3487 37.1162C60.2823 37.3153 60.155 37.4885 59.9847 37.6112C59.8144 37.734 59.6099 37.8 59.4 37.8Z" fill="#61CE9A"/>
<path d="M57 29.9992H50C49.7348 29.9992 49.4804 29.8939 49.2929 29.7063C49.1054 29.5188 49 29.2644 49 28.9992C49 28.734 49.1054 28.4797 49.2929 28.2921C49.4804 28.1046 49.7348 27.9992 50 27.9992H56.67L58.8 26.3992C59.0122 26.2401 59.2789 26.1718 59.5414 26.2093C59.804 26.2468 60.0409 26.387 60.2 26.5992C60.3591 26.8114 60.4275 27.0781 60.3899 27.3406C60.3524 27.6032 60.2122 27.8401 60 27.9992C57.38 29.9992 57.44 29.9992 57 29.9992Z" fill="#61CE9A"/>
<path d="M56 24.0009H50C49.7348 24.0009 49.4804 23.8956 49.2929 23.708C49.1054 23.5205 49 23.2661 49 23.0009C49 22.7357 49.1054 22.4813 49.2929 22.2938C49.4804 22.1063 49.7348 22.0009 50 22.0009H55.45L59.09 16.1709C59.2306 15.9455 59.4549 15.7851 59.7137 15.7251C59.9725 15.6651 60.2446 15.7104 60.47 15.8509C60.6954 15.9915 60.8558 16.2158 60.9158 16.4746C60.9758 16.7334 60.9306 17.0055 60.79 17.2309C56.47 24.1309 56.75 24.0009 56 24.0009Z" fill="#61CE9A"/>
<path d="M59 50H56C55.7348 50 55.4804 49.8946 55.2929 49.7071C55.1054 49.5196 55 49.2652 55 49V42H50C49.7348 42 49.4804 41.8946 49.2929 41.7071C49.1054 41.5196 49 41.2652 49 41C49 40.7348 49.1054 40.4804 49.2929 40.2929C49.4804 40.1054 49.7348 40 50 40H56C56.2652 40 56.5196 40.1054 56.7071 40.2929C56.8946 40.4804 57 40.7348 57 41V48H59C59.2652 48 59.5196 48.1054 59.7071 48.2929C59.8946 48.4804 60 48.7348 60 49C60 49.2652 59.8946 49.5196 59.7071 49.7071C59.5196 49.8946 59.2652 50 59 50Z" fill="#61CE9A"/>
<path d="M46 14H18C15.7909 14 14 15.7909 14 18V46C14 48.2091 15.7909 50 18 50H46C48.2091 50 50 48.2091 50 46V18C50 15.7909 48.2091 14 46 14Z" fill="url(#paint0_linear_197_79)"/>
<path d="M46 18H18V46H46V18Z" fill="url(#paint1_linear_197_79)"/>
<path d="M46 18H18V20H46V18Z" fill="#61CE9A"/>
<path d="M38 63C39.1046 63 40 62.1046 40 61C40 59.8954 39.1046 59 38 59C36.8954 59 36 59.8954 36 61C36 62.1046 36.8954 63 38 63Z" fill="url(#paint2_linear_197_79)"/>
<path d="M49 63C50.1046 63 51 62.1046 51 61C51 59.8954 50.1046 59 49 59C47.8954 59 47 59.8954 47 61C47 62.1046 47.8954 63 49 63Z" fill="url(#paint3_linear_197_79)"/>
<path d="M26 63C27.1046 63 28 62.1046 28 61C28 59.8954 27.1046 59 26 59C24.8954 59 24 59.8954 24 61C24 62.1046 24.8954 63 26 63Z" fill="url(#paint4_linear_197_79)"/>
<path d="M15 63C16.1046 63 17 62.1046 17 61C17 59.8954 16.1046 59 15 59C13.8954 59 13 59.8954 13 61C13 62.1046 13.8954 63 15 63Z" fill="url(#paint5_linear_197_79)"/>
<path d="M26 5C27.1046 5 28 4.10457 28 3C28 1.89543 27.1046 1 26 1C24.8954 1 24 1.89543 24 3C24 4.10457 24.8954 5 26 5Z" fill="url(#paint6_linear_197_79)"/>
<path d="M15 5C16.1046 5 17 4.10457 17 3C17 1.89543 16.1046 1 15 1C13.8954 1 13 1.89543 13 3C13 4.10457 13.8954 5 15 5Z" fill="url(#paint7_linear_197_79)"/>
<path d="M38 5C39.1046 5 40 4.10457 40 3C40 1.89543 39.1046 1 38 1C36.8954 1 36 1.89543 36 3C36 4.10457 36.8954 5 38 5Z" fill="url(#paint8_linear_197_79)"/>
<path d="M49 5C50.1046 5 51 4.10457 51 3C51 1.89543 50.1046 1 49 1C47.8954 1 47 1.89543 47 3C47 4.10457 47.8954 5 49 5Z" fill="url(#paint9_linear_197_79)"/>
<path d="M3 40C4.10457 40 5 39.1046 5 38C5 36.8954 4.10457 36 3 36C1.89543 36 1 36.8954 1 38C1 39.1046 1.89543 40 3 40Z" fill="url(#paint10_linear_197_79)"/>
<path d="M3 51C4.10457 51 5 50.1046 5 49C5 47.8954 4.10457 47 3 47C1.89543 47 1 47.8954 1 49C1 50.1046 1.89543 51 3 51Z" fill="url(#paint11_linear_197_79)"/>
<path d="M3 28C4.10457 28 5 27.1046 5 26C5 24.8954 4.10457 24 3 24C1.89543 24 1 24.8954 1 26C1 27.1046 1.89543 28 3 28Z" fill="url(#paint12_linear_197_79)"/>
<path d="M3 17C4.10457 17 5 16.1046 5 15C5 13.8954 4.10457 13 3 13C1.89543 13 1 13.8954 1 15C1 16.1046 1.89543 17 3 17Z" fill="url(#paint13_linear_197_79)"/>
<path d="M61 28C62.1046 28 63 27.1046 63 26C63 24.8954 62.1046 24 61 24C59.8954 24 59 24.8954 59 26C59 27.1046 59.8954 28 61 28Z" fill="url(#paint14_linear_197_79)"/>
<path d="M61 17C62.1046 17 63 16.1046 63 15C63 13.8954 62.1046 13 61 13C59.8954 13 59 13.8954 59 15C59 16.1046 59.8954 17 61 17Z" fill="url(#paint15_linear_197_79)"/>
<path d="M61 40C62.1046 40 63 39.1046 63 38C63 36.8954 62.1046 36 61 36C59.8954 36 59 36.8954 59 38C59 39.1046 59.8954 40 61 40Z" fill="url(#paint16_linear_197_79)"/>
<path d="M61 51C62.1046 51 63 50.1046 63 49C63 47.8954 62.1046 47 61 47C59.8954 47 59 47.8954 59 49C59 50.1046 59.8954 51 61 51Z" fill="url(#paint17_linear_197_79)"/>
<path d="M39.6998 29.86L41.6998 28.73L39.6998 25.27L37.7098 26.4C36.6888 25.3651 35.4069 24.6257 33.9998 24.26V22H29.9998V24.26C28.5928 24.6257 27.3109 25.3651 26.2898 26.4L24.3398 25.27L22.3398 28.73L24.3398 29.86C23.9397 31.2586 23.9397 32.7414 24.3398 34.14L22.3398 35.27L24.3398 38.73L26.2898 37.6C27.3109 38.6349 28.5928 39.3743 29.9998 39.74V42H33.9998V39.74C35.4069 39.3743 36.6888 38.6349 37.7098 37.6L39.6598 38.73L41.6598 35.27L39.6598 34.14C40.0731 32.7451 40.0869 31.2623 39.6998 29.86Z" fill="url(#paint18_linear_197_79)"/>
<path d="M32 35C33.6569 35 35 33.6569 35 32C35 30.3431 33.6569 29 32 29C30.3431 29 29 30.3431 29 32C29 33.6569 30.3431 35 32 35Z" fill="white"/>
<defs>
<linearGradient id="paint0_linear_197_79" x1="32" y1="50" x2="32" y2="14" gradientUnits="userSpaceOnUse">
<stop stop-color="#36BE84"/>
<stop offset="1" stop-color="#9BE4B7"/>
</linearGradient>
<linearGradient id="paint1_linear_197_79" x1="32" y1="46" x2="32" y2="18" gradientUnits="userSpaceOnUse">
<stop offset="1" stop-color="white"/>
</linearGradient>
<linearGradient id="paint2_linear_197_79" x1="38" y1="63" x2="38" y2="59" gradientUnits="userSpaceOnUse">
<stop offset="1" stop-color="#00B67A"/>
</linearGradient>
<linearGradient id="paint3_linear_197_79" x1="49" y1="0" x2="49" y2="0" gradientUnits="userSpaceOnUse">
<stop offset="1" stop-color="#00B67A"/>
</linearGradient>
<linearGradient id="paint4_linear_197_79" x1="26" y1="0" x2="26" y2="0" gradientUnits="userSpaceOnUse">
<stop offset="1" stop-color="#00B67A"/>
</linearGradient>
<linearGradient id="paint5_linear_197_79" x1="15" y1="0" x2="15" y2="0" gradientUnits="userSpaceOnUse">
<stop offset="1" stop-color="#00B67A"/>
</linearGradient>
<linearGradient id="paint6_linear_197_79" x1="26" y1="5" x2="26" y2="1" gradientUnits="userSpaceOnUse">
<stop offset="1" stop-color="#00B67A"/>
</linearGradient>
<linearGradient id="paint7_linear_197_79" x1="15" y1="5" x2="15" y2="1" gradientUnits="userSpaceOnUse">
<stop offset="1" stop-color="#00B67A"/>
</linearGradient>
<linearGradient id="paint8_linear_197_79" x1="-8.19564e-07" y1="5" x2="0.999999" y2="1" gradientUnits="userSpaceOnUse">
<stop offset="1" stop-color="#00B67A"/>
</linearGradient>
<linearGradient id="paint9_linear_197_79" x1="49" y1="5" x2="49" y2="1" gradientUnits="userSpaceOnUse">
<stop offset="1" stop-color="#00B67A"/>
</linearGradient>
<linearGradient id="paint10_linear_197_79" x1="3" y1="40" x2="3" y2="36" gradientUnits="userSpaceOnUse">
<stop offset="1" stop-color="#00B67A"/>
</linearGradient>
<linearGradient id="paint11_linear_197_79" x1="3" y1="51" x2="3" y2="47" gradientUnits="userSpaceOnUse">
<stop offset="1" stop-color="#00B67A"/>
</linearGradient>
<linearGradient id="paint12_linear_197_79" x1="3" y1="28" x2="3" y2="24" gradientUnits="userSpaceOnUse">
<stop offset="1" stop-color="#00B67A"/>
</linearGradient>
<linearGradient id="paint13_linear_197_79" x1="3" y1="17" x2="3" y2="13" gradientUnits="userSpaceOnUse">
<stop offset="1" stop-color="#00B67A"/>
</linearGradient>
<linearGradient id="paint14_linear_197_79" x1="61" y1="28" x2="61" y2="24" gradientUnits="userSpaceOnUse">
<stop offset="1" stop-color="#00B67A"/>
</linearGradient>
<linearGradient id="paint15_linear_197_79" x1="61" y1="17" x2="61" y2="13" gradientUnits="userSpaceOnUse">
<stop offset="1" stop-color="#00B67A"/>
</linearGradient>
<linearGradient id="paint16_linear_197_79" x1="61" y1="40" x2="61" y2="36" gradientUnits="userSpaceOnUse">
<stop offset="1" stop-color="#00B67A"/>
</linearGradient>
<linearGradient id="paint17_linear_197_79" x1="61" y1="51" x2="61" y2="47" gradientUnits="userSpaceOnUse">
<stop offset="1" stop-color="#00B67A"/>
</linearGradient>
<linearGradient id="paint18_linear_197_79" x1="31.9998" y1="42" x2="31.9998" y2="22" gradientUnits="userSpaceOnUse">
<stop stop-color="#474F72"/>
<stop offset="1" stop-color="#878C9F"/>
</linearGradient>
</defs>
</svg>
