<svg width="55" height="47" viewBox="0 0 55 47" fill="none" xmlns="http://www.w3.org/2000/svg">
<path d="M6.8604 7.79107C6.34633 6.90002 5.86653 6.18032 5.421 5.63198C4.97548 5.04936 4.51281 4.5867 4.03301 4.24399C3.58749 3.90127 3.10769 3.67851 2.59362 3.5757C2.07955 3.43861 1.46266 3.37007 0.742965 3.37007V1.4166H16.9362V3.37007C15.2226 3.37007 14.006 3.50715 13.2863 3.78132C12.6008 4.02122 12.2581 4.46675 12.2581 5.11791C12.2581 5.8376 12.6523 6.86574 13.4405 8.20233L21.4086 21.8252H21.6142L27.4232 12.0579C28.5199 10.2072 29.291 8.75067 29.7365 7.68826C30.2163 6.62585 30.4562 5.76906 30.4562 5.11791C30.4562 4.46675 30.1992 4.02122 29.6851 3.78132C29.2053 3.50715 28.3485 3.37007 27.1148 3.37007V1.4166H38.887V3.37007C38.1673 3.37007 37.5161 3.47288 36.9335 3.67851C36.3852 3.88414 35.8025 4.29539 35.1857 4.91228C34.5688 5.52916 33.8834 6.38595 33.1294 7.48263C32.4097 8.57931 31.5186 10.0187 30.4562 11.8008L22.5395 25.1666V31.2841C22.5395 32.9634 22.5909 34.3171 22.6938 35.3452C22.8308 36.3391 23.0879 37.1102 23.4649 37.6585C23.8761 38.2069 24.4416 38.5839 25.1613 38.7895C25.9153 38.9609 26.9091 39.0465 28.1429 39.0465V41H11.487V39.0465C12.7208 39.0465 13.6975 38.9609 14.4172 38.7895C15.1712 38.5839 15.7367 38.224 16.1137 37.71C16.5249 37.1616 16.7991 36.4076 16.9362 35.448C17.0733 34.4884 17.1418 33.2204 17.1418 31.6439V25.3723L6.8604 7.79107Z" fill="#00B67A"/>
<path d="M52.24 37.68C51.28 38.8533 50.04 39.7733 48.52 40.44C47 41.08 45.36 41.4 43.6 41.4C42.1867 41.4 40.88 41.1467 39.68 40.64C38.5067 40.1067 37.4933 39.3733 36.64 38.44C35.7867 37.48 35.12 36.3333 34.64 35C34.1867 33.6667 33.96 32.1867 33.96 30.56C33.96 28.8533 34.2267 27.32 34.76 25.96C35.2933 24.5733 36.04 23.4 37 22.44C37.9867 21.4533 39.16 20.7067 40.52 20.2C41.9067 19.6667 43.4267 19.4 45.08 19.4C46.12 19.4 47.0667 19.4933 47.92 19.68C48.7733 19.84 49.5067 20.08 50.12 20.4C50.76 20.6933 51.2533 21.0667 51.6 21.52C51.9467 21.9467 52.12 22.4133 52.12 22.92C52.12 23.4533 51.9467 23.8667 51.6 24.16C51.2533 24.4533 50.7733 24.6 50.16 24.6C49.68 24.6 49.28 24.5067 48.96 24.32C48.64 24.1067 48.2267 23.6533 47.72 22.96C47.1867 22.3467 46.6667 21.92 46.16 21.68C45.68 21.4133 45.0533 21.28 44.28 21.28C42.3867 21.28 40.9467 22.0133 39.96 23.48C39 24.9467 38.52 27.1067 38.52 29.96C38.52 33.0267 39.0533 35.36 40.12 36.96C41.2133 38.5333 42.8 39.32 44.88 39.32C46 39.32 47.0533 39.1067 48.04 38.68C49.0267 38.2267 50.0267 37.5067 51.04 36.52L52.24 37.68Z" fill="black"/>
</svg>
