<svg width="181" height="49" viewBox="0 0 181 49" fill="none" xmlns="http://www.w3.org/2000/svg">
<path d="M40.6798 10.577C41.6565 10.577 42.5819 10.7569 43.4558 11.1168C44.3297 11.4595 45.0922 11.9393 45.7434 12.5562C46.4117 13.1731 46.9343 13.9099 47.3113 14.7667C47.7054 15.6063 47.9025 16.5316 47.9025 17.5426C47.9025 18.5879 47.7054 19.5475 47.3113 20.4214C46.9343 21.2954 46.4117 22.0493 45.7434 22.6833C45.0922 23.3174 44.3297 23.8143 43.4558 24.1742C42.5819 24.534 41.6565 24.7139 40.6798 24.7139C39.7202 24.7139 38.8035 24.5426 37.9295 24.1999C37.0728 23.84 36.3188 23.3431 35.6676 22.7091C35.0165 22.075 34.5024 21.3211 34.1254 20.4471C33.7484 19.5561 33.5599 18.5879 33.5599 17.5426C33.5599 16.5316 33.7484 15.5977 34.1254 14.741C34.5024 13.8842 35.0165 13.1473 35.6676 12.5305C36.3188 11.9136 37.0728 11.4338 37.9295 11.0911C38.8035 10.7484 39.7202 10.577 40.6798 10.577ZM40.6798 11.8108C40.0458 11.8108 39.4632 11.9479 38.932 12.222C38.4179 12.4962 37.9724 12.8903 37.5954 13.4044C37.2355 13.9013 36.9528 14.5096 36.7472 15.2293C36.5587 15.9319 36.4644 16.7116 36.4644 17.5684C36.4644 18.4594 36.5587 19.2648 36.7472 19.9845C36.9528 20.7042 37.2355 21.3211 37.5954 21.8351C37.9724 22.3321 38.4179 22.7176 38.932 22.9918C39.446 23.266 40.0287 23.403 40.6798 23.403C41.331 23.403 41.9221 23.266 42.4534 22.9918C42.9846 22.7176 43.4387 22.3235 43.8156 21.8094C44.1926 21.2954 44.4839 20.6785 44.6896 19.9588C44.8952 19.2391 44.998 18.4423 44.998 17.5684C44.998 16.7116 44.8952 15.9319 44.6896 15.2293C44.4839 14.5268 44.1926 13.927 43.8156 13.4301C43.4387 12.916 42.9846 12.5219 42.4534 12.2477C41.9221 11.9564 41.331 11.8108 40.6798 11.8108ZM61.5844 22.2978H61.4816C60.8647 23.1717 60.205 23.7972 59.5024 24.1742C58.817 24.534 58.003 24.7139 57.0606 24.7139C56.0838 24.7139 55.1842 24.5426 54.3617 24.1999C53.5563 23.84 52.8538 23.3516 52.254 22.7348C51.6714 22.1007 51.2087 21.3468 50.866 20.4728C50.5405 19.5989 50.3777 18.6479 50.3777 17.6198C50.3777 16.6088 50.5405 15.6749 50.866 14.8181C51.2087 13.9442 51.6714 13.1988 52.254 12.5819C52.8538 11.9479 53.5649 11.4595 54.3874 11.1168C55.2099 10.7569 56.101 10.577 57.0606 10.577C57.8831 10.577 58.6114 10.7141 59.2454 10.9883C59.8965 11.2624 60.522 11.6994 61.1217 12.2991V9.67737C61.1217 8.70064 61.1046 7.8867 61.0703 7.23554C61.0532 6.58439 61.0189 6.13886 60.9675 5.89896C60.8818 5.52197 60.6419 5.25637 60.2478 5.10215C59.8537 4.94793 59.2111 4.87082 58.32 4.87082V4.09971L63.5893 3.12298V17.9539C63.5893 19.1363 63.5978 20.113 63.615 20.8841C63.6321 21.6381 63.6835 22.1778 63.7692 22.5034C63.8206 22.7091 63.8806 22.8804 63.9491 23.0175C64.0348 23.1546 64.1462 23.266 64.2833 23.3516C64.4375 23.4202 64.6345 23.4716 64.8744 23.5059C65.1315 23.5401 65.4571 23.5573 65.8512 23.5573V24.4312L61.5844 24.7139V22.2978ZM61.0703 16.6173C61.0703 15.7263 61.0189 15.0494 60.9161 14.5867C60.8304 14.1241 60.6505 13.7214 60.3763 13.3787C59.9822 12.8646 59.4767 12.4791 58.8598 12.222C58.2601 11.9479 57.6603 11.8108 57.0606 11.8108C55.8268 11.8108 54.8843 12.3248 54.2332 13.353C53.5992 14.364 53.2822 15.7434 53.2822 17.4912C53.2822 18.3994 53.3593 19.2219 53.5135 19.9588C53.6848 20.6956 53.9247 21.3296 54.2332 21.8608C54.5588 22.3749 54.9529 22.7776 55.4155 23.0689C55.8953 23.3431 56.4437 23.4802 57.0606 23.4802C57.369 23.4802 57.6775 23.4459 57.9859 23.3773C58.3115 23.3088 58.6199 23.206 58.9112 23.0689C59.2197 22.9147 59.5024 22.7433 59.7594 22.5548C60.0165 22.3492 60.2307 22.1179 60.402 21.8608C60.6419 21.4839 60.8133 21.0298 60.9161 20.4986C61.0189 19.9673 61.0703 19.2391 61.0703 18.3138V16.6173ZM75.4593 16.8487C74.4825 17.2256 73.6514 17.5941 72.966 17.9539C72.2977 18.3138 71.758 18.6736 71.3467 19.0335C70.9354 19.3933 70.6356 19.7531 70.4471 20.113C70.2757 20.4728 70.19 20.8413 70.19 21.2182C70.19 21.7837 70.3785 22.2464 70.7555 22.6062C71.1325 22.9661 71.6294 23.146 72.2463 23.146C72.6919 23.146 73.1031 23.0346 73.4801 22.8119C73.8742 22.5891 74.2169 22.2892 74.5082 21.9122C74.7995 21.5181 75.0309 21.064 75.2022 20.55C75.3736 20.0188 75.4593 19.4618 75.4593 18.8792V16.8487ZM75.4593 15.7434V14.6896C75.4593 12.599 74.5682 11.5537 72.7861 11.5537C72.4948 11.5537 72.2463 11.5794 72.0407 11.6308C71.8351 11.6822 71.6637 11.7679 71.5266 11.8879C71.3895 12.0078 71.261 12.1792 71.1411 12.4019C71.0383 12.6247 70.9354 12.8989 70.8326 13.2245C70.6441 13.7214 70.4556 14.0555 70.2672 14.2269C70.0958 14.3811 69.8388 14.4582 69.496 14.4582C68.6393 14.4582 68.2109 14.0298 68.2109 13.1731C68.2109 12.3505 68.6478 11.7165 69.5218 11.271C70.3957 10.8083 71.638 10.577 73.2488 10.577C74.9623 10.577 76.179 10.8854 76.8987 11.5023C77.6184 12.1021 77.9782 13.1302 77.9782 14.5867V20.3443C77.9782 22.2978 78.3638 23.2745 79.1349 23.2745C79.3748 23.2745 79.6061 23.2488 79.8289 23.1974C80.0516 23.1289 80.2401 22.9661 80.3943 22.7091L80.7542 23.3259C80.5486 23.7201 80.1716 24.0542 79.6232 24.3284C79.0749 24.5854 78.5008 24.7139 77.9011 24.7139C77.1471 24.7139 76.5816 24.474 76.2047 23.9942C75.8448 23.5144 75.6649 22.8376 75.6649 21.9637H75.5364C75.0908 22.8033 74.474 23.4716 73.6857 23.9685C72.8975 24.4483 72.0236 24.6882 71.064 24.6882C69.9844 24.6882 69.1362 24.4141 68.5193 23.8657C67.9024 23.3174 67.594 22.5805 67.594 21.6552C67.594 21.244 67.6625 20.8498 67.7996 20.4728C67.9538 20.0959 68.1937 19.736 68.5193 19.3933C68.8449 19.0506 69.2733 18.7164 69.8045 18.3909C70.3357 18.0481 70.9869 17.7054 71.758 17.3627L75.4593 15.7434Z" fill="black"/>
<path d="M6.8604 7.79107C6.34633 6.90002 5.86653 6.18032 5.421 5.63198C4.97548 5.04936 4.51281 4.5867 4.03301 4.24399C3.58749 3.90127 3.10769 3.67851 2.59362 3.5757C2.07955 3.43861 1.46266 3.37007 0.742965 3.37007V1.4166H16.9362V3.37007C15.2226 3.37007 14.006 3.50715 13.2863 3.78132C12.6008 4.02122 12.2581 4.46675 12.2581 5.11791C12.2581 5.8376 12.6523 6.86574 13.4405 8.20233L21.4086 21.8252H21.6142L27.4232 12.0579C28.5199 10.2072 29.291 8.75067 29.7365 7.68826C30.2163 6.62585 30.4562 5.76906 30.4562 5.11791C30.4562 4.46675 30.1992 4.02122 29.6851 3.78132C29.2053 3.50715 28.3485 3.37007 27.1148 3.37007V1.4166H38.887V3.37007C38.1673 3.37007 37.5161 3.47288 36.9335 3.67851C36.3852 3.88414 35.8025 4.29539 35.1857 4.91228C34.5688 5.52916 33.8834 6.38595 33.1294 7.48263C32.4097 8.57931 31.5186 10.0187 30.4562 11.8008L22.5395 25.1666V31.2841C22.5395 32.9634 22.5909 34.3171 22.6938 35.3452C22.8308 36.3391 23.0879 37.1102 23.4649 37.6585C23.8761 38.2069 24.4416 38.5839 25.1613 38.7895C25.9153 38.9609 26.9091 39.0465 28.1429 39.0465V41H11.487V39.0465C12.7208 39.0465 13.6975 38.9609 14.4172 38.7895C15.1712 38.5839 15.7367 38.224 16.1137 37.71C16.5249 37.1616 16.7991 36.4076 16.9362 35.448C17.0733 34.4884 17.1418 33.2204 17.1418 31.6439V25.3723L6.8604 7.79107Z" fill="#00B67A"/>
<path d="M45.3321 39.8666C44.7153 40.6206 43.9185 41.2118 42.9417 41.6402C41.965 42.0514 40.9111 42.2571 39.7802 42.2571C38.872 42.2571 38.0324 42.0943 37.2612 41.7687C36.5073 41.426 35.8561 40.9548 35.3078 40.355C34.7594 39.7381 34.331 39.0013 34.0226 38.1445C33.7313 37.2877 33.5856 36.3367 33.5856 35.2914C33.5856 34.1947 33.757 33.2094 34.0997 32.3355C34.4424 31.4445 34.9222 30.6905 35.5391 30.0736C36.1731 29.4396 36.9271 28.9598 37.801 28.6342C38.6921 28.2915 39.6688 28.1201 40.7312 28.1201C41.3995 28.1201 42.0078 28.1801 42.5562 28.3001C43.1045 28.4029 43.5757 28.5571 43.9699 28.7627C44.3811 28.9512 44.6981 29.1911 44.9209 29.4824C45.1437 29.7566 45.255 30.0565 45.255 30.3821C45.255 30.7248 45.1437 30.9904 44.9209 31.1789C44.6981 31.3674 44.3897 31.4616 43.9956 31.4616C43.6871 31.4616 43.4301 31.4016 43.2245 31.2817C43.0188 31.1446 42.7532 30.8533 42.4276 30.4078C42.0849 30.0136 41.7508 29.7395 41.4252 29.5852C41.1168 29.4139 40.7141 29.3282 40.2171 29.3282C39.0005 29.3282 38.0752 29.7994 37.4412 30.7419C36.8243 31.6844 36.5158 33.0724 36.5158 34.9059C36.5158 36.8765 36.8586 38.3758 37.544 39.404C38.2465 40.415 39.2661 40.9205 40.6027 40.9205C41.3224 40.9205 41.9993 40.7834 42.6333 40.5092C43.2673 40.2179 43.9099 39.7553 44.561 39.1212L45.3321 39.8666ZM54.4603 28.1201C55.437 28.1201 56.3624 28.3001 57.2363 28.6599C58.1102 29.0026 58.8727 29.4824 59.5239 30.0993C60.1922 30.7162 60.7148 31.453 61.0918 32.3098C61.4859 33.1495 61.683 34.0748 61.683 35.0858C61.683 36.1311 61.4859 37.0907 61.0918 37.9646C60.7148 38.8385 60.1922 39.5925 59.5239 40.2265C58.8727 40.8605 58.1102 41.3575 57.2363 41.7173C56.3624 42.0771 55.437 42.2571 54.4603 42.2571C53.5007 42.2571 52.5839 42.0857 51.71 41.743C50.8532 41.3832 50.0993 40.8862 49.4481 40.2522C48.797 39.6182 48.2829 38.8642 47.9059 37.9903C47.5289 37.0992 47.3404 36.1311 47.3404 35.0858C47.3404 34.0748 47.5289 33.1409 47.9059 32.2841C48.2829 31.4273 48.797 30.6905 49.4481 30.0736C50.0993 29.4567 50.8532 28.9769 51.71 28.6342C52.5839 28.2915 53.5007 28.1201 54.4603 28.1201ZM54.4603 29.3539C53.8263 29.3539 53.2437 29.491 52.7125 29.7652C52.1984 30.0393 51.7529 30.4335 51.3759 30.9475C51.016 31.4445 50.7333 32.0528 50.5277 32.7725C50.3392 33.475 50.2449 34.2547 50.2449 35.1115C50.2449 36.0026 50.3392 36.8079 50.5277 37.5276C50.7333 38.2473 51.016 38.8642 51.3759 39.3783C51.7529 39.8752 52.1984 40.2608 52.7125 40.5349C53.2265 40.8091 53.8091 40.9462 54.4603 40.9462C55.1115 40.9462 55.7026 40.8091 56.2338 40.5349C56.7651 40.2608 57.2191 39.8666 57.5961 39.3526C57.9731 38.8385 58.2644 38.2216 58.4701 37.5019C58.6757 36.7822 58.7785 35.9854 58.7785 35.1115C58.7785 34.2547 58.6757 33.475 58.4701 32.7725C58.2644 32.0699 57.9731 31.4702 57.5961 30.9732C57.2191 30.4592 56.7651 30.065 56.2338 29.7909C55.7026 29.4996 55.1115 29.3539 54.4603 29.3539ZM68.4763 37.9646C68.4763 38.6672 68.4935 39.2241 68.5277 39.6353C68.562 40.0294 68.6477 40.3379 68.7848 40.5606C68.939 40.7663 69.1532 40.9034 69.4274 40.9719C69.7187 41.0404 70.1128 41.0918 70.6097 41.1261V42H63.8754V41.1261C64.3552 41.0918 64.7322 41.0404 65.0064 40.9719C65.2977 40.9034 65.5204 40.7663 65.6747 40.5606C65.8289 40.355 65.9231 40.0637 65.9574 39.6867C66.0088 39.3097 66.0345 38.7957 66.0345 38.1445V34.7259C66.0345 32.6868 65.9831 31.4445 65.8803 30.9989C65.8289 30.7762 65.7603 30.5962 65.6747 30.4592C65.6061 30.3049 65.4947 30.1936 65.3405 30.125C65.1863 30.0393 64.9892 29.9879 64.7493 29.9708C64.5094 29.9365 64.201 29.9194 63.824 29.9194V29.0969L67.9366 28.1201L68.245 30.6648H68.3478C68.999 29.8594 69.7615 29.234 70.6354 28.7884C71.5094 28.3429 72.4604 28.1201 73.4885 28.1201C74.2768 28.1201 74.9965 28.2487 75.6476 28.5057C76.2988 28.7627 76.7957 29.114 77.1384 29.5595C77.4297 29.9537 77.6354 30.4677 77.7553 31.1018C77.8753 31.7186 77.9352 32.5754 77.9352 33.6721V37.9646C77.9352 38.6672 77.9524 39.2241 77.9866 39.6353C78.038 40.0294 78.1323 40.3379 78.2694 40.5606C78.4065 40.7663 78.6121 40.9034 78.8863 40.9719C79.1776 41.0404 79.5546 41.0918 80.0172 41.1261V42H73.36V41.1261C73.8398 41.109 74.2168 41.0661 74.491 40.9976C74.7823 40.9119 74.9965 40.7663 75.1336 40.5606C75.2878 40.355 75.382 40.0637 75.4163 39.6867C75.4677 39.2926 75.4934 38.7785 75.4934 38.1445V34.7516C75.4934 33.7749 75.442 32.9524 75.3392 32.2841C75.2364 31.6158 75.065 31.076 74.8251 30.6648C74.6023 30.2535 74.3025 29.9622 73.9255 29.7909C73.5485 29.6024 73.0944 29.5081 72.5632 29.5081C71.7921 29.5081 71.081 29.7138 70.4298 30.125C69.7958 30.5191 69.2989 31.0675 68.939 31.77C68.8533 31.9414 68.7762 32.1042 68.7077 32.2584C68.6563 32.4126 68.6134 32.5926 68.5792 32.7982C68.5449 33.0038 68.5192 33.2437 68.502 33.5179C68.4849 33.7749 68.4763 34.1091 68.4763 34.5203V37.9646ZM82.8562 42H82.2908V37.579H82.9334C83.6017 39.9952 84.8183 41.2032 86.5833 41.2032C87.2687 41.2032 87.8085 41.0404 88.2026 40.7149C88.6138 40.3721 88.8195 39.8581 88.8195 39.1727C88.8195 38.9156 88.7766 38.7014 88.6909 38.5301C88.6224 38.3416 88.4767 38.1531 88.254 37.9646C88.0484 37.759 87.7485 37.5276 87.3544 37.2706C86.9774 37.0136 86.4719 36.688 85.8379 36.2939C85.2552 35.934 84.7497 35.5999 84.3213 35.2914C83.893 34.983 83.5331 34.6745 83.2418 34.3661C82.9505 34.0405 82.7277 33.6978 82.5735 33.338C82.4364 32.9781 82.3679 32.5583 82.3679 32.0785C82.3679 31.4959 82.4621 30.9647 82.6506 30.4849C82.8562 29.9879 83.1304 29.5681 83.4731 29.2254C83.8158 28.8827 84.2185 28.6171 84.6812 28.4286C85.1439 28.223 85.6494 28.1201 86.1977 28.1201C86.6604 28.1201 87.1402 28.1973 87.6371 28.3515C88.134 28.4886 88.571 28.6771 88.948 28.917L89.4621 28.3772H89.9504V32.0785H89.2821C88.9051 31.0332 88.4939 30.2878 88.0484 29.8423C87.6028 29.3968 87.0545 29.174 86.4033 29.174C85.8207 29.174 85.3495 29.3282 84.9896 29.6367C84.6469 29.9451 84.4756 30.3735 84.4756 30.9218C84.4756 31.2131 84.5184 31.4702 84.6041 31.6929C84.7069 31.8986 84.8611 32.1042 85.0668 32.3098C85.2724 32.5154 85.5294 32.7296 85.8379 32.9524C86.1634 33.158 86.549 33.3979 86.9945 33.6721C87.7313 34.1348 88.3568 34.546 88.8709 34.9059C89.4021 35.2657 89.8305 35.6256 90.156 35.9854C90.4816 36.3281 90.7215 36.688 90.8757 37.065C91.03 37.4419 91.1071 37.8703 91.1071 38.3501C91.1071 39.5668 90.713 40.5264 89.9247 41.2289C89.1365 41.9144 88.0998 42.2571 86.8146 42.2571C85.478 42.2571 84.3299 41.8715 83.3703 41.1004L82.8562 42ZM104.218 32.4897C104.218 31.7872 104.201 31.2388 104.167 30.8447C104.133 30.4335 104.039 30.125 103.884 29.9194C103.747 29.6966 103.533 29.551 103.242 29.4824C102.968 29.3968 102.582 29.3282 102.085 29.2768V28.3772H106.737V36.2682C106.737 37.2449 106.746 38.0417 106.763 38.6586C106.797 39.2755 106.84 39.7381 106.892 40.0466C106.926 40.2693 106.977 40.4493 107.046 40.5863C107.132 40.7063 107.251 40.8091 107.406 40.8948C107.56 40.9633 107.757 41.0147 107.997 41.049C108.254 41.0661 108.579 41.0747 108.974 41.0747V41.9743L104.733 42.2828L104.45 39.1984H104.347C103.696 40.2608 102.942 41.0404 102.085 41.5374C101.245 42.0172 100.363 42.2571 99.4376 42.2571C98.7179 42.2571 98.0154 42.12 97.3299 41.8458C96.6616 41.5716 96.1561 41.2032 95.8134 40.7406C95.5221 40.3636 95.3079 39.8409 95.1708 39.1727C95.0509 38.5044 94.9909 37.639 94.9909 36.5766V32.4897C94.9909 31.7872 94.9738 31.2388 94.9395 30.8447C94.9052 30.4335 94.811 30.125 94.6568 29.9194C94.5197 29.6966 94.3055 29.551 94.0142 29.4824C93.74 29.3968 93.3545 29.3282 92.8575 29.2768V28.3772H97.5099V35.3942C97.5099 37.262 97.7241 38.6157 98.1524 39.4554C98.598 40.295 99.3005 40.7149 100.26 40.7149C101.768 40.7149 102.942 39.7296 103.782 37.759C103.867 37.5533 103.936 37.3648 103.987 37.1935C104.039 37.0221 104.081 36.8336 104.116 36.628C104.15 36.4224 104.176 36.191 104.193 35.934C104.21 35.677 104.218 35.3685 104.218 35.0087V32.4897ZM114.909 37.9903C114.909 38.6414 114.935 39.1641 114.986 39.5582C115.038 39.9523 115.14 40.2608 115.295 40.4835C115.466 40.7063 115.697 40.8605 115.989 40.9462C116.297 41.0319 116.7 41.0833 117.197 41.1004V42H110.103V41.1004C110.617 41.0833 111.028 41.0319 111.336 40.9462C111.645 40.8434 111.885 40.6892 112.056 40.4835C112.245 40.2779 112.364 39.9952 112.416 39.6353C112.484 39.2583 112.519 38.77 112.519 38.1702V27.092C112.519 26.1667 112.502 25.3956 112.467 24.7787C112.45 24.1447 112.416 23.7163 112.364 23.4935C112.279 23.0994 112.073 22.8338 111.748 22.6967C111.439 22.5596 110.874 22.4911 110.051 22.4911V21.6172L114.909 20.6661V37.9903ZM118.924 29.9965V29.0455C119.832 28.5143 120.543 27.9831 121.057 27.4519C121.571 26.9206 121.965 26.2866 122.24 25.5498H122.985V28.7884H126.429V29.9965H122.985V37.8104C122.985 38.4101 123.011 38.9156 123.062 39.3269C123.131 39.7381 123.234 40.0723 123.371 40.3293C123.508 40.5692 123.688 40.7406 123.91 40.8434C124.133 40.9462 124.416 40.9976 124.759 40.9976C125.187 40.9976 125.547 40.9119 125.838 40.7406C126.147 40.5521 126.446 40.2436 126.738 39.8152L127.38 40.3036C127.14 40.9376 126.721 41.426 126.121 41.7687C125.538 42.0943 124.81 42.2571 123.936 42.2571C122.805 42.2571 121.94 41.9915 121.34 41.4603C120.757 40.9119 120.466 40.1323 120.466 39.1212V29.9965H118.924ZM133.47 37.9132C133.47 38.5815 133.496 39.1212 133.547 39.5325C133.616 39.9266 133.736 40.2436 133.907 40.4835C134.079 40.7063 134.318 40.8605 134.627 40.9462C134.935 41.0319 135.347 41.0833 135.861 41.1004V42H128.484V41.1004C128.998 41.0833 129.418 41.0319 129.743 40.9462C130.069 40.8434 130.317 40.6892 130.489 40.4835C130.677 40.2608 130.797 39.9609 130.849 39.5839C130.917 39.1898 130.951 38.6929 130.951 38.0931V34.8031C130.951 33.8092 130.934 32.9952 130.9 32.3612C130.883 31.7101 130.84 31.2645 130.771 31.0246C130.686 30.6305 130.489 30.3649 130.18 30.2278C129.872 30.0736 129.289 29.9965 128.432 29.9965V29.0969L133.47 28.1201V37.9132ZM130.514 22.9023C130.514 22.4568 130.669 22.0798 130.977 21.7714C131.285 21.4629 131.662 21.3087 132.108 21.3087C132.554 21.3087 132.93 21.4629 133.239 21.7714C133.547 22.0798 133.702 22.4568 133.702 22.9023C133.702 23.3479 133.547 23.7248 133.239 24.0333C132.93 24.3417 132.554 24.496 132.108 24.496C131.662 24.496 131.285 24.3417 130.977 24.0333C130.669 23.7248 130.514 23.3479 130.514 22.9023ZM141.922 37.9646C141.922 38.6672 141.939 39.2241 141.974 39.6353C142.008 40.0294 142.093 40.3379 142.231 40.5606C142.385 40.7663 142.599 40.9034 142.873 40.9719C143.164 41.0404 143.559 41.0918 144.055 41.1261V42H137.321V41.1261C137.801 41.0918 138.178 41.0404 138.452 40.9719C138.743 40.9034 138.966 40.7663 139.12 40.5606C139.275 40.355 139.369 40.0637 139.403 39.6867C139.455 39.3097 139.48 38.7957 139.48 38.1445V34.7259C139.48 32.6868 139.429 31.4445 139.326 30.9989C139.275 30.7762 139.206 30.5962 139.12 30.4592C139.052 30.3049 138.94 30.1936 138.786 30.125C138.632 30.0393 138.435 29.9879 138.195 29.9708C137.955 29.9365 137.647 29.9194 137.27 29.9194V29.0969L141.382 28.1201L141.691 30.6648H141.794C142.445 29.8594 143.207 29.234 144.081 28.7884C144.955 28.3429 145.906 28.1201 146.934 28.1201C147.723 28.1201 148.442 28.2487 149.093 28.5057C149.745 28.7627 150.241 29.114 150.584 29.5595C150.875 29.9537 151.081 30.4677 151.201 31.1018C151.321 31.7186 151.381 32.5754 151.381 33.6721V37.9646C151.381 38.6672 151.398 39.2241 151.432 39.6353C151.484 40.0294 151.578 40.3379 151.715 40.5606C151.852 40.7663 152.058 40.9034 152.332 40.9719C152.623 41.0404 153 41.0918 153.463 41.1261V42H146.806V41.1261C147.286 41.109 147.663 41.0661 147.937 40.9976C148.228 40.9119 148.442 40.7663 148.579 40.5606C148.734 40.355 148.828 40.0637 148.862 39.6867C148.913 39.2926 148.939 38.7785 148.939 38.1445V34.7516C148.939 33.7749 148.888 32.9524 148.785 32.2841C148.682 31.6158 148.511 31.076 148.271 30.6648C148.048 30.2535 147.748 29.9622 147.371 29.7909C146.994 29.6024 146.54 29.5081 146.009 29.5081C145.238 29.5081 144.527 29.7138 143.876 30.125C143.242 30.5191 142.745 31.0675 142.385 31.77C142.299 31.9414 142.222 32.1042 142.153 32.2584C142.102 32.4126 142.059 32.5926 142.025 32.7982C141.991 33.0038 141.965 33.2437 141.948 33.5179C141.931 33.7749 141.922 34.1091 141.922 34.5203V37.9646ZM161.134 36.4738C161.854 36.4738 162.411 36.1482 162.805 35.4971C163.216 34.8459 163.422 33.9291 163.422 32.7468C163.422 31.5816 163.216 30.6819 162.805 30.0479C162.411 29.3968 161.845 29.0712 161.109 29.0712C160.372 29.0712 159.781 29.3968 159.335 30.0479C158.907 30.6991 158.692 31.5901 158.692 32.7211C158.692 33.852 158.915 34.7602 159.361 35.4456C159.806 36.1311 160.397 36.4738 161.134 36.4738ZM159.721 39.4811C160.132 39.5154 160.509 39.5496 160.852 39.5839C161.194 39.6182 161.528 39.6525 161.854 39.6867C162.197 39.721 162.531 39.7638 162.856 39.8152C163.199 39.8666 163.568 39.9181 163.962 39.9695C165.195 40.158 166.181 40.6378 166.918 41.4089C167.672 42.1628 168.049 43.1139 168.049 44.2619C168.049 45.7013 167.474 46.798 166.326 47.552C165.195 48.306 163.55 48.6829 161.391 48.6829C160.432 48.6829 159.549 48.5973 158.744 48.4259C157.956 48.2546 157.279 48.0061 156.713 47.6805C156.148 47.3721 155.702 46.9951 155.377 46.5496C155.068 46.104 154.914 45.6157 154.914 45.0845C154.914 44.7246 154.974 44.3905 155.094 44.082C155.214 43.7736 155.377 43.4994 155.582 43.2595C155.788 43.0367 156.028 42.8568 156.302 42.7197C156.593 42.5827 156.893 42.5141 157.202 42.5141C157.784 42.5141 158.307 42.694 158.77 43.0539C158.307 43.1567 157.93 43.4052 157.639 43.7993C157.347 44.2105 157.202 44.6732 157.202 45.1873C157.202 45.9412 157.57 46.5239 158.307 46.9351C159.061 47.3464 160.123 47.552 161.494 47.552C164.424 47.552 165.889 46.6524 165.889 44.8531C165.889 44.1677 165.658 43.5937 165.195 43.131C164.733 42.6855 164.184 42.4199 163.55 42.3342C163.139 42.2828 162.711 42.2228 162.265 42.1543C161.837 42.1029 161.408 42.0514 160.98 42C160.569 41.9486 160.183 41.9058 159.823 41.8715C159.464 41.8372 159.172 41.803 158.949 41.7687C157.99 41.6659 157.262 41.4089 156.765 40.9976C156.268 40.5863 156.019 40.0209 156.019 39.3012C156.019 38.7014 156.268 38.1702 156.765 37.7076C157.262 37.2449 157.887 36.9536 158.641 36.8336V36.7308C158.264 36.5766 157.913 36.3624 157.587 36.0882C157.262 35.7969 156.979 35.4713 156.739 35.1115C156.516 34.7516 156.336 34.3661 156.199 33.9548C156.062 33.5264 155.994 33.0895 155.994 32.644C155.994 31.9928 156.114 31.3931 156.353 30.8447C156.61 30.2964 156.962 29.8251 157.407 29.431C157.87 29.0198 158.41 28.7028 159.027 28.48C159.643 28.2401 160.32 28.1201 161.057 28.1201C161.811 28.1201 162.522 28.2401 163.191 28.48C163.859 28.7028 164.433 29.0369 164.913 29.4824C165.495 29.0026 166.009 28.6599 166.455 28.4543C166.9 28.2315 167.32 28.1201 167.714 28.1201C168.331 28.1201 168.82 28.2658 169.179 28.5571C169.556 28.8313 169.745 29.2083 169.745 29.6881C169.745 29.9794 169.642 30.2107 169.436 30.3821C169.248 30.5534 169.008 30.6391 168.717 30.6391C168.477 30.6391 168.28 30.5962 168.126 30.5106C167.971 30.4249 167.826 30.3392 167.689 30.2535C167.569 30.1507 167.44 30.0565 167.303 29.9708C167.166 29.8851 166.995 29.8423 166.789 29.8423C166.378 29.8423 165.958 29.9879 165.53 30.2792C165.941 30.9133 166.146 31.7101 166.146 32.6697C166.146 34.1262 165.692 35.2743 164.784 36.1139C163.876 36.9364 162.514 37.4162 160.697 37.5533C159.652 37.639 158.924 37.7504 158.513 37.8875C158.101 38.0246 157.896 38.273 157.896 38.6329C157.896 38.907 158.05 39.1127 158.358 39.2498C158.667 39.3697 159.121 39.4468 159.721 39.4811Z" fill="white"/>
<path d="M45.3321 39.8666C44.7153 40.6206 43.9185 41.2118 42.9417 41.6402C41.965 42.0514 40.9111 42.2571 39.7802 42.2571C38.872 42.2571 38.0324 42.0943 37.2612 41.7687C36.5073 41.426 35.8561 40.9548 35.3078 40.355C34.7594 39.7381 34.331 39.0013 34.0226 38.1445C33.7313 37.2877 33.5856 36.3367 33.5856 35.2914C33.5856 34.1947 33.757 33.2094 34.0997 32.3355C34.4424 31.4445 34.9222 30.6905 35.5391 30.0736C36.1731 29.4396 36.9271 28.9598 37.801 28.6342C38.6921 28.2915 39.6688 28.1201 40.7312 28.1201C41.3995 28.1201 42.0078 28.1801 42.5562 28.3001C43.1045 28.4029 43.5757 28.5571 43.9699 28.7627C44.3811 28.9512 44.6981 29.1911 44.9209 29.4824C45.1437 29.7566 45.255 30.0565 45.255 30.3821C45.255 30.7248 45.1437 30.9904 44.9209 31.1789C44.6981 31.3674 44.3897 31.4616 43.9956 31.4616C43.6871 31.4616 43.4301 31.4016 43.2245 31.2817C43.0188 31.1446 42.7532 30.8533 42.4276 30.4078C42.0849 30.0136 41.7508 29.7395 41.4252 29.5852C41.1168 29.4139 40.7141 29.3282 40.2171 29.3282C39.0005 29.3282 38.0752 29.7994 37.4412 30.7419C36.8243 31.6844 36.5158 33.0724 36.5158 34.9059C36.5158 36.8765 36.8586 38.3758 37.544 39.404C38.2465 40.415 39.2661 40.9205 40.6027 40.9205C41.3224 40.9205 41.9993 40.7834 42.6333 40.5092C43.2673 40.2179 43.9099 39.7553 44.561 39.1212L45.3321 39.8666ZM54.4603 28.1201C55.437 28.1201 56.3624 28.3001 57.2363 28.6599C58.1102 29.0026 58.8727 29.4824 59.5239 30.0993C60.1922 30.7162 60.7148 31.453 61.0918 32.3098C61.4859 33.1495 61.683 34.0748 61.683 35.0858C61.683 36.1311 61.4859 37.0907 61.0918 37.9646C60.7148 38.8385 60.1922 39.5925 59.5239 40.2265C58.8727 40.8605 58.1102 41.3575 57.2363 41.7173C56.3624 42.0771 55.437 42.2571 54.4603 42.2571C53.5007 42.2571 52.5839 42.0857 51.71 41.743C50.8532 41.3832 50.0993 40.8862 49.4481 40.2522C48.797 39.6182 48.2829 38.8642 47.9059 37.9903C47.5289 37.0992 47.3404 36.1311 47.3404 35.0858C47.3404 34.0748 47.5289 33.1409 47.9059 32.2841C48.2829 31.4273 48.797 30.6905 49.4481 30.0736C50.0993 29.4567 50.8532 28.9769 51.71 28.6342C52.5839 28.2915 53.5007 28.1201 54.4603 28.1201ZM54.4603 29.3539C53.8263 29.3539 53.2437 29.491 52.7125 29.7652C52.1984 30.0393 51.7529 30.4335 51.3759 30.9475C51.016 31.4445 50.7333 32.0528 50.5277 32.7725C50.3392 33.475 50.2449 34.2547 50.2449 35.1115C50.2449 36.0026 50.3392 36.8079 50.5277 37.5276C50.7333 38.2473 51.016 38.8642 51.3759 39.3783C51.7529 39.8752 52.1984 40.2608 52.7125 40.5349C53.2265 40.8091 53.8091 40.9462 54.4603 40.9462C55.1115 40.9462 55.7026 40.8091 56.2338 40.5349C56.7651 40.2608 57.2191 39.8666 57.5961 39.3526C57.9731 38.8385 58.2644 38.2216 58.4701 37.5019C58.6757 36.7822 58.7785 35.9854 58.7785 35.1115C58.7785 34.2547 58.6757 33.475 58.4701 32.7725C58.2644 32.0699 57.9731 31.4702 57.5961 30.9732C57.2191 30.4592 56.7651 30.065 56.2338 29.7909C55.7026 29.4996 55.1115 29.3539 54.4603 29.3539ZM68.4763 37.9646C68.4763 38.6672 68.4935 39.2241 68.5277 39.6353C68.562 40.0294 68.6477 40.3379 68.7848 40.5606C68.939 40.7663 69.1532 40.9034 69.4274 40.9719C69.7187 41.0404 70.1128 41.0918 70.6097 41.1261V42H63.8754V41.1261C64.3552 41.0918 64.7322 41.0404 65.0064 40.9719C65.2977 40.9034 65.5204 40.7663 65.6747 40.5606C65.8289 40.355 65.9231 40.0637 65.9574 39.6867C66.0088 39.3097 66.0345 38.7957 66.0345 38.1445V34.7259C66.0345 32.6868 65.9831 31.4445 65.8803 30.9989C65.8289 30.7762 65.7603 30.5962 65.6747 30.4592C65.6061 30.3049 65.4947 30.1936 65.3405 30.125C65.1863 30.0393 64.9892 29.9879 64.7493 29.9708C64.5094 29.9365 64.201 29.9194 63.824 29.9194V29.0969L67.9366 28.1201L68.245 30.6648H68.3478C68.999 29.8594 69.7615 29.234 70.6354 28.7884C71.5094 28.3429 72.4604 28.1201 73.4885 28.1201C74.2768 28.1201 74.9965 28.2487 75.6476 28.5057C76.2988 28.7627 76.7957 29.114 77.1384 29.5595C77.4297 29.9537 77.6354 30.4677 77.7553 31.1018C77.8753 31.7186 77.9352 32.5754 77.9352 33.6721V37.9646C77.9352 38.6672 77.9524 39.2241 77.9866 39.6353C78.038 40.0294 78.1323 40.3379 78.2694 40.5606C78.4065 40.7663 78.6121 40.9034 78.8863 40.9719C79.1776 41.0404 79.5546 41.0918 80.0172 41.1261V42H73.36V41.1261C73.8398 41.109 74.2168 41.0661 74.491 40.9976C74.7823 40.9119 74.9965 40.7663 75.1336 40.5606C75.2878 40.355 75.382 40.0637 75.4163 39.6867C75.4677 39.2926 75.4934 38.7785 75.4934 38.1445V34.7516C75.4934 33.7749 75.442 32.9524 75.3392 32.2841C75.2364 31.6158 75.065 31.076 74.8251 30.6648C74.6023 30.2535 74.3025 29.9622 73.9255 29.7909C73.5485 29.6024 73.0944 29.5081 72.5632 29.5081C71.7921 29.5081 71.081 29.7138 70.4298 30.125C69.7958 30.5191 69.2989 31.0675 68.939 31.77C68.8533 31.9414 68.7762 32.1042 68.7077 32.2584C68.6563 32.4126 68.6134 32.5926 68.5792 32.7982C68.5449 33.0038 68.5192 33.2437 68.502 33.5179C68.4849 33.7749 68.4763 34.1091 68.4763 34.5203V37.9646ZM82.8562 42H82.2908V37.579H82.9334C83.6017 39.9952 84.8183 41.2032 86.5833 41.2032C87.2687 41.2032 87.8085 41.0404 88.2026 40.7149C88.6138 40.3721 88.8195 39.8581 88.8195 39.1727C88.8195 38.9156 88.7766 38.7014 88.6909 38.5301C88.6224 38.3416 88.4767 38.1531 88.254 37.9646C88.0484 37.759 87.7485 37.5276 87.3544 37.2706C86.9774 37.0136 86.4719 36.688 85.8379 36.2939C85.2552 35.934 84.7497 35.5999 84.3213 35.2914C83.893 34.983 83.5331 34.6745 83.2418 34.3661C82.9505 34.0405 82.7277 33.6978 82.5735 33.338C82.4364 32.9781 82.3679 32.5583 82.3679 32.0785C82.3679 31.4959 82.4621 30.9647 82.6506 30.4849C82.8562 29.9879 83.1304 29.5681 83.4731 29.2254C83.8158 28.8827 84.2185 28.6171 84.6812 28.4286C85.1439 28.223 85.6494 28.1201 86.1977 28.1201C86.6604 28.1201 87.1402 28.1973 87.6371 28.3515C88.134 28.4886 88.571 28.6771 88.948 28.917L89.4621 28.3772H89.9504V32.0785H89.2821C88.9051 31.0332 88.4939 30.2878 88.0484 29.8423C87.6028 29.3968 87.0545 29.174 86.4033 29.174C85.8207 29.174 85.3495 29.3282 84.9896 29.6367C84.6469 29.9451 84.4756 30.3735 84.4756 30.9218C84.4756 31.2131 84.5184 31.4702 84.6041 31.6929C84.7069 31.8986 84.8611 32.1042 85.0668 32.3098C85.2724 32.5154 85.5294 32.7296 85.8379 32.9524C86.1634 33.158 86.549 33.3979 86.9945 33.6721C87.7313 34.1348 88.3568 34.546 88.8709 34.9059C89.4021 35.2657 89.8305 35.6256 90.156 35.9854C90.4816 36.3281 90.7215 36.688 90.8757 37.065C91.03 37.4419 91.1071 37.8703 91.1071 38.3501C91.1071 39.5668 90.713 40.5264 89.9247 41.2289C89.1365 41.9144 88.0998 42.2571 86.8146 42.2571C85.478 42.2571 84.3299 41.8715 83.3703 41.1004L82.8562 42ZM104.218 32.4897C104.218 31.7872 104.201 31.2388 104.167 30.8447C104.133 30.4335 104.039 30.125 103.884 29.9194C103.747 29.6966 103.533 29.551 103.242 29.4824C102.968 29.3968 102.582 29.3282 102.085 29.2768V28.3772H106.737V36.2682C106.737 37.2449 106.746 38.0417 106.763 38.6586C106.797 39.2755 106.84 39.7381 106.892 40.0466C106.926 40.2693 106.977 40.4493 107.046 40.5863C107.132 40.7063 107.251 40.8091 107.406 40.8948C107.56 40.9633 107.757 41.0147 107.997 41.049C108.254 41.0661 108.579 41.0747 108.974 41.0747V41.9743L104.733 42.2828L104.45 39.1984H104.347C103.696 40.2608 102.942 41.0404 102.085 41.5374C101.245 42.0172 100.363 42.2571 99.4376 42.2571C98.7179 42.2571 98.0154 42.12 97.3299 41.8458C96.6616 41.5716 96.1561 41.2032 95.8134 40.7406C95.5221 40.3636 95.3079 39.8409 95.1708 39.1727C95.0509 38.5044 94.9909 37.639 94.9909 36.5766V32.4897C94.9909 31.7872 94.9738 31.2388 94.9395 30.8447C94.9052 30.4335 94.811 30.125 94.6568 29.9194C94.5197 29.6966 94.3055 29.551 94.0142 29.4824C93.74 29.3968 93.3545 29.3282 92.8575 29.2768V28.3772H97.5099V35.3942C97.5099 37.262 97.7241 38.6157 98.1524 39.4554C98.598 40.295 99.3005 40.7149 100.26 40.7149C101.768 40.7149 102.942 39.7296 103.782 37.759C103.867 37.5533 103.936 37.3648 103.987 37.1935C104.039 37.0221 104.081 36.8336 104.116 36.628C104.15 36.4224 104.176 36.191 104.193 35.934C104.21 35.677 104.218 35.3685 104.218 35.0087V32.4897ZM114.909 37.9903C114.909 38.6414 114.935 39.1641 114.986 39.5582C115.038 39.9523 115.14 40.2608 115.295 40.4835C115.466 40.7063 115.697 40.8605 115.989 40.9462C116.297 41.0319 116.7 41.0833 117.197 41.1004V42H110.103V41.1004C110.617 41.0833 111.028 41.0319 111.336 40.9462C111.645 40.8434 111.885 40.6892 112.056 40.4835C112.245 40.2779 112.364 39.9952 112.416 39.6353C112.484 39.2583 112.519 38.77 112.519 38.1702V27.092C112.519 26.1667 112.502 25.3956 112.467 24.7787C112.45 24.1447 112.416 23.7163 112.364 23.4935C112.279 23.0994 112.073 22.8338 111.748 22.6967C111.439 22.5596 110.874 22.4911 110.051 22.4911V21.6172L114.909 20.6661V37.9903ZM118.924 29.9965V29.0455C119.832 28.5143 120.543 27.9831 121.057 27.4519C121.571 26.9206 121.965 26.2866 122.24 25.5498H122.985V28.7884H126.429V29.9965H122.985V37.8104C122.985 38.4101 123.011 38.9156 123.062 39.3269C123.131 39.7381 123.234 40.0723 123.371 40.3293C123.508 40.5692 123.688 40.7406 123.91 40.8434C124.133 40.9462 124.416 40.9976 124.759 40.9976C125.187 40.9976 125.547 40.9119 125.838 40.7406C126.147 40.5521 126.446 40.2436 126.738 39.8152L127.38 40.3036C127.14 40.9376 126.721 41.426 126.121 41.7687C125.538 42.0943 124.81 42.2571 123.936 42.2571C122.805 42.2571 121.94 41.9915 121.34 41.4603C120.757 40.9119 120.466 40.1323 120.466 39.1212V29.9965H118.924ZM133.47 37.9132C133.47 38.5815 133.496 39.1212 133.547 39.5325C133.616 39.9266 133.736 40.2436 133.907 40.4835C134.079 40.7063 134.318 40.8605 134.627 40.9462C134.935 41.0319 135.347 41.0833 135.861 41.1004V42H128.484V41.1004C128.998 41.0833 129.418 41.0319 129.743 40.9462C130.069 40.8434 130.317 40.6892 130.489 40.4835C130.677 40.2608 130.797 39.9609 130.849 39.5839C130.917 39.1898 130.951 38.6929 130.951 38.0931V34.8031C130.951 33.8092 130.934 32.9952 130.9 32.3612C130.883 31.7101 130.84 31.2645 130.771 31.0246C130.686 30.6305 130.489 30.3649 130.18 30.2278C129.872 30.0736 129.289 29.9965 128.432 29.9965V29.0969L133.47 28.1201V37.9132ZM130.514 22.9023C130.514 22.4568 130.669 22.0798 130.977 21.7714C131.285 21.4629 131.662 21.3087 132.108 21.3087C132.554 21.3087 132.93 21.4629 133.239 21.7714C133.547 22.0798 133.702 22.4568 133.702 22.9023C133.702 23.3479 133.547 23.7248 133.239 24.0333C132.93 24.3417 132.554 24.496 132.108 24.496C131.662 24.496 131.285 24.3417 130.977 24.0333C130.669 23.7248 130.514 23.3479 130.514 22.9023ZM141.922 37.9646C141.922 38.6672 141.939 39.2241 141.974 39.6353C142.008 40.0294 142.093 40.3379 142.231 40.5606C142.385 40.7663 142.599 40.9034 142.873 40.9719C143.164 41.0404 143.559 41.0918 144.055 41.1261V42H137.321V41.1261C137.801 41.0918 138.178 41.0404 138.452 40.9719C138.743 40.9034 138.966 40.7663 139.12 40.5606C139.275 40.355 139.369 40.0637 139.403 39.6867C139.455 39.3097 139.48 38.7957 139.48 38.1445V34.7259C139.48 32.6868 139.429 31.4445 139.326 30.9989C139.275 30.7762 139.206 30.5962 139.12 30.4592C139.052 30.3049 138.94 30.1936 138.786 30.125C138.632 30.0393 138.435 29.9879 138.195 29.9708C137.955 29.9365 137.647 29.9194 137.27 29.9194V29.0969L141.382 28.1201L141.691 30.6648H141.794C142.445 29.8594 143.207 29.234 144.081 28.7884C144.955 28.3429 145.906 28.1201 146.934 28.1201C147.723 28.1201 148.442 28.2487 149.093 28.5057C149.745 28.7627 150.241 29.114 150.584 29.5595C150.875 29.9537 151.081 30.4677 151.201 31.1018C151.321 31.7186 151.381 32.5754 151.381 33.6721V37.9646C151.381 38.6672 151.398 39.2241 151.432 39.6353C151.484 40.0294 151.578 40.3379 151.715 40.5606C151.852 40.7663 152.058 40.9034 152.332 40.9719C152.623 41.0404 153 41.0918 153.463 41.1261V42H146.806V41.1261C147.286 41.109 147.663 41.0661 147.937 40.9976C148.228 40.9119 148.442 40.7663 148.579 40.5606C148.734 40.355 148.828 40.0637 148.862 39.6867C148.913 39.2926 148.939 38.7785 148.939 38.1445V34.7516C148.939 33.7749 148.888 32.9524 148.785 32.2841C148.682 31.6158 148.511 31.076 148.271 30.6648C148.048 30.2535 147.748 29.9622 147.371 29.7909C146.994 29.6024 146.54 29.5081 146.009 29.5081C145.238 29.5081 144.527 29.7138 143.876 30.125C143.242 30.5191 142.745 31.0675 142.385 31.77C142.299 31.9414 142.222 32.1042 142.153 32.2584C142.102 32.4126 142.059 32.5926 142.025 32.7982C141.991 33.0038 141.965 33.2437 141.948 33.5179C141.931 33.7749 141.922 34.1091 141.922 34.5203V37.9646ZM161.134 36.4738C161.854 36.4738 162.411 36.1482 162.805 35.4971C163.216 34.8459 163.422 33.9291 163.422 32.7468C163.422 31.5816 163.216 30.6819 162.805 30.0479C162.411 29.3968 161.845 29.0712 161.109 29.0712C160.372 29.0712 159.781 29.3968 159.335 30.0479C158.907 30.6991 158.692 31.5901 158.692 32.7211C158.692 33.852 158.915 34.7602 159.361 35.4456C159.806 36.1311 160.397 36.4738 161.134 36.4738ZM159.721 39.4811C160.132 39.5154 160.509 39.5496 160.852 39.5839C161.194 39.6182 161.528 39.6525 161.854 39.6867C162.197 39.721 162.531 39.7638 162.856 39.8152C163.199 39.8666 163.568 39.9181 163.962 39.9695C165.195 40.158 166.181 40.6378 166.918 41.4089C167.672 42.1628 168.049 43.1139 168.049 44.2619C168.049 45.7013 167.474 46.798 166.326 47.552C165.195 48.306 163.55 48.6829 161.391 48.6829C160.432 48.6829 159.549 48.5973 158.744 48.4259C157.956 48.2546 157.279 48.0061 156.713 47.6805C156.148 47.3721 155.702 46.9951 155.377 46.5496C155.068 46.104 154.914 45.6157 154.914 45.0845C154.914 44.7246 154.974 44.3905 155.094 44.082C155.214 43.7736 155.377 43.4994 155.582 43.2595C155.788 43.0367 156.028 42.8568 156.302 42.7197C156.593 42.5827 156.893 42.5141 157.202 42.5141C157.784 42.5141 158.307 42.694 158.77 43.0539C158.307 43.1567 157.93 43.4052 157.639 43.7993C157.347 44.2105 157.202 44.6732 157.202 45.1873C157.202 45.9412 157.57 46.5239 158.307 46.9351C159.061 47.3464 160.123 47.552 161.494 47.552C164.424 47.552 165.889 46.6524 165.889 44.8531C165.889 44.1677 165.658 43.5937 165.195 43.131C164.733 42.6855 164.184 42.4199 163.55 42.3342C163.139 42.2828 162.711 42.2228 162.265 42.1543C161.837 42.1029 161.408 42.0514 160.98 42C160.569 41.9486 160.183 41.9058 159.823 41.8715C159.464 41.8372 159.172 41.803 158.949 41.7687C157.99 41.6659 157.262 41.4089 156.765 40.9976C156.268 40.5863 156.019 40.0209 156.019 39.3012C156.019 38.7014 156.268 38.1702 156.765 37.7076C157.262 37.2449 157.887 36.9536 158.641 36.8336V36.7308C158.264 36.5766 157.913 36.3624 157.587 36.0882C157.262 35.7969 156.979 35.4713 156.739 35.1115C156.516 34.7516 156.336 34.3661 156.199 33.9548C156.062 33.5264 155.994 33.0895 155.994 32.644C155.994 31.9928 156.114 31.3931 156.353 30.8447C156.61 30.2964 156.962 29.8251 157.407 29.431C157.87 29.0198 158.41 28.7028 159.027 28.48C159.643 28.2401 160.32 28.1201 161.057 28.1201C161.811 28.1201 162.522 28.2401 163.191 28.48C163.859 28.7028 164.433 29.0369 164.913 29.4824C165.495 29.0026 166.009 28.6599 166.455 28.4543C166.9 28.2315 167.32 28.1201 167.714 28.1201C168.331 28.1201 168.82 28.2658 169.179 28.5571C169.556 28.8313 169.745 29.2083 169.745 29.6881C169.745 29.9794 169.642 30.2107 169.436 30.3821C169.248 30.5534 169.008 30.6391 168.717 30.6391C168.477 30.6391 168.28 30.5962 168.126 30.5106C167.971 30.4249 167.826 30.3392 167.689 30.2535C167.569 30.1507 167.44 30.0565 167.303 29.9708C167.166 29.8851 166.995 29.8423 166.789 29.8423C166.378 29.8423 165.958 29.9879 165.53 30.2792C165.941 30.9133 166.146 31.7101 166.146 32.6697C166.146 34.1262 165.692 35.2743 164.784 36.1139C163.876 36.9364 162.514 37.4162 160.697 37.5533C159.652 37.639 158.924 37.7504 158.513 37.8875C158.101 38.0246 157.896 38.273 157.896 38.6329C157.896 38.907 158.05 39.1127 158.358 39.2498C158.667 39.3697 159.121 39.4468 159.721 39.4811Z" fill="black"/>
</svg>
