<svg width="299" height="50" viewBox="0 0 299 50" fill="none" xmlns="http://www.w3.org/2000/svg">
<path d="M40.6798 11.0536C41.6565 11.0536 42.5819 11.2335 43.4558 11.5933C44.3297 11.9361 45.0922 12.4158 45.7434 13.0327C46.4117 13.6496 46.9343 14.3865 47.3113 15.2432C47.7054 16.0829 47.9025 17.0082 47.9025 18.0192C47.9025 19.0645 47.7054 20.0241 47.3113 20.898C46.9343 21.7719 46.4117 22.5259 45.7434 23.1599C45.0922 23.7939 44.3297 24.2909 43.4558 24.6507C42.5819 25.0106 41.6565 25.1905 40.6798 25.1905C39.7202 25.1905 38.8035 25.0191 37.9295 24.6764C37.0728 24.3166 36.3188 23.8196 35.6676 23.1856C35.0165 22.5516 34.5024 21.7976 34.1254 20.9237C33.7484 20.0327 33.5599 19.0645 33.5599 18.0192C33.5599 17.0082 33.7484 16.0743 34.1254 15.2175C34.5024 14.3607 35.0165 13.6239 35.6676 13.007C36.3188 12.3901 37.0728 11.9103 37.9295 11.5676C38.8035 11.2249 39.7202 11.0536 40.6798 11.0536ZM40.6798 12.2873C40.0458 12.2873 39.4632 12.4244 38.932 12.6986C38.4179 12.9728 37.9724 13.3669 37.5954 13.8809C37.2355 14.3779 36.9528 14.9862 36.7472 15.7059C36.5587 16.4085 36.4644 17.1881 36.4644 18.0449C36.4644 18.936 36.5587 19.7413 36.7472 20.461C36.9528 21.1807 37.2355 21.7976 37.5954 22.3117C37.9724 22.8086 38.4179 23.1942 38.932 23.4684C39.446 23.7425 40.0287 23.8796 40.6798 23.8796C41.331 23.8796 41.9221 23.7425 42.4534 23.4684C42.9846 23.1942 43.4387 22.8001 43.8156 22.286C44.1926 21.7719 44.4839 21.155 44.6896 20.4353C44.8952 19.7156 44.998 18.9188 44.998 18.0449C44.998 17.1881 44.8952 16.4085 44.6896 15.7059C44.4839 15.0033 44.1926 14.4036 43.8156 13.9067C43.4387 13.3926 42.9846 12.9985 42.4534 12.7243C41.9221 12.433 41.331 12.2873 40.6798 12.2873ZM61.5844 22.7744H61.4816C60.8647 23.6483 60.205 24.2737 59.5024 24.6507C58.817 25.0106 58.003 25.1905 57.0606 25.1905C56.0838 25.1905 55.1842 25.0191 54.3617 24.6764C53.5563 24.3166 52.8538 23.8282 52.254 23.2113C51.6714 22.5773 51.2087 21.8233 50.866 20.9494C50.5405 20.0755 50.3777 19.1245 50.3777 18.0963C50.3777 17.0853 50.5405 16.1514 50.866 15.2946C51.2087 14.4207 51.6714 13.6753 52.254 13.0584C52.8538 12.4244 53.5649 11.9361 54.3874 11.5933C55.2099 11.2335 56.101 11.0536 57.0606 11.0536C57.8831 11.0536 58.6114 11.1906 59.2454 11.4648C59.8965 11.739 60.522 12.1759 61.1217 12.7757V10.1539C61.1217 9.17721 61.1046 8.36326 61.0703 7.71211C61.0532 7.06095 61.0189 6.61542 60.9675 6.37552C60.8818 5.99854 60.6419 5.73294 60.2478 5.57872C59.8537 5.4245 59.2111 5.34739 58.32 5.34739V4.57628L63.5893 3.59955V18.4305C63.5893 19.6128 63.5978 20.5896 63.615 21.3607C63.6321 22.1146 63.6835 22.6544 63.7692 22.98C63.8206 23.1856 63.8806 23.357 63.9491 23.4941C64.0348 23.6311 64.1462 23.7425 64.2833 23.8282C64.4375 23.8967 64.6345 23.9482 64.8744 23.9824C65.1315 24.0167 65.4571 24.0338 65.8512 24.0338V24.9078L61.5844 25.1905V22.7744ZM61.0703 17.0939C61.0703 16.2028 61.0189 15.526 60.9161 15.0633C60.8304 14.6006 60.6505 14.198 60.3763 13.8552C59.9822 13.3412 59.4767 12.9556 58.8598 12.6986C58.2601 12.4244 57.6603 12.2873 57.0606 12.2873C55.8268 12.2873 54.8843 12.8014 54.2332 13.8295C53.5992 14.8405 53.2822 16.22 53.2822 17.9678C53.2822 18.876 53.3593 19.6985 53.5135 20.4353C53.6848 21.1722 53.9247 21.8062 54.2332 22.3374C54.5588 22.8515 54.9529 23.2542 55.4155 23.5455C55.8953 23.8196 56.4437 23.9567 57.0606 23.9567C57.369 23.9567 57.6775 23.9225 57.9859 23.8539C58.3115 23.7854 58.6199 23.6826 58.9112 23.5455C59.2197 23.3912 59.5024 23.2199 59.7594 23.0314C60.0165 22.8258 60.2307 22.5944 60.402 22.3374C60.6419 21.9604 60.8133 21.5063 60.9161 20.9751C61.0189 20.4439 61.0703 19.7156 61.0703 18.7903V17.0939ZM75.4593 17.3252C74.4825 17.7022 73.6514 18.0706 72.966 18.4305C72.2977 18.7903 71.758 19.1502 71.3467 19.51C70.9354 19.8699 70.6356 20.2297 70.4471 20.5896C70.2757 20.9494 70.19 21.3178 70.19 21.6948C70.19 22.2603 70.3785 22.723 70.7555 23.0828C71.1325 23.4427 71.6294 23.6226 72.2463 23.6226C72.6919 23.6226 73.1031 23.5112 73.4801 23.2884C73.8742 23.0657 74.2169 22.7658 74.5082 22.3888C74.7995 21.9947 75.0309 21.5406 75.2022 21.0265C75.3736 20.4953 75.4593 19.9384 75.4593 19.3558V17.3252ZM75.4593 16.22V15.1661C75.4593 13.0756 74.5682 12.0303 72.7861 12.0303C72.4948 12.0303 72.2463 12.056 72.0407 12.1074C71.8351 12.1588 71.6637 12.2445 71.5266 12.3644C71.3895 12.4844 71.261 12.6557 71.1411 12.8785C71.0383 13.1013 70.9354 13.3754 70.8326 13.701C70.6441 14.198 70.4556 14.5321 70.2672 14.7035C70.0958 14.8577 69.8388 14.9348 69.496 14.9348C68.6393 14.9348 68.2109 14.5064 68.2109 13.6496C68.2109 12.8271 68.6478 12.1931 69.5218 11.7476C70.3957 11.2849 71.638 11.0536 73.2488 11.0536C74.9623 11.0536 76.179 11.362 76.8987 11.9789C77.6184 12.5786 77.9782 13.6068 77.9782 15.0633V20.8209C77.9782 22.7744 78.3638 23.7511 79.1349 23.7511C79.3748 23.7511 79.6061 23.7254 79.8289 23.674C80.0516 23.6054 80.2401 23.4427 80.3943 23.1856L80.7542 23.8025C80.5486 24.1966 80.1716 24.5308 79.6232 24.8049C79.0749 25.062 78.5008 25.1905 77.9011 25.1905C77.1471 25.1905 76.5816 24.9506 76.2047 24.4708C75.8448 23.991 75.6649 23.3141 75.6649 22.4402H75.5364C75.0908 23.2799 74.474 23.9482 73.6857 24.4451C72.8975 24.9249 72.0236 25.1648 71.064 25.1648C69.9844 25.1648 69.1362 24.8906 68.5193 24.3423C67.9024 23.7939 67.594 23.0571 67.594 22.1318C67.594 21.7205 67.6625 21.3264 67.7996 20.9494C67.9538 20.5724 68.1937 20.2126 68.5193 19.8699C68.8449 19.5272 69.2733 19.193 69.8045 18.8674C70.3357 18.5247 70.9869 18.182 71.758 17.8393L75.4593 16.22Z" fill="black"/>
<path d="M6.8604 8.79107C6.34633 7.90002 5.86653 7.18032 5.421 6.63198C4.97548 6.04936 4.51281 5.5867 4.03301 5.24399C3.58749 4.90127 3.10769 4.67851 2.59362 4.5757C2.07955 4.43861 1.46266 4.37007 0.742965 4.37007V2.4166H16.9362V4.37007C15.2226 4.37007 14.006 4.50715 13.2863 4.78132C12.6008 5.02122 12.2581 5.46675 12.2581 6.11791C12.2581 6.8376 12.6523 7.86574 13.4405 9.20233L21.4086 22.8252H21.6142L27.4232 13.0579C28.5199 11.2072 29.291 9.75067 29.7365 8.68826C30.2163 7.62585 30.4562 6.76906 30.4562 6.11791C30.4562 5.46675 30.1992 5.02122 29.6851 4.78132C29.2053 4.50715 28.3485 4.37007 27.1148 4.37007V2.4166H38.887V4.37007C38.1673 4.37007 37.5161 4.47288 36.9335 4.67851C36.3852 4.88414 35.8025 5.29539 35.1857 5.91228C34.5688 6.52916 33.8834 7.38595 33.1294 8.48263C32.4097 9.57931 31.5186 11.0187 30.4562 12.8008L22.5395 26.1666V32.2841C22.5395 33.9634 22.5909 35.3171 22.6938 36.3452C22.8308 37.3391 23.0879 38.1102 23.4649 38.6585C23.8761 39.2069 24.4416 39.5839 25.1613 39.7895C25.9153 39.9609 26.9091 40.0465 28.1429 40.0465V42H11.487V40.0465C12.7208 40.0465 13.6975 39.9609 14.4172 39.7895C15.1712 39.5839 15.7367 39.224 16.1137 38.71C16.5249 38.1616 16.7991 37.4076 16.9362 36.448C17.0733 35.4884 17.1418 34.2204 17.1418 32.6439V26.3723L6.8604 8.79107Z" fill="#00B67A"/>
<path d="M45.3321 40.3432C44.7153 41.0972 43.9185 41.6884 42.9417 42.1168C41.965 42.528 40.9111 42.7336 39.7802 42.7336C38.872 42.7336 38.0324 42.5708 37.2612 42.2453C36.5073 41.9026 35.8561 41.4313 35.3078 40.8316C34.7594 40.2147 34.331 39.4779 34.0226 38.6211C33.7313 37.7643 33.5856 36.8133 33.5856 35.768C33.5856 34.6713 33.757 33.686 34.0997 32.8121C34.4424 31.921 34.9222 31.1671 35.5391 30.5502C36.1731 29.9162 36.9271 29.4364 37.801 29.1108C38.6921 28.7681 39.6688 28.5967 40.7312 28.5967C41.3995 28.5967 42.0078 28.6567 42.5562 28.7766C43.1045 28.8794 43.5757 29.0337 43.9699 29.2393C44.3811 29.4278 44.6981 29.6677 44.9209 29.959C45.1437 30.2332 45.255 30.533 45.255 30.8586C45.255 31.2013 45.1437 31.4669 44.9209 31.6554C44.6981 31.8439 44.3897 31.9382 43.9956 31.9382C43.6871 31.9382 43.4301 31.8782 43.2245 31.7582C43.0188 31.6212 42.7532 31.3298 42.4276 30.8843C42.0849 30.4902 41.7508 30.216 41.4252 30.0618C41.1168 29.8905 40.7141 29.8048 40.2171 29.8048C39.0005 29.8048 38.0752 30.276 37.4412 31.2185C36.8243 32.1609 36.5158 33.5489 36.5158 35.3824C36.5158 37.353 36.8586 38.8524 37.544 39.8805C38.2465 40.8916 39.2661 41.3971 40.6027 41.3971C41.3224 41.3971 41.9993 41.26 42.6333 40.9858C43.2673 40.6945 43.9099 40.2318 44.561 39.5978L45.3321 40.3432ZM54.4603 28.5967C55.437 28.5967 56.3624 28.7766 57.2363 29.1365C58.1102 29.4792 58.8727 29.959 59.5239 30.5759C60.1922 31.1928 60.7148 31.9296 61.0918 32.7864C61.4859 33.626 61.683 34.5514 61.683 35.5624C61.683 36.6076 61.4859 37.5672 61.0918 38.4412C60.7148 39.3151 60.1922 40.069 59.5239 40.7031C58.8727 41.3371 58.1102 41.834 57.2363 42.1939C56.3624 42.5537 55.437 42.7336 54.4603 42.7336C53.5007 42.7336 52.5839 42.5623 51.71 42.2196C50.8532 41.8597 50.0993 41.3628 49.4481 40.7288C48.797 40.0947 48.2829 39.3408 47.9059 38.4669C47.5289 37.5758 47.3404 36.6076 47.3404 35.5624C47.3404 34.5514 47.5289 33.6175 47.9059 32.7607C48.2829 31.9039 48.797 31.1671 49.4481 30.5502C50.0993 29.9333 50.8532 29.4535 51.71 29.1108C52.5839 28.7681 53.5007 28.5967 54.4603 28.5967ZM54.4603 29.8305C53.8263 29.8305 53.2437 29.9676 52.7125 30.2417C52.1984 30.5159 51.7529 30.91 51.3759 31.4241C51.016 31.921 50.7333 32.5293 50.5277 33.249C50.3392 33.9516 50.2449 34.7313 50.2449 35.5881C50.2449 36.4791 50.3392 37.2845 50.5277 38.0042C50.7333 38.7239 51.016 39.3408 51.3759 39.8548C51.7529 40.3518 52.1984 40.7373 52.7125 41.0115C53.2265 41.2857 53.8091 41.4228 54.4603 41.4228C55.1115 41.4228 55.7026 41.2857 56.2338 41.0115C56.7651 40.7373 57.2191 40.3432 57.5961 39.8291C57.9731 39.3151 58.2644 38.6982 58.4701 37.9785C58.6757 37.2588 58.7785 36.462 58.7785 35.5881C58.7785 34.7313 58.6757 33.9516 58.4701 33.249C58.2644 32.5465 57.9731 31.9467 57.5961 31.4498C57.2191 30.9357 56.7651 30.5416 56.2338 30.2674C55.7026 29.9761 55.1115 29.8305 54.4603 29.8305ZM68.4763 38.4412C68.4763 39.1437 68.4935 39.7006 68.5277 40.1119C68.562 40.506 68.6477 40.8144 68.7848 41.0372C68.939 41.2428 69.1532 41.3799 69.4274 41.4485C69.7187 41.517 70.1128 41.5684 70.6097 41.6027V42.4766H63.8754V41.6027C64.3552 41.5684 64.7322 41.517 65.0064 41.4485C65.2977 41.3799 65.5204 41.2428 65.6747 41.0372C65.8289 40.8316 65.9231 40.5403 65.9574 40.1633C66.0088 39.7863 66.0345 39.2722 66.0345 38.6211V35.2025C66.0345 33.1634 65.9831 31.921 65.8803 31.4755C65.8289 31.2527 65.7603 31.0728 65.6747 30.9357C65.6061 30.7815 65.4947 30.6701 65.3405 30.6016C65.1863 30.5159 64.9892 30.4645 64.7493 30.4474C64.5094 30.4131 64.201 30.396 63.824 30.396V29.5734L67.9366 28.5967L68.245 31.1414H68.3478C68.999 30.336 69.7615 29.7105 70.6354 29.265C71.5094 28.8195 72.4604 28.5967 73.4885 28.5967C74.2768 28.5967 74.9965 28.7252 75.6476 28.9823C76.2988 29.2393 76.7957 29.5906 77.1384 30.0361C77.4297 30.4302 77.6354 30.9443 77.7553 31.5783C77.8753 32.1952 77.9352 33.052 77.9352 34.1487V38.4412C77.9352 39.1437 77.9524 39.7006 77.9866 40.1119C78.038 40.506 78.1323 40.8144 78.2694 41.0372C78.4065 41.2428 78.6121 41.3799 78.8863 41.4485C79.1776 41.517 79.5546 41.5684 80.0172 41.6027V42.4766H73.36V41.6027C73.8398 41.5855 74.2168 41.5427 74.491 41.4742C74.7823 41.3885 74.9965 41.2428 75.1336 41.0372C75.2878 40.8316 75.382 40.5403 75.4163 40.1633C75.4677 39.7692 75.4934 39.2551 75.4934 38.6211V35.2282C75.4934 34.2515 75.442 33.429 75.3392 32.7607C75.2364 32.0924 75.065 31.5526 74.8251 31.1414C74.6023 30.7301 74.3025 30.4388 73.9255 30.2674C73.5485 30.0789 73.0944 29.9847 72.5632 29.9847C71.7921 29.9847 71.081 30.1903 70.4298 30.6016C69.7958 30.9957 69.2989 31.544 68.939 32.2466C68.8533 32.418 68.7762 32.5808 68.7077 32.735C68.6563 32.8892 68.6134 33.0691 68.5792 33.2747C68.5449 33.4804 68.5192 33.7203 68.502 33.9944C68.4849 34.2515 68.4763 34.5856 68.4763 34.9969V38.4412ZM82.8562 42.4766H82.2908V38.0556H82.9334C83.6017 40.4717 84.8183 41.6798 86.5833 41.6798C87.2687 41.6798 87.8085 41.517 88.2026 41.1914C88.6138 40.8487 88.8195 40.3346 88.8195 39.6492C88.8195 39.3922 88.7766 39.178 88.6909 39.0066C88.6224 38.8181 88.4767 38.6296 88.254 38.4412C88.0484 38.2355 87.7485 38.0042 87.3544 37.7472C86.9774 37.4901 86.4719 37.1645 85.8379 36.7704C85.2552 36.4106 84.7497 36.0764 84.3213 35.768C83.893 35.4595 83.5331 35.1511 83.2418 34.8427C82.9505 34.5171 82.7277 34.1744 82.5735 33.8145C82.4364 33.4547 82.3679 33.0348 82.3679 32.555C82.3679 31.9724 82.4621 31.4412 82.6506 30.9614C82.8562 30.4645 83.1304 30.0447 83.4731 29.702C83.8158 29.3592 84.2185 29.0936 84.6812 28.9052C85.1439 28.6995 85.6494 28.5967 86.1977 28.5967C86.6604 28.5967 87.1402 28.6738 87.6371 28.828C88.134 28.9651 88.571 29.1536 88.948 29.3935L89.4621 28.8537H89.9504V32.555H89.2821C88.9051 31.5098 88.4939 30.7644 88.0484 30.3188C87.6028 29.8733 87.0545 29.6506 86.4033 29.6506C85.8207 29.6506 85.3495 29.8048 84.9896 30.1132C84.6469 30.4217 84.4756 30.85 84.4756 31.3984C84.4756 31.6897 84.5184 31.9467 84.6041 32.1695C84.7069 32.3751 84.8611 32.5808 85.0668 32.7864C85.2724 32.992 85.5294 33.2062 85.8379 33.429C86.1634 33.6346 86.549 33.8745 86.9945 34.1487C87.7313 34.6113 88.3568 35.0226 88.8709 35.3824C89.4021 35.7423 89.8305 36.1021 90.156 36.462C90.4816 36.8047 90.7215 37.1645 90.8757 37.5415C91.03 37.9185 91.1071 38.3469 91.1071 38.8267C91.1071 40.0433 90.713 41.0029 89.9247 41.7055C89.1365 42.3909 88.0998 42.7336 86.8146 42.7336C85.478 42.7336 84.3299 42.3481 83.3703 41.577L82.8562 42.4766ZM104.218 32.9663C104.218 32.2637 104.201 31.7154 104.167 31.3213C104.133 30.91 104.039 30.6016 103.884 30.396C103.747 30.1732 103.533 30.0275 103.242 29.959C102.968 29.8733 102.582 29.8048 102.085 29.7534V28.8537H106.737V36.7447C106.737 37.7215 106.746 38.5183 106.763 39.1351C106.797 39.752 106.84 40.2147 106.892 40.5231C106.926 40.7459 106.977 40.9258 107.046 41.0629C107.132 41.1829 107.251 41.2857 107.406 41.3713C107.56 41.4399 107.757 41.4913 107.997 41.5256C108.254 41.5427 108.579 41.5513 108.974 41.5513V42.4509L104.733 42.7593L104.45 39.6749H104.347C103.696 40.7373 102.942 41.517 102.085 42.0139C101.245 42.4937 100.363 42.7336 99.4376 42.7336C98.7179 42.7336 98.0154 42.5966 97.3299 42.3224C96.6616 42.0482 96.1561 41.6798 95.8134 41.2171C95.5221 40.8401 95.3079 40.3175 95.1708 39.6492C95.0509 38.9809 94.9909 38.1156 94.9909 37.0532V32.9663C94.9909 32.2637 94.9738 31.7154 94.9395 31.3213C94.9052 30.91 94.811 30.6016 94.6568 30.396C94.5197 30.1732 94.3055 30.0275 94.0142 29.959C93.74 29.8733 93.3545 29.8048 92.8575 29.7534V28.8537H97.5099V35.8708C97.5099 37.7386 97.7241 39.0923 98.1524 39.932C98.598 40.7716 99.3005 41.1914 100.26 41.1914C101.768 41.1914 102.942 40.2061 103.782 38.2355C103.867 38.0299 103.936 37.8414 103.987 37.67C104.039 37.4987 104.081 37.3102 104.116 37.1046C104.15 36.8989 104.176 36.6676 104.193 36.4106C104.21 36.1535 104.218 35.8451 104.218 35.4852V32.9663ZM114.909 38.4669C114.909 39.118 114.935 39.6406 114.986 40.0348C115.038 40.4289 115.14 40.7373 115.295 40.9601C115.466 41.1829 115.697 41.3371 115.989 41.4228C116.297 41.5084 116.7 41.5598 117.197 41.577V42.4766H110.103V41.577C110.617 41.5598 111.028 41.5084 111.336 41.4228C111.645 41.3199 111.885 41.1657 112.056 40.9601C112.245 40.7545 112.364 40.4717 112.416 40.1119C112.484 39.7349 112.519 39.2465 112.519 38.6468V27.5686C112.519 26.6432 112.502 25.8721 112.467 25.2553C112.45 24.6212 112.416 24.1928 112.364 23.9701C112.279 23.576 112.073 23.3104 111.748 23.1733C111.439 23.0362 110.874 22.9676 110.051 22.9676V22.0937L114.909 21.1427V38.4669ZM118.924 30.4731V29.522C119.832 28.9908 120.543 28.4596 121.057 27.9284C121.571 27.3972 121.965 26.7632 122.24 26.0264H122.985V29.265H126.429V30.4731H122.985V38.2869C122.985 38.8867 123.011 39.3922 123.062 39.8034C123.131 40.2147 123.234 40.5488 123.371 40.8059C123.508 41.0458 123.688 41.2171 123.91 41.3199C124.133 41.4228 124.416 41.4742 124.759 41.4742C125.187 41.4742 125.547 41.3885 125.838 41.2171C126.147 41.0286 126.446 40.7202 126.738 40.2918L127.38 40.7802C127.14 41.4142 126.721 41.9026 126.121 42.2453C125.538 42.5708 124.81 42.7336 123.936 42.7336C122.805 42.7336 121.94 42.468 121.34 41.9368C120.757 41.3885 120.466 40.6088 120.466 39.5978V30.4731H118.924ZM133.47 38.3897C133.47 39.058 133.496 39.5978 133.547 40.0091C133.616 40.4032 133.736 40.7202 133.907 40.9601C134.079 41.1829 134.318 41.3371 134.627 41.4228C134.935 41.5084 135.347 41.5598 135.861 41.577V42.4766H128.484V41.577C128.998 41.5598 129.418 41.5084 129.743 41.4228C130.069 41.3199 130.317 41.1657 130.489 40.9601C130.677 40.7373 130.797 40.4375 130.849 40.0605C130.917 39.6664 130.951 39.1694 130.951 38.5697V35.2796C130.951 34.2858 130.934 33.4718 130.9 32.8378C130.883 32.1866 130.84 31.7411 130.771 31.5012C130.686 31.1071 130.489 30.8415 130.18 30.7044C129.872 30.5502 129.289 30.4731 128.432 30.4731V29.5734L133.47 28.5967V38.3897ZM130.514 23.3789C130.514 22.9334 130.669 22.5564 130.977 22.2479C131.285 21.9395 131.662 21.7853 132.108 21.7853C132.554 21.7853 132.93 21.9395 133.239 22.2479C133.547 22.5564 133.702 22.9334 133.702 23.3789C133.702 23.8244 133.547 24.2014 133.239 24.5098C132.93 24.8183 132.554 24.9725 132.108 24.9725C131.662 24.9725 131.285 24.8183 130.977 24.5098C130.669 24.2014 130.514 23.8244 130.514 23.3789ZM141.922 38.4412C141.922 39.1437 141.939 39.7006 141.974 40.1119C142.008 40.506 142.093 40.8144 142.231 41.0372C142.385 41.2428 142.599 41.3799 142.873 41.4485C143.164 41.517 143.559 41.5684 144.055 41.6027V42.4766H137.321V41.6027C137.801 41.5684 138.178 41.517 138.452 41.4485C138.743 41.3799 138.966 41.2428 139.12 41.0372C139.275 40.8316 139.369 40.5403 139.403 40.1633C139.455 39.7863 139.48 39.2722 139.48 38.6211V35.2025C139.48 33.1634 139.429 31.921 139.326 31.4755C139.275 31.2527 139.206 31.0728 139.12 30.9357C139.052 30.7815 138.94 30.6701 138.786 30.6016C138.632 30.5159 138.435 30.4645 138.195 30.4474C137.955 30.4131 137.647 30.396 137.27 30.396V29.5734L141.382 28.5967L141.691 31.1414H141.794C142.445 30.336 143.207 29.7105 144.081 29.265C144.955 28.8195 145.906 28.5967 146.934 28.5967C147.723 28.5967 148.442 28.7252 149.093 28.9823C149.745 29.2393 150.241 29.5906 150.584 30.0361C150.875 30.4302 151.081 30.9443 151.201 31.5783C151.321 32.1952 151.381 33.052 151.381 34.1487V38.4412C151.381 39.1437 151.398 39.7006 151.432 40.1119C151.484 40.506 151.578 40.8144 151.715 41.0372C151.852 41.2428 152.058 41.3799 152.332 41.4485C152.623 41.517 153 41.5684 153.463 41.6027V42.4766H146.806V41.6027C147.286 41.5855 147.663 41.5427 147.937 41.4742C148.228 41.3885 148.442 41.2428 148.579 41.0372C148.734 40.8316 148.828 40.5403 148.862 40.1633C148.913 39.7692 148.939 39.2551 148.939 38.6211V35.2282C148.939 34.2515 148.888 33.429 148.785 32.7607C148.682 32.0924 148.511 31.5526 148.271 31.1414C148.048 30.7301 147.748 30.4388 147.371 30.2674C146.994 30.0789 146.54 29.9847 146.009 29.9847C145.238 29.9847 144.527 30.1903 143.876 30.6016C143.242 30.9957 142.745 31.544 142.385 32.2466C142.299 32.418 142.222 32.5808 142.153 32.735C142.102 32.8892 142.059 33.0691 142.025 33.2747C141.991 33.4804 141.965 33.7203 141.948 33.9944C141.931 34.2515 141.922 34.5856 141.922 34.9969V38.4412ZM161.134 36.9503C161.854 36.9503 162.411 36.6248 162.805 35.9736C163.216 35.3225 163.422 34.4057 163.422 33.2233C163.422 32.0581 163.216 31.1585 162.805 30.5245C162.411 29.8733 161.845 29.5477 161.109 29.5477C160.372 29.5477 159.781 29.8733 159.335 30.5245C158.907 31.1756 158.692 32.0667 158.692 33.1976C158.692 34.3286 158.915 35.2368 159.361 35.9222C159.806 36.6076 160.397 36.9503 161.134 36.9503ZM159.721 39.9577C160.132 39.9919 160.509 40.0262 160.852 40.0605C161.194 40.0947 161.528 40.129 161.854 40.1633C162.197 40.1976 162.531 40.2404 162.856 40.2918C163.199 40.3432 163.568 40.3946 163.962 40.446C165.195 40.6345 166.181 41.1143 166.918 41.8854C167.672 42.6394 168.049 43.5904 168.049 44.7385C168.049 46.1779 167.474 47.2746 166.326 48.0286C165.195 48.7825 163.55 49.1595 161.391 49.1595C160.432 49.1595 159.549 49.0738 158.744 48.9025C157.956 48.7311 157.279 48.4827 156.713 48.1571C156.148 47.8486 155.702 47.4716 155.377 47.0261C155.068 46.5806 154.914 46.0922 154.914 45.561C154.914 45.2012 154.974 44.867 155.094 44.5586C155.214 44.2501 155.377 43.976 155.582 43.7361C155.788 43.5133 156.028 43.3334 156.302 43.1963C156.593 43.0592 156.893 42.9907 157.202 42.9907C157.784 42.9907 158.307 43.1706 158.77 43.5304C158.307 43.6333 157.93 43.8817 157.639 44.2758C157.347 44.6871 157.202 45.1498 157.202 45.6638C157.202 46.4178 157.57 47.0004 158.307 47.4117C159.061 47.8229 160.123 48.0286 161.494 48.0286C164.424 48.0286 165.889 47.1289 165.889 45.3297C165.889 44.6443 165.658 44.0702 165.195 43.6076C164.733 43.162 164.184 42.8964 163.55 42.8107C163.139 42.7593 162.711 42.6994 162.265 42.6308C161.837 42.5794 161.408 42.528 160.98 42.4766C160.569 42.4252 160.183 42.3824 159.823 42.3481C159.464 42.3138 159.172 42.2795 158.949 42.2453C157.99 42.1425 157.262 41.8854 156.765 41.4742C156.268 41.0629 156.019 40.4974 156.019 39.7777C156.019 39.178 156.268 38.6468 156.765 38.1841C157.262 37.7215 157.887 37.4301 158.641 37.3102V37.2074C158.264 37.0532 157.913 36.839 157.587 36.5648C157.262 36.2735 156.979 35.9479 156.739 35.5881C156.516 35.2282 156.336 34.8427 156.199 34.4314C156.062 34.003 155.994 33.5661 155.994 33.1205C155.994 32.4694 156.114 31.8696 156.353 31.3213C156.61 30.7729 156.962 30.3017 157.407 29.9076C157.87 29.4963 158.41 29.1793 159.027 28.9566C159.643 28.7167 160.32 28.5967 161.057 28.5967C161.811 28.5967 162.522 28.7167 163.191 28.9566C163.859 29.1793 164.433 29.5135 164.913 29.959C165.495 29.4792 166.009 29.1365 166.455 28.9309C166.9 28.7081 167.32 28.5967 167.714 28.5967C168.331 28.5967 168.82 28.7424 169.179 29.0337C169.556 29.3078 169.745 29.6848 169.745 30.1646C169.745 30.4559 169.642 30.6873 169.436 30.8586C169.248 31.03 169.008 31.1157 168.717 31.1157C168.477 31.1157 168.28 31.0728 168.126 30.9871C167.971 30.9015 167.826 30.8158 167.689 30.7301C167.569 30.6273 167.44 30.533 167.303 30.4474C167.166 30.3617 166.995 30.3188 166.789 30.3188C166.378 30.3188 165.958 30.4645 165.53 30.7558C165.941 31.3898 166.146 32.1866 166.146 33.1462C166.146 34.6028 165.692 35.7508 164.784 36.5905C163.876 37.413 162.514 37.8928 160.697 38.0299C159.652 38.1156 158.924 38.227 158.513 38.364C158.101 38.5011 157.896 38.7496 157.896 39.1094C157.896 39.3836 158.05 39.5892 158.358 39.7263C158.667 39.8463 159.121 39.9234 159.721 39.9577Z" fill="black"/>
<path d="M45.3321 40.3432C44.7153 41.0972 43.9185 41.6884 42.9417 42.1168C41.965 42.528 40.9111 42.7336 39.7802 42.7336C38.872 42.7336 38.0324 42.5708 37.2612 42.2453C36.5073 41.9026 35.8561 41.4313 35.3078 40.8316C34.7594 40.2147 34.331 39.4779 34.0226 38.6211C33.7313 37.7643 33.5856 36.8133 33.5856 35.768C33.5856 34.6713 33.757 33.686 34.0997 32.8121C34.4424 31.921 34.9222 31.1671 35.5391 30.5502C36.1731 29.9162 36.9271 29.4364 37.801 29.1108C38.6921 28.7681 39.6688 28.5967 40.7312 28.5967C41.3995 28.5967 42.0078 28.6567 42.5562 28.7766C43.1045 28.8794 43.5757 29.0337 43.9699 29.2393C44.3811 29.4278 44.6981 29.6677 44.9209 29.959C45.1437 30.2332 45.255 30.533 45.255 30.8586C45.255 31.2013 45.1437 31.4669 44.9209 31.6554C44.6981 31.8439 44.3897 31.9382 43.9956 31.9382C43.6871 31.9382 43.4301 31.8782 43.2245 31.7582C43.0188 31.6212 42.7532 31.3298 42.4276 30.8843C42.0849 30.4902 41.7508 30.216 41.4252 30.0618C41.1168 29.8905 40.7141 29.8048 40.2171 29.8048C39.0005 29.8048 38.0752 30.276 37.4412 31.2185C36.8243 32.1609 36.5158 33.5489 36.5158 35.3824C36.5158 37.353 36.8586 38.8524 37.544 39.8805C38.2465 40.8916 39.2661 41.3971 40.6027 41.3971C41.3224 41.3971 41.9993 41.26 42.6333 40.9858C43.2673 40.6945 43.9099 40.2318 44.561 39.5978L45.3321 40.3432ZM54.4603 28.5967C55.437 28.5967 56.3624 28.7766 57.2363 29.1365C58.1102 29.4792 58.8727 29.959 59.5239 30.5759C60.1922 31.1928 60.7148 31.9296 61.0918 32.7864C61.4859 33.626 61.683 34.5514 61.683 35.5624C61.683 36.6076 61.4859 37.5672 61.0918 38.4412C60.7148 39.3151 60.1922 40.069 59.5239 40.7031C58.8727 41.3371 58.1102 41.834 57.2363 42.1939C56.3624 42.5537 55.437 42.7336 54.4603 42.7336C53.5007 42.7336 52.5839 42.5623 51.71 42.2196C50.8532 41.8597 50.0993 41.3628 49.4481 40.7288C48.797 40.0947 48.2829 39.3408 47.9059 38.4669C47.5289 37.5758 47.3404 36.6076 47.3404 35.5624C47.3404 34.5514 47.5289 33.6175 47.9059 32.7607C48.2829 31.9039 48.797 31.1671 49.4481 30.5502C50.0993 29.9333 50.8532 29.4535 51.71 29.1108C52.5839 28.7681 53.5007 28.5967 54.4603 28.5967ZM54.4603 29.8305C53.8263 29.8305 53.2437 29.9676 52.7125 30.2417C52.1984 30.5159 51.7529 30.91 51.3759 31.4241C51.016 31.921 50.7333 32.5293 50.5277 33.249C50.3392 33.9516 50.2449 34.7313 50.2449 35.5881C50.2449 36.4791 50.3392 37.2845 50.5277 38.0042C50.7333 38.7239 51.016 39.3408 51.3759 39.8548C51.7529 40.3518 52.1984 40.7373 52.7125 41.0115C53.2265 41.2857 53.8091 41.4228 54.4603 41.4228C55.1115 41.4228 55.7026 41.2857 56.2338 41.0115C56.7651 40.7373 57.2191 40.3432 57.5961 39.8291C57.9731 39.3151 58.2644 38.6982 58.4701 37.9785C58.6757 37.2588 58.7785 36.462 58.7785 35.5881C58.7785 34.7313 58.6757 33.9516 58.4701 33.249C58.2644 32.5465 57.9731 31.9467 57.5961 31.4498C57.2191 30.9357 56.7651 30.5416 56.2338 30.2674C55.7026 29.9761 55.1115 29.8305 54.4603 29.8305ZM68.4763 38.4412C68.4763 39.1437 68.4935 39.7006 68.5277 40.1119C68.562 40.506 68.6477 40.8144 68.7848 41.0372C68.939 41.2428 69.1532 41.3799 69.4274 41.4485C69.7187 41.517 70.1128 41.5684 70.6097 41.6027V42.4766H63.8754V41.6027C64.3552 41.5684 64.7322 41.517 65.0064 41.4485C65.2977 41.3799 65.5204 41.2428 65.6747 41.0372C65.8289 40.8316 65.9231 40.5403 65.9574 40.1633C66.0088 39.7863 66.0345 39.2722 66.0345 38.6211V35.2025C66.0345 33.1634 65.9831 31.921 65.8803 31.4755C65.8289 31.2527 65.7603 31.0728 65.6747 30.9357C65.6061 30.7815 65.4947 30.6701 65.3405 30.6016C65.1863 30.5159 64.9892 30.4645 64.7493 30.4474C64.5094 30.4131 64.201 30.396 63.824 30.396V29.5734L67.9366 28.5967L68.245 31.1414H68.3478C68.999 30.336 69.7615 29.7105 70.6354 29.265C71.5094 28.8195 72.4604 28.5967 73.4885 28.5967C74.2768 28.5967 74.9965 28.7252 75.6476 28.9823C76.2988 29.2393 76.7957 29.5906 77.1384 30.0361C77.4297 30.4302 77.6354 30.9443 77.7553 31.5783C77.8753 32.1952 77.9352 33.052 77.9352 34.1487V38.4412C77.9352 39.1437 77.9524 39.7006 77.9866 40.1119C78.038 40.506 78.1323 40.8144 78.2694 41.0372C78.4065 41.2428 78.6121 41.3799 78.8863 41.4485C79.1776 41.517 79.5546 41.5684 80.0172 41.6027V42.4766H73.36V41.6027C73.8398 41.5855 74.2168 41.5427 74.491 41.4742C74.7823 41.3885 74.9965 41.2428 75.1336 41.0372C75.2878 40.8316 75.382 40.5403 75.4163 40.1633C75.4677 39.7692 75.4934 39.2551 75.4934 38.6211V35.2282C75.4934 34.2515 75.442 33.429 75.3392 32.7607C75.2364 32.0924 75.065 31.5526 74.8251 31.1414C74.6023 30.7301 74.3025 30.4388 73.9255 30.2674C73.5485 30.0789 73.0944 29.9847 72.5632 29.9847C71.7921 29.9847 71.081 30.1903 70.4298 30.6016C69.7958 30.9957 69.2989 31.544 68.939 32.2466C68.8533 32.418 68.7762 32.5808 68.7077 32.735C68.6563 32.8892 68.6134 33.0691 68.5792 33.2747C68.5449 33.4804 68.5192 33.7203 68.502 33.9944C68.4849 34.2515 68.4763 34.5856 68.4763 34.9969V38.4412ZM82.8562 42.4766H82.2908V38.0556H82.9334C83.6017 40.4717 84.8183 41.6798 86.5833 41.6798C87.2687 41.6798 87.8085 41.517 88.2026 41.1914C88.6138 40.8487 88.8195 40.3346 88.8195 39.6492C88.8195 39.3922 88.7766 39.178 88.6909 39.0066C88.6224 38.8181 88.4767 38.6296 88.254 38.4412C88.0484 38.2355 87.7485 38.0042 87.3544 37.7472C86.9774 37.4901 86.4719 37.1645 85.8379 36.7704C85.2552 36.4106 84.7497 36.0764 84.3213 35.768C83.893 35.4595 83.5331 35.1511 83.2418 34.8427C82.9505 34.5171 82.7277 34.1744 82.5735 33.8145C82.4364 33.4547 82.3679 33.0348 82.3679 32.555C82.3679 31.9724 82.4621 31.4412 82.6506 30.9614C82.8562 30.4645 83.1304 30.0447 83.4731 29.702C83.8158 29.3592 84.2185 29.0936 84.6812 28.9052C85.1439 28.6995 85.6494 28.5967 86.1977 28.5967C86.6604 28.5967 87.1402 28.6738 87.6371 28.828C88.134 28.9651 88.571 29.1536 88.948 29.3935L89.4621 28.8537H89.9504V32.555H89.2821C88.9051 31.5098 88.4939 30.7644 88.0484 30.3188C87.6028 29.8733 87.0545 29.6506 86.4033 29.6506C85.8207 29.6506 85.3495 29.8048 84.9896 30.1132C84.6469 30.4217 84.4756 30.85 84.4756 31.3984C84.4756 31.6897 84.5184 31.9467 84.6041 32.1695C84.7069 32.3751 84.8611 32.5808 85.0668 32.7864C85.2724 32.992 85.5294 33.2062 85.8379 33.429C86.1634 33.6346 86.549 33.8745 86.9945 34.1487C87.7313 34.6113 88.3568 35.0226 88.8709 35.3824C89.4021 35.7423 89.8305 36.1021 90.156 36.462C90.4816 36.8047 90.7215 37.1645 90.8757 37.5415C91.03 37.9185 91.1071 38.3469 91.1071 38.8267C91.1071 40.0433 90.713 41.0029 89.9247 41.7055C89.1365 42.3909 88.0998 42.7336 86.8146 42.7336C85.478 42.7336 84.3299 42.3481 83.3703 41.577L82.8562 42.4766ZM104.218 32.9663C104.218 32.2637 104.201 31.7154 104.167 31.3213C104.133 30.91 104.039 30.6016 103.884 30.396C103.747 30.1732 103.533 30.0275 103.242 29.959C102.968 29.8733 102.582 29.8048 102.085 29.7534V28.8537H106.737V36.7447C106.737 37.7215 106.746 38.5183 106.763 39.1351C106.797 39.752 106.84 40.2147 106.892 40.5231C106.926 40.7459 106.977 40.9258 107.046 41.0629C107.132 41.1829 107.251 41.2857 107.406 41.3713C107.56 41.4399 107.757 41.4913 107.997 41.5256C108.254 41.5427 108.579 41.5513 108.974 41.5513V42.4509L104.733 42.7593L104.45 39.6749H104.347C103.696 40.7373 102.942 41.517 102.085 42.0139C101.245 42.4937 100.363 42.7336 99.4376 42.7336C98.7179 42.7336 98.0154 42.5966 97.3299 42.3224C96.6616 42.0482 96.1561 41.6798 95.8134 41.2171C95.5221 40.8401 95.3079 40.3175 95.1708 39.6492C95.0509 38.9809 94.9909 38.1156 94.9909 37.0532V32.9663C94.9909 32.2637 94.9738 31.7154 94.9395 31.3213C94.9052 30.91 94.811 30.6016 94.6568 30.396C94.5197 30.1732 94.3055 30.0275 94.0142 29.959C93.74 29.8733 93.3545 29.8048 92.8575 29.7534V28.8537H97.5099V35.8708C97.5099 37.7386 97.7241 39.0923 98.1524 39.932C98.598 40.7716 99.3005 41.1914 100.26 41.1914C101.768 41.1914 102.942 40.2061 103.782 38.2355C103.867 38.0299 103.936 37.8414 103.987 37.67C104.039 37.4987 104.081 37.3102 104.116 37.1046C104.15 36.8989 104.176 36.6676 104.193 36.4106C104.21 36.1535 104.218 35.8451 104.218 35.4852V32.9663ZM114.909 38.4669C114.909 39.118 114.935 39.6406 114.986 40.0348C115.038 40.4289 115.14 40.7373 115.295 40.9601C115.466 41.1829 115.697 41.3371 115.989 41.4228C116.297 41.5084 116.7 41.5598 117.197 41.577V42.4766H110.103V41.577C110.617 41.5598 111.028 41.5084 111.336 41.4228C111.645 41.3199 111.885 41.1657 112.056 40.9601C112.245 40.7545 112.364 40.4717 112.416 40.1119C112.484 39.7349 112.519 39.2465 112.519 38.6468V27.5686C112.519 26.6432 112.502 25.8721 112.467 25.2553C112.45 24.6212 112.416 24.1928 112.364 23.9701C112.279 23.576 112.073 23.3104 111.748 23.1733C111.439 23.0362 110.874 22.9676 110.051 22.9676V22.0937L114.909 21.1427V38.4669ZM118.924 30.4731V29.522C119.832 28.9908 120.543 28.4596 121.057 27.9284C121.571 27.3972 121.965 26.7632 122.24 26.0264H122.985V29.265H126.429V30.4731H122.985V38.2869C122.985 38.8867 123.011 39.3922 123.062 39.8034C123.131 40.2147 123.234 40.5488 123.371 40.8059C123.508 41.0458 123.688 41.2171 123.91 41.3199C124.133 41.4228 124.416 41.4742 124.759 41.4742C125.187 41.4742 125.547 41.3885 125.838 41.2171C126.147 41.0286 126.446 40.7202 126.738 40.2918L127.38 40.7802C127.14 41.4142 126.721 41.9026 126.121 42.2453C125.538 42.5708 124.81 42.7336 123.936 42.7336C122.805 42.7336 121.94 42.468 121.34 41.9368C120.757 41.3885 120.466 40.6088 120.466 39.5978V30.4731H118.924ZM133.47 38.3897C133.47 39.058 133.496 39.5978 133.547 40.0091C133.616 40.4032 133.736 40.7202 133.907 40.9601C134.079 41.1829 134.318 41.3371 134.627 41.4228C134.935 41.5084 135.347 41.5598 135.861 41.577V42.4766H128.484V41.577C128.998 41.5598 129.418 41.5084 129.743 41.4228C130.069 41.3199 130.317 41.1657 130.489 40.9601C130.677 40.7373 130.797 40.4375 130.849 40.0605C130.917 39.6664 130.951 39.1694 130.951 38.5697V35.2796C130.951 34.2858 130.934 33.4718 130.9 32.8378C130.883 32.1866 130.84 31.7411 130.771 31.5012C130.686 31.1071 130.489 30.8415 130.18 30.7044C129.872 30.5502 129.289 30.4731 128.432 30.4731V29.5734L133.47 28.5967V38.3897ZM130.514 23.3789C130.514 22.9334 130.669 22.5564 130.977 22.2479C131.285 21.9395 131.662 21.7853 132.108 21.7853C132.554 21.7853 132.93 21.9395 133.239 22.2479C133.547 22.5564 133.702 22.9334 133.702 23.3789C133.702 23.8244 133.547 24.2014 133.239 24.5098C132.93 24.8183 132.554 24.9725 132.108 24.9725C131.662 24.9725 131.285 24.8183 130.977 24.5098C130.669 24.2014 130.514 23.8244 130.514 23.3789ZM141.922 38.4412C141.922 39.1437 141.939 39.7006 141.974 40.1119C142.008 40.506 142.093 40.8144 142.231 41.0372C142.385 41.2428 142.599 41.3799 142.873 41.4485C143.164 41.517 143.559 41.5684 144.055 41.6027V42.4766H137.321V41.6027C137.801 41.5684 138.178 41.517 138.452 41.4485C138.743 41.3799 138.966 41.2428 139.12 41.0372C139.275 40.8316 139.369 40.5403 139.403 40.1633C139.455 39.7863 139.48 39.2722 139.48 38.6211V35.2025C139.48 33.1634 139.429 31.921 139.326 31.4755C139.275 31.2527 139.206 31.0728 139.12 30.9357C139.052 30.7815 138.94 30.6701 138.786 30.6016C138.632 30.5159 138.435 30.4645 138.195 30.4474C137.955 30.4131 137.647 30.396 137.27 30.396V29.5734L141.382 28.5967L141.691 31.1414H141.794C142.445 30.336 143.207 29.7105 144.081 29.265C144.955 28.8195 145.906 28.5967 146.934 28.5967C147.723 28.5967 148.442 28.7252 149.093 28.9823C149.745 29.2393 150.241 29.5906 150.584 30.0361C150.875 30.4302 151.081 30.9443 151.201 31.5783C151.321 32.1952 151.381 33.052 151.381 34.1487V38.4412C151.381 39.1437 151.398 39.7006 151.432 40.1119C151.484 40.506 151.578 40.8144 151.715 41.0372C151.852 41.2428 152.058 41.3799 152.332 41.4485C152.623 41.517 153 41.5684 153.463 41.6027V42.4766H146.806V41.6027C147.286 41.5855 147.663 41.5427 147.937 41.4742C148.228 41.3885 148.442 41.2428 148.579 41.0372C148.734 40.8316 148.828 40.5403 148.862 40.1633C148.913 39.7692 148.939 39.2551 148.939 38.6211V35.2282C148.939 34.2515 148.888 33.429 148.785 32.7607C148.682 32.0924 148.511 31.5526 148.271 31.1414C148.048 30.7301 147.748 30.4388 147.371 30.2674C146.994 30.0789 146.54 29.9847 146.009 29.9847C145.238 29.9847 144.527 30.1903 143.876 30.6016C143.242 30.9957 142.745 31.544 142.385 32.2466C142.299 32.418 142.222 32.5808 142.153 32.735C142.102 32.8892 142.059 33.0691 142.025 33.2747C141.991 33.4804 141.965 33.7203 141.948 33.9944C141.931 34.2515 141.922 34.5856 141.922 34.9969V38.4412ZM161.134 36.9503C161.854 36.9503 162.411 36.6248 162.805 35.9736C163.216 35.3225 163.422 34.4057 163.422 33.2233C163.422 32.0581 163.216 31.1585 162.805 30.5245C162.411 29.8733 161.845 29.5477 161.109 29.5477C160.372 29.5477 159.781 29.8733 159.335 30.5245C158.907 31.1756 158.692 32.0667 158.692 33.1976C158.692 34.3286 158.915 35.2368 159.361 35.9222C159.806 36.6076 160.397 36.9503 161.134 36.9503ZM159.721 39.9577C160.132 39.9919 160.509 40.0262 160.852 40.0605C161.194 40.0947 161.528 40.129 161.854 40.1633C162.197 40.1976 162.531 40.2404 162.856 40.2918C163.199 40.3432 163.568 40.3946 163.962 40.446C165.195 40.6345 166.181 41.1143 166.918 41.8854C167.672 42.6394 168.049 43.5904 168.049 44.7385C168.049 46.1779 167.474 47.2746 166.326 48.0286C165.195 48.7825 163.55 49.1595 161.391 49.1595C160.432 49.1595 159.549 49.0738 158.744 48.9025C157.956 48.7311 157.279 48.4827 156.713 48.1571C156.148 47.8486 155.702 47.4716 155.377 47.0261C155.068 46.5806 154.914 46.0922 154.914 45.561C154.914 45.2012 154.974 44.867 155.094 44.5586C155.214 44.2501 155.377 43.976 155.582 43.7361C155.788 43.5133 156.028 43.3334 156.302 43.1963C156.593 43.0592 156.893 42.9907 157.202 42.9907C157.784 42.9907 158.307 43.1706 158.77 43.5304C158.307 43.6333 157.93 43.8817 157.639 44.2758C157.347 44.6871 157.202 45.1498 157.202 45.6638C157.202 46.4178 157.57 47.0004 158.307 47.4117C159.061 47.8229 160.123 48.0286 161.494 48.0286C164.424 48.0286 165.889 47.1289 165.889 45.3297C165.889 44.6443 165.658 44.0702 165.195 43.6076C164.733 43.162 164.184 42.8964 163.55 42.8107C163.139 42.7593 162.711 42.6994 162.265 42.6308C161.837 42.5794 161.408 42.528 160.98 42.4766C160.569 42.4252 160.183 42.3824 159.823 42.3481C159.464 42.3138 159.172 42.2795 158.949 42.2453C157.99 42.1425 157.262 41.8854 156.765 41.4742C156.268 41.0629 156.019 40.4974 156.019 39.7777C156.019 39.178 156.268 38.6468 156.765 38.1841C157.262 37.7215 157.887 37.4301 158.641 37.3102V37.2074C158.264 37.0532 157.913 36.839 157.587 36.5648C157.262 36.2735 156.979 35.9479 156.739 35.5881C156.516 35.2282 156.336 34.8427 156.199 34.4314C156.062 34.003 155.994 33.5661 155.994 33.1205C155.994 32.4694 156.114 31.8696 156.353 31.3213C156.61 30.7729 156.962 30.3017 157.407 29.9076C157.87 29.4963 158.41 29.1793 159.027 28.9566C159.643 28.7167 160.32 28.5967 161.057 28.5967C161.811 28.5967 162.522 28.7167 163.191 28.9566C163.859 29.1793 164.433 29.5135 164.913 29.959C165.495 29.4792 166.009 29.1365 166.455 28.9309C166.9 28.7081 167.32 28.5967 167.714 28.5967C168.331 28.5967 168.82 28.7424 169.179 29.0337C169.556 29.3078 169.745 29.6848 169.745 30.1646C169.745 30.4559 169.642 30.6873 169.436 30.8586C169.248 31.03 169.008 31.1157 168.717 31.1157C168.477 31.1157 168.28 31.0728 168.126 30.9871C167.971 30.9015 167.826 30.8158 167.689 30.7301C167.569 30.6273 167.44 30.533 167.303 30.4474C167.166 30.3617 166.995 30.3188 166.789 30.3188C166.378 30.3188 165.958 30.4645 165.53 30.7558C165.941 31.3898 166.146 32.1866 166.146 33.1462C166.146 34.6028 165.692 35.7508 164.784 36.5905C163.876 37.413 162.514 37.8928 160.697 38.0299C159.652 38.1156 158.924 38.227 158.513 38.364C158.101 38.5011 157.896 38.7496 157.896 39.1094C157.896 39.3836 158.05 39.5892 158.358 39.7263C158.667 39.8463 159.121 39.9234 159.721 39.9577Z" fill="black"/>
</svg>
