<svg width="299" height="50" viewBox="0 0 299 50" fill="none" xmlns="http://www.w3.org/2000/svg">
<path d="M40.68 11.0537C41.6567 11.0537 42.5821 11.2336 43.456 11.5934C44.3299 11.9362 45.0924 12.4159 45.7436 13.0328C46.4119 13.6497 46.9345 14.3866 47.3115 15.2433C47.7056 16.083 47.9027 17.0083 47.9027 18.0193C47.9027 19.0646 47.7056 20.0242 47.3115 20.8981C46.9345 21.772 46.4119 22.526 45.7436 23.16C45.0924 23.794 44.3299 24.291 43.456 24.6508C42.5821 25.0107 41.6567 25.1906 40.68 25.1906C39.7204 25.1906 38.8037 25.0192 37.9297 24.6765C37.073 24.3167 36.319 23.8197 35.6678 23.1857C35.0167 22.5517 34.5026 21.7977 34.1256 20.9238C33.7486 20.0328 33.5601 19.0646 33.5601 18.0193C33.5601 17.0083 33.7486 16.0744 34.1256 15.2176C34.5026 14.3608 35.0167 13.624 35.6678 13.0071C36.319 12.3902 37.073 11.9104 37.9297 11.5677C38.8037 11.225 39.7204 11.0537 40.68 11.0537ZM40.68 12.2874C40.046 12.2874 39.4634 12.4245 38.9322 12.6987C38.4181 12.9729 37.9726 13.367 37.5956 13.881C37.2357 14.378 36.953 14.9863 36.7474 15.706C36.5589 16.4086 36.4646 17.1882 36.4646 18.045C36.4646 18.9361 36.5589 19.7414 36.7474 20.4611C36.953 21.1808 37.2357 21.7977 37.5956 22.3118C37.9726 22.8087 38.4181 23.1943 38.9322 23.4685C39.4462 23.7426 40.0289 23.8797 40.68 23.8797C41.3312 23.8797 41.9223 23.7426 42.4536 23.4685C42.9848 23.1943 43.4389 22.8002 43.8158 22.2861C44.1928 21.772 44.4841 21.1551 44.6898 20.4354C44.8954 19.7157 44.9982 18.9189 44.9982 18.045C44.9982 17.1882 44.8954 16.4086 44.6898 15.706C44.4841 15.0034 44.1928 14.4037 43.8158 13.9068C43.4389 13.3927 42.9848 12.9986 42.4536 12.7244C41.9223 12.4331 41.3312 12.2874 40.68 12.2874ZM61.5846 22.7745H61.4818C60.8649 23.6484 60.2052 24.2738 59.5026 24.6508C58.8172 25.0107 58.0032 25.1906 57.0608 25.1906C56.084 25.1906 55.1844 25.0192 54.3619 24.6765C53.5565 24.3167 52.854 23.8283 52.2542 23.2114C51.6716 22.5774 51.2089 21.8234 50.8662 20.9495C50.5407 20.0756 50.3779 19.1246 50.3779 18.0964C50.3779 17.0854 50.5407 16.1515 50.8662 15.2947C51.2089 14.4208 51.6716 13.6754 52.2542 13.0585C52.854 12.4245 53.5651 11.9362 54.3876 11.5934C55.2101 11.2336 56.1012 11.0537 57.0608 11.0537C57.8833 11.0537 58.6116 11.1907 59.2456 11.4649C59.8967 11.7391 60.5222 12.176 61.1219 12.7758V10.154C61.1219 9.17727 61.1048 8.36332 61.0705 7.71217C61.0534 7.06101 61.0191 6.61548 60.9677 6.37558C60.882 5.9986 60.6421 5.733 60.248 5.57878C59.8539 5.42456 59.2113 5.34745 58.3202 5.34745V4.57634L63.5895 3.59961V18.4306C63.5895 19.6129 63.598 20.5897 63.6152 21.3608C63.6323 22.1147 63.6837 22.6545 63.7694 22.9801C63.8208 23.1857 63.8808 23.3571 63.9493 23.4942C64.035 23.6312 64.1464 23.7426 64.2835 23.8283C64.4377 23.8968 64.6347 23.9483 64.8746 23.9825C65.1317 24.0168 65.4573 24.0339 65.8514 24.0339V24.9079L61.5846 25.1906V22.7745ZM61.0705 17.094C61.0705 16.2029 61.0191 15.5261 60.9163 15.0634C60.8306 14.6007 60.6507 14.1981 60.3765 13.8553C59.9824 13.3413 59.4769 12.9557 58.86 12.6987C58.2603 12.4245 57.6605 12.2874 57.0608 12.2874C55.827 12.2874 54.8845 12.8015 54.2334 13.8296C53.5994 14.8406 53.2824 16.2201 53.2824 17.9679C53.2824 18.8761 53.3595 19.6986 53.5137 20.4354C53.685 21.1723 53.9249 21.8063 54.2334 22.3375C54.559 22.8516 54.9531 23.2543 55.4157 23.5456C55.8955 23.8197 56.4439 23.9568 57.0608 23.9568C57.3692 23.9568 57.6777 23.9226 57.9861 23.854C58.3117 23.7855 58.6201 23.6827 58.9114 23.5456C59.2199 23.3913 59.5026 23.22 59.7596 23.0315C60.0167 22.8259 60.2309 22.5945 60.4022 22.3375C60.6421 21.9605 60.8135 21.5064 60.9163 20.9752C61.0191 20.444 61.0705 19.7157 61.0705 18.7904V17.094ZM75.4595 17.3253C74.4827 17.7023 73.6516 18.0707 72.9662 18.4306C72.2979 18.7904 71.7582 19.1503 71.3469 19.5101C70.9356 19.87 70.6358 20.2298 70.4473 20.5897C70.2759 20.9495 70.1902 21.3179 70.1902 21.6949C70.1902 22.2604 70.3787 22.7231 70.7557 23.0829C71.1327 23.4428 71.6296 23.6227 72.2465 23.6227C72.6921 23.6227 73.1033 23.5113 73.4803 23.2885C73.8744 23.0658 74.2171 22.7659 74.5084 22.3889C74.7997 21.9948 75.0311 21.5407 75.2024 21.0266C75.3738 20.4954 75.4595 19.9385 75.4595 19.3559V17.3253ZM75.4595 16.2201V15.1662C75.4595 13.0757 74.5684 12.0304 72.7863 12.0304C72.495 12.0304 72.2465 12.0561 72.0409 12.1075C71.8353 12.1589 71.6639 12.2446 71.5268 12.3645C71.3897 12.4845 71.2612 12.6558 71.1413 12.8786C71.0385 13.1014 70.9356 13.3755 70.8328 13.7011C70.6443 14.1981 70.4558 14.5322 70.2674 14.7036C70.096 14.8578 69.839 14.9349 69.4962 14.9349C68.6395 14.9349 68.2111 14.5065 68.2111 13.6497C68.2111 12.8272 68.648 12.1932 69.522 11.7477C70.3959 11.285 71.6382 11.0537 73.249 11.0537C74.9625 11.0537 76.1792 11.3621 76.8989 11.979C77.6186 12.5787 77.9784 13.6069 77.9784 15.0634V20.821C77.9784 22.7745 78.364 23.7512 79.1351 23.7512C79.375 23.7512 79.6063 23.7255 79.8291 23.6741C80.0518 23.6055 80.2403 23.4428 80.3945 23.1857L80.7544 23.8026C80.5488 24.1967 80.1718 24.5309 79.6234 24.805C79.0751 25.0621 78.501 25.1906 77.9013 25.1906C77.1473 25.1906 76.5818 24.9507 76.2049 24.4709C75.845 23.9911 75.6651 23.3142 75.6651 22.4403H75.5366C75.091 23.28 74.4742 23.9483 73.6859 24.4452C72.8977 24.925 72.0238 25.1649 71.0642 25.1649C69.9846 25.1649 69.1364 24.8907 68.5195 24.3424C67.9026 23.794 67.5942 23.0572 67.5942 22.1319C67.5942 21.7206 67.6627 21.3265 67.7998 20.9495C67.954 20.5725 68.1939 20.2127 68.5195 19.87C68.8451 19.5273 69.2735 19.1931 69.8047 18.8675C70.3359 18.5248 70.9871 18.1821 71.7582 17.8394L75.4595 16.2201Z" fill="black"/>
<path d="M6.8606 8.79049C6.34653 7.89944 5.86673 7.17974 5.4212 6.6314C4.97568 6.04878 4.51301 5.58612 4.03321 5.24341C3.58769 4.90069 3.10789 4.67793 2.59382 4.57512C2.07975 4.43803 1.46286 4.36949 0.743164 4.36949V2.41602H16.9364V4.36949C15.2228 4.36949 14.0062 4.50657 13.2865 4.78074C12.601 5.02064 12.2583 5.46617 12.2583 6.11733C12.2583 6.83702 12.6525 7.86515 13.4407 9.20175L21.4088 22.8246H21.6144L27.4234 13.0573C28.5201 11.2066 29.2912 9.75009 29.7367 8.68768C30.2165 7.62527 30.4564 6.76848 30.4564 6.11733C30.4564 5.46617 30.1994 5.02064 29.6853 4.78074C29.2055 4.50657 28.3487 4.36949 27.115 4.36949V2.41602H38.8872V4.36949C38.1675 4.36949 37.5163 4.4723 36.9337 4.67793C36.3854 4.88356 35.8027 5.29481 35.1859 5.9117C34.569 6.52858 33.8836 7.38537 33.1296 8.48205C32.4099 9.57873 31.5188 11.0181 30.4564 12.8002L22.5397 26.166V32.2835C22.5397 33.9628 22.5911 35.3165 22.694 36.3446C22.831 37.3385 23.0881 38.1096 23.4651 38.6579C23.8763 39.2063 24.4418 39.5833 25.1615 39.7889C25.9155 39.9603 26.9093 40.0459 28.1431 40.0459V41.9994H11.4872V40.0459C12.721 40.0459 13.6977 39.9603 14.4174 39.7889C15.1714 39.5833 15.7369 39.2234 16.1139 38.7094C16.5251 38.161 16.7993 37.407 16.9364 36.4474C17.0735 35.4878 17.142 34.2198 17.142 32.6433V26.3717L6.8606 8.79049Z" fill="#009473"/>
<path d="M45.3319 40.3431C44.7151 41.0971 43.9183 41.6883 42.9415 42.1167C41.9648 42.5279 40.9109 42.7335 39.78 42.7335C38.8718 42.7335 38.0322 42.5707 37.261 42.2452C36.5071 41.9025 35.8559 41.4312 35.3076 40.8315C34.7592 40.2146 34.3308 39.4778 34.0224 38.621C33.7311 37.7642 33.5854 36.8132 33.5854 35.7679C33.5854 34.6712 33.7568 33.6859 34.0995 32.812C34.4422 31.9209 34.922 31.167 35.5389 30.5501C36.1729 29.9161 36.9269 29.4363 37.8008 29.1107C38.6919 28.768 39.6686 28.5966 40.731 28.5966C41.3993 28.5966 42.0076 28.6566 42.556 28.7765C43.1043 28.8793 43.5755 29.0336 43.9697 29.2392C44.3809 29.4277 44.6979 29.6676 44.9207 29.9589C45.1435 30.2331 45.2548 30.5329 45.2548 30.8585C45.2548 31.2012 45.1435 31.4668 44.9207 31.6553C44.6979 31.8438 44.3895 31.9381 43.9954 31.9381C43.6869 31.9381 43.4299 31.8781 43.2243 31.7581C43.0186 31.6211 42.753 31.3297 42.4274 30.8842C42.0847 30.4901 41.7506 30.2159 41.425 30.0617C41.1166 29.8904 40.7139 29.8047 40.2169 29.8047C39.0003 29.8047 38.075 30.2759 37.441 31.2184C36.8241 32.1608 36.5156 33.5488 36.5156 35.3823C36.5156 37.3529 36.8584 38.8523 37.5438 39.8804C38.2463 40.8915 39.2659 41.397 40.6025 41.397C41.3222 41.397 41.9991 41.2599 42.6331 40.9857C43.2671 40.6944 43.9097 40.2317 44.5608 39.5977L45.3319 40.3431ZM54.4601 28.5966C55.4368 28.5966 56.3622 28.7765 57.2361 29.1364C58.11 29.4791 58.8725 29.9589 59.5237 30.5758C60.192 31.1927 60.7146 31.9295 61.0916 32.7863C61.4857 33.6259 61.6828 34.5513 61.6828 35.5623C61.6828 36.6075 61.4857 37.5671 61.0916 38.4411C60.7146 39.315 60.192 40.0689 59.5237 40.703C58.8725 41.337 58.11 41.8339 57.2361 42.1938C56.3622 42.5536 55.4368 42.7335 54.4601 42.7335C53.5005 42.7335 52.5837 42.5622 51.7098 42.2195C50.853 41.8596 50.0991 41.3627 49.4479 40.7287C48.7968 40.0946 48.2827 39.3407 47.9057 38.4668C47.5287 37.5757 47.3402 36.6075 47.3402 35.5623C47.3402 34.5513 47.5287 33.6174 47.9057 32.7606C48.2827 31.9038 48.7968 31.167 49.4479 30.5501C50.0991 29.9332 50.853 29.4534 51.7098 29.1107C52.5837 28.768 53.5005 28.5966 54.4601 28.5966ZM54.4601 29.8304C53.8261 29.8304 53.2435 29.9675 52.7123 30.2416C52.1982 30.5158 51.7527 30.9099 51.3757 31.424C51.0158 31.9209 50.7331 32.5292 50.5275 33.2489C50.339 33.9515 50.2447 34.7312 50.2447 35.588C50.2447 36.479 50.339 37.2844 50.5275 38.0041C50.7331 38.7238 51.0158 39.3407 51.3757 39.8547C51.7527 40.3517 52.1982 40.7372 52.7123 41.0114C53.2263 41.2856 53.8089 41.4227 54.4601 41.4227C55.1113 41.4227 55.7024 41.2856 56.2336 41.0114C56.7649 40.7372 57.2189 40.3431 57.5959 39.829C57.9729 39.315 58.2642 38.6981 58.4699 37.9784C58.6755 37.2587 58.7783 36.4619 58.7783 35.588C58.7783 34.7312 58.6755 33.9515 58.4699 33.2489C58.2642 32.5464 57.9729 31.9466 57.5959 31.4497C57.2189 30.9356 56.7649 30.5415 56.2336 30.2673C55.7024 29.976 55.1113 29.8304 54.4601 29.8304ZM68.4762 38.4411C68.4762 39.1436 68.4933 39.7005 68.5275 40.1118C68.5618 40.5059 68.6475 40.8143 68.7846 41.0371C68.9388 41.2427 69.153 41.3798 69.4272 41.4484C69.7185 41.5169 70.1127 41.5683 70.6096 41.6026V42.4765H63.8752V41.6026C64.355 41.5683 64.732 41.5169 65.0062 41.4484C65.2975 41.3798 65.5202 41.2427 65.6745 41.0371C65.8287 40.8315 65.9229 40.5402 65.9572 40.1632C66.0086 39.7862 66.0343 39.2721 66.0343 38.621V35.2024C66.0343 33.1633 65.9829 31.9209 65.8801 31.4754C65.8287 31.2526 65.7601 31.0727 65.6745 30.9356C65.6059 30.7814 65.4945 30.67 65.3403 30.6015C65.1861 30.5158 64.989 30.4644 64.7491 30.4473C64.5092 30.413 64.2008 30.3959 63.8238 30.3959V29.5733L67.9364 28.5966L68.2449 31.1413H68.3476C68.9988 30.3359 69.7613 29.7104 70.6352 29.2649C71.5092 28.8194 72.4602 28.5966 73.4883 28.5966C74.2766 28.5966 74.9963 28.7251 75.6474 28.9822C76.2986 29.2392 76.7955 29.5905 77.1382 30.036C77.4295 30.4301 77.6352 30.9442 77.7551 31.5782C77.8751 32.1951 77.9351 33.0519 77.9351 34.1486V38.4411C77.9351 39.1436 77.9523 39.7005 77.9865 40.1118C78.0379 40.5059 78.1321 40.8143 78.2692 41.0371C78.4063 41.2427 78.6119 41.3798 78.8861 41.4484C79.1774 41.5169 79.5544 41.5683 80.017 41.6026V42.4765H73.3598V41.6026C73.8396 41.5854 74.2166 41.5426 74.4908 41.4741C74.7821 41.3884 74.9963 41.2427 75.1334 41.0371C75.2876 40.8315 75.3818 40.5402 75.4161 40.1632C75.4675 39.7691 75.4932 39.255 75.4932 38.621V35.2281C75.4932 34.2514 75.4419 33.4289 75.3391 32.7606C75.2363 32.0923 75.0649 31.5525 74.825 31.1413C74.6022 30.73 74.3023 30.4387 73.9253 30.2673C73.5483 30.0788 73.0942 29.9846 72.563 29.9846C71.7919 29.9846 71.0808 30.1902 70.4296 30.6015C69.7956 30.9956 69.2988 31.5439 68.9389 32.2465C68.8532 32.4179 68.7761 32.5807 68.7076 32.7349C68.6562 32.8891 68.6132 33.069 68.579 33.2746C68.5447 33.4803 68.519 33.7202 68.5018 33.9943C68.4847 34.2514 68.4762 34.5855 68.4762 34.9968V38.4411ZM82.856 42.4765H82.2906V38.0555H82.9333C83.6016 40.4716 84.8181 41.6797 86.5831 41.6797C87.2685 41.6797 87.8083 41.5169 88.2024 41.1913C88.6136 40.8486 88.8194 40.3345 88.8194 39.6491C88.8194 39.3921 88.7765 39.1779 88.6908 39.0065C88.6223 38.818 88.4765 38.6295 88.2538 38.4411C88.0482 38.2354 87.7483 38.0041 87.3542 37.7471C86.9772 37.49 86.4717 37.1644 85.8377 36.7703C85.255 36.4105 84.7495 36.0763 84.3211 35.7679C83.8928 35.4594 83.5329 35.151 83.2416 34.8426C82.9503 34.517 82.7275 34.1743 82.5733 33.8144C82.4362 33.4546 82.3677 33.0347 82.3677 32.5549C82.3677 31.9723 82.4619 31.4411 82.6504 30.9613C82.856 30.4644 83.1302 30.0446 83.4729 29.7019C83.8156 29.3591 84.2183 29.0935 84.681 28.9051C85.1437 28.6994 85.6492 28.5966 86.1975 28.5966C86.6602 28.5966 87.14 28.6737 87.6369 28.8279C88.1338 28.965 88.5708 29.1535 88.9478 29.3934L89.4619 28.8536H89.9502V32.5549H89.2819C88.9049 31.5097 88.4937 30.7643 88.0482 30.3187C87.6026 29.8732 87.0543 29.6505 86.4031 29.6505C85.8205 29.6505 85.3493 29.8047 84.9894 30.1131C84.6467 30.4216 84.4754 30.8499 84.4754 31.3983C84.4754 31.6896 84.5183 31.9466 84.604 32.1694C84.7068 32.375 84.861 32.5807 85.0667 32.7863C85.2723 32.9919 85.5292 33.2061 85.8377 33.4289C86.1632 33.6345 86.5488 33.8744 86.9943 34.1486C87.7311 34.6112 88.3567 35.0225 88.8708 35.3823C89.402 35.7422 89.8303 36.102 90.1558 36.4619C90.4814 36.8046 90.7213 37.1644 90.8755 37.5414C91.0298 37.9184 91.1069 38.3468 91.1069 38.8266C91.1069 40.0432 90.7128 41.0028 89.9245 41.7054C89.1363 42.3908 88.0996 42.7335 86.8144 42.7335C85.4778 42.7335 84.3297 42.348 83.3701 41.5769L82.856 42.4765ZM104.218 32.9662C104.218 32.2636 104.201 31.7153 104.167 31.3212C104.133 30.9099 104.039 30.6015 103.884 30.3959C103.747 30.1731 103.533 30.0274 103.242 29.9589C102.968 29.8732 102.582 29.8047 102.085 29.7533V28.8536H106.737V36.7446C106.737 37.7214 106.746 38.5182 106.763 39.135C106.797 39.7519 106.84 40.2146 106.892 40.523C106.926 40.7458 106.977 40.9257 107.046 41.0628C107.132 41.1828 107.251 41.2856 107.406 41.3712C107.56 41.4398 107.757 41.4912 107.997 41.5255C108.254 41.5426 108.579 41.5512 108.974 41.5512V42.4508L104.733 42.7592L104.45 39.6748H104.347C103.696 40.7372 102.942 41.5169 102.085 42.0138C101.245 42.4936 100.363 42.7335 99.4374 42.7335C98.7177 42.7335 98.0153 42.5965 97.3298 42.3223C96.6615 42.0481 96.1559 41.6797 95.8132 41.217C95.5219 40.84 95.3077 40.3174 95.1706 39.6491C95.0507 38.9808 94.9907 38.1155 94.9907 37.0531V32.9662C94.9907 32.2636 94.9736 31.7153 94.9393 31.3212C94.905 30.9099 94.8108 30.6015 94.6566 30.3959C94.5195 30.1731 94.3053 30.0274 94.014 29.9589C93.7398 29.8732 93.3543 29.8047 92.8573 29.7533V28.8536H97.5098V35.8707C97.5098 37.7385 97.7239 39.0922 98.1522 39.9319C98.5978 40.7715 99.3003 41.1913 100.26 41.1913C101.768 41.1913 102.942 40.206 103.782 38.2354C103.867 38.0298 103.936 37.8413 103.987 37.6699C104.039 37.4986 104.081 37.3101 104.116 37.1045C104.15 36.8988 104.176 36.6675 104.193 36.4105C104.21 36.1534 104.218 35.845 104.218 35.4851V32.9662ZM114.909 38.4668C114.909 39.1179 114.935 39.6405 114.986 40.0347C115.038 40.4288 115.14 40.7372 115.295 40.96C115.466 41.1828 115.697 41.337 115.989 41.4227C116.297 41.5083 116.7 41.5597 117.197 41.5769V42.4765H110.103V41.5769C110.617 41.5597 111.028 41.5083 111.336 41.4227C111.645 41.3198 111.885 41.1656 112.056 40.96C112.245 40.7544 112.364 40.4716 112.416 40.1118C112.484 39.7348 112.519 39.2464 112.519 38.6467V27.5685C112.519 26.6431 112.502 25.872 112.467 25.2552C112.45 24.6211 112.416 24.1927 112.364 23.97C112.279 23.5759 112.073 23.3103 111.748 23.1732C111.439 23.0361 110.874 22.9675 110.051 22.9675V22.0936L114.909 21.1426V38.4668ZM118.924 30.473V29.5219C119.832 28.9907 120.543 28.4595 121.057 27.9283C121.571 27.3971 121.965 26.7631 122.24 26.0263H122.985V29.2649H126.429V30.473H122.985V38.2868C122.985 38.8866 123.011 39.3921 123.062 39.8033C123.131 40.2146 123.234 40.5487 123.371 40.8058C123.508 41.0457 123.688 41.217 123.91 41.3198C124.133 41.4227 124.416 41.4741 124.759 41.4741C125.187 41.4741 125.547 41.3884 125.838 41.217C126.147 41.0285 126.446 40.7201 126.738 40.2917L127.38 40.7801C127.14 41.4141 126.721 41.9025 126.121 42.2452C125.538 42.5707 124.81 42.7335 123.936 42.7335C122.805 42.7335 121.94 42.4679 121.34 41.9367C120.757 41.3884 120.466 40.6087 120.466 39.5977V30.473H118.924ZM133.47 38.3896C133.47 39.0579 133.496 39.5977 133.547 40.009C133.616 40.4031 133.736 40.7201 133.907 40.96C134.079 41.1828 134.318 41.337 134.627 41.4227C134.935 41.5083 135.347 41.5597 135.861 41.5769V42.4765H128.484V41.5769C128.998 41.5597 129.418 41.5083 129.743 41.4227C130.069 41.3198 130.317 41.1656 130.489 40.96C130.677 40.7372 130.797 40.4374 130.849 40.0604C130.917 39.6663 130.951 39.1693 130.951 38.5696V35.2795C130.951 34.2857 130.934 33.4717 130.9 32.8377C130.883 32.1865 130.84 31.741 130.771 31.5011C130.686 31.107 130.489 30.8414 130.18 30.7043C129.872 30.5501 129.289 30.473 128.432 30.473V29.5733L133.47 28.5966V38.3896ZM130.514 23.3788C130.514 22.9333 130.669 22.5563 130.977 22.2478C131.285 21.9394 131.662 21.7852 132.108 21.7852C132.554 21.7852 132.93 21.9394 133.239 22.2478C133.547 22.5563 133.702 22.9333 133.702 23.3788C133.702 23.8243 133.547 24.2013 133.239 24.5097C132.93 24.8182 132.554 24.9724 132.108 24.9724C131.662 24.9724 131.285 24.8182 130.977 24.5097C130.669 24.2013 130.514 23.8243 130.514 23.3788ZM141.922 38.4411C141.922 39.1436 141.939 39.7005 141.974 40.1118C142.008 40.5059 142.093 40.8143 142.231 41.0371C142.385 41.2427 142.599 41.3798 142.873 41.4484C143.164 41.5169 143.559 41.5683 144.055 41.6026V42.4765H137.321V41.6026C137.801 41.5683 138.178 41.5169 138.452 41.4484C138.743 41.3798 138.966 41.2427 139.12 41.0371C139.275 40.8315 139.369 40.5402 139.403 40.1632C139.455 39.7862 139.48 39.2721 139.48 38.621V35.2024C139.48 33.1633 139.429 31.9209 139.326 31.4754C139.275 31.2526 139.206 31.0727 139.12 30.9356C139.052 30.7814 138.94 30.67 138.786 30.6015C138.632 30.5158 138.435 30.4644 138.195 30.4473C137.955 30.413 137.647 30.3959 137.27 30.3959V29.5733L141.382 28.5966L141.691 31.1413H141.794C142.445 30.3359 143.207 29.7104 144.081 29.2649C144.955 28.8194 145.906 28.5966 146.934 28.5966C147.723 28.5966 148.442 28.7251 149.093 28.9822C149.745 29.2392 150.241 29.5905 150.584 30.036C150.875 30.4301 151.081 30.9442 151.201 31.5782C151.321 32.1951 151.381 33.0519 151.381 34.1486V38.4411C151.381 39.1436 151.398 39.7005 151.432 40.1118C151.484 40.5059 151.578 40.8143 151.715 41.0371C151.852 41.2427 152.058 41.3798 152.332 41.4484C152.623 41.5169 153 41.5683 153.463 41.6026V42.4765H146.806V41.6026C147.286 41.5854 147.663 41.5426 147.937 41.4741C148.228 41.3884 148.442 41.2427 148.579 41.0371C148.734 40.8315 148.828 40.5402 148.862 40.1632C148.913 39.7691 148.939 39.255 148.939 38.621V35.2281C148.939 34.2514 148.888 33.4289 148.785 32.7606C148.682 32.0923 148.511 31.5525 148.271 31.1413C148.048 30.73 147.748 30.4387 147.371 30.2673C146.994 30.0788 146.54 29.9846 146.009 29.9846C145.238 29.9846 144.527 30.1902 143.876 30.6015C143.242 30.9956 142.745 31.5439 142.385 32.2465C142.299 32.4179 142.222 32.5807 142.153 32.7349C142.102 32.8891 142.059 33.069 142.025 33.2746C141.991 33.4803 141.965 33.7202 141.948 33.9943C141.931 34.2514 141.922 34.5855 141.922 34.9968V38.4411ZM161.134 36.9502C161.854 36.9502 162.411 36.6247 162.805 35.9735C163.216 35.3224 163.422 34.4056 163.422 33.2232C163.422 32.058 163.216 31.1584 162.805 30.5244C162.411 29.8732 161.845 29.5476 161.109 29.5476C160.372 29.5476 159.781 29.8732 159.335 30.5244C158.907 31.1755 158.692 32.0666 158.692 33.1975C158.692 34.3285 158.915 35.2367 159.361 35.9221C159.806 36.6075 160.397 36.9502 161.134 36.9502ZM159.721 39.9576C160.132 39.9918 160.509 40.0261 160.852 40.0604C161.194 40.0946 161.528 40.1289 161.854 40.1632C162.197 40.1975 162.531 40.2403 162.856 40.2917C163.199 40.3431 163.568 40.3945 163.962 40.4459C165.195 40.6344 166.181 41.1142 166.918 41.8853C167.672 42.6393 168.049 43.5903 168.049 44.7384C168.049 46.1778 167.474 47.2745 166.326 48.0285C165.195 48.7824 163.55 49.1594 161.391 49.1594C160.432 49.1594 159.549 49.0737 158.744 48.9024C157.956 48.731 157.279 48.4826 156.713 48.157C156.148 47.8485 155.702 47.4715 155.377 47.026C155.068 46.5805 154.914 46.0921 154.914 45.5609C154.914 45.2011 154.974 44.8669 155.094 44.5585C155.214 44.25 155.377 43.9759 155.582 43.736C155.788 43.5132 156.028 43.3333 156.302 43.1962C156.593 43.0591 156.893 42.9906 157.202 42.9906C157.784 42.9906 158.307 43.1705 158.77 43.5303C158.307 43.6332 157.93 43.8816 157.639 44.2757C157.347 44.687 157.202 45.1497 157.202 45.6637C157.202 46.4177 157.57 47.0003 158.307 47.4116C159.061 47.8228 160.123 48.0285 161.494 48.0285C164.424 48.0285 165.889 47.1288 165.889 45.3296C165.889 44.6442 165.658 44.0701 165.195 43.6075C164.733 43.1619 164.184 42.8963 163.55 42.8106C163.139 42.7592 162.711 42.6993 162.265 42.6307C161.837 42.5793 161.408 42.5279 160.98 42.4765C160.569 42.4251 160.183 42.3823 159.823 42.348C159.464 42.3137 159.172 42.2794 158.949 42.2452C157.99 42.1424 157.262 41.8853 156.765 41.4741C156.268 41.0628 156.019 40.4973 156.019 39.7776C156.019 39.1779 156.268 38.6467 156.765 38.184C157.262 37.7214 157.887 37.43 158.641 37.3101V37.2073C158.264 37.0531 157.913 36.8389 157.587 36.5647C157.262 36.2734 156.979 35.9478 156.739 35.588C156.516 35.2281 156.336 34.8426 156.199 34.4313C156.062 34.0029 155.994 33.566 155.994 33.1204C155.994 32.4693 156.114 31.8695 156.353 31.3212C156.61 30.7728 156.962 30.3016 157.407 29.9075C157.87 29.4962 158.41 29.1792 159.027 28.9565C159.643 28.7166 160.32 28.5966 161.057 28.5966C161.811 28.5966 162.522 28.7166 163.191 28.9565C163.859 29.1792 164.433 29.5134 164.913 29.9589C165.495 29.4791 166.009 29.1364 166.455 28.9308C166.9 28.708 167.32 28.5966 167.714 28.5966C168.331 28.5966 168.82 28.7423 169.179 29.0336C169.556 29.3077 169.745 29.6847 169.745 30.1645C169.745 30.4558 169.642 30.6872 169.436 30.8585C169.248 31.0299 169.008 31.1156 168.717 31.1156C168.477 31.1156 168.28 31.0727 168.126 30.987C167.971 30.9014 167.826 30.8157 167.689 30.73C167.569 30.6272 167.44 30.5329 167.303 30.4473C167.166 30.3616 166.995 30.3187 166.789 30.3187C166.378 30.3187 165.958 30.4644 165.53 30.7557C165.941 31.3897 166.146 32.1865 166.146 33.1461C166.146 34.6027 165.692 35.7507 164.784 36.5904C163.876 37.4129 162.514 37.8927 160.697 38.0298C159.652 38.1155 158.924 38.2269 158.513 38.3639C158.101 38.501 157.896 38.7495 157.896 39.1093C157.896 39.3835 158.05 39.5891 158.358 39.7262C158.667 39.8462 159.121 39.9233 159.721 39.9576Z" fill="black"/>
<path d="M45.3319 40.3431C44.7151 41.0971 43.9183 41.6883 42.9415 42.1167C41.9648 42.5279 40.9109 42.7335 39.78 42.7335C38.8718 42.7335 38.0322 42.5707 37.261 42.2452C36.5071 41.9025 35.8559 41.4312 35.3076 40.8315C34.7592 40.2146 34.3308 39.4778 34.0224 38.621C33.7311 37.7642 33.5854 36.8132 33.5854 35.7679C33.5854 34.6712 33.7568 33.6859 34.0995 32.812C34.4422 31.9209 34.922 31.167 35.5389 30.5501C36.1729 29.9161 36.9269 29.4363 37.8008 29.1107C38.6919 28.768 39.6686 28.5966 40.731 28.5966C41.3993 28.5966 42.0076 28.6566 42.556 28.7765C43.1043 28.8793 43.5755 29.0336 43.9697 29.2392C44.3809 29.4277 44.6979 29.6676 44.9207 29.9589C45.1435 30.2331 45.2548 30.5329 45.2548 30.8585C45.2548 31.2012 45.1435 31.4668 44.9207 31.6553C44.6979 31.8438 44.3895 31.9381 43.9954 31.9381C43.6869 31.9381 43.4299 31.8781 43.2243 31.7581C43.0186 31.6211 42.753 31.3297 42.4274 30.8842C42.0847 30.4901 41.7506 30.2159 41.425 30.0617C41.1166 29.8904 40.7139 29.8047 40.2169 29.8047C39.0003 29.8047 38.075 30.2759 37.441 31.2184C36.8241 32.1608 36.5156 33.5488 36.5156 35.3823C36.5156 37.3529 36.8584 38.8523 37.5438 39.8804C38.2463 40.8915 39.2659 41.397 40.6025 41.397C41.3222 41.397 41.9991 41.2599 42.6331 40.9857C43.2671 40.6944 43.9097 40.2317 44.5608 39.5977L45.3319 40.3431ZM54.4601 28.5966C55.4368 28.5966 56.3622 28.7765 57.2361 29.1364C58.11 29.4791 58.8725 29.9589 59.5237 30.5758C60.192 31.1927 60.7146 31.9295 61.0916 32.7863C61.4857 33.6259 61.6828 34.5513 61.6828 35.5623C61.6828 36.6075 61.4857 37.5671 61.0916 38.4411C60.7146 39.315 60.192 40.0689 59.5237 40.703C58.8725 41.337 58.11 41.8339 57.2361 42.1938C56.3622 42.5536 55.4368 42.7335 54.4601 42.7335C53.5005 42.7335 52.5837 42.5622 51.7098 42.2195C50.853 41.8596 50.0991 41.3627 49.4479 40.7287C48.7968 40.0946 48.2827 39.3407 47.9057 38.4668C47.5287 37.5757 47.3402 36.6075 47.3402 35.5623C47.3402 34.5513 47.5287 33.6174 47.9057 32.7606C48.2827 31.9038 48.7968 31.167 49.4479 30.5501C50.0991 29.9332 50.853 29.4534 51.7098 29.1107C52.5837 28.768 53.5005 28.5966 54.4601 28.5966ZM54.4601 29.8304C53.8261 29.8304 53.2435 29.9675 52.7123 30.2416C52.1982 30.5158 51.7527 30.9099 51.3757 31.424C51.0158 31.9209 50.7331 32.5292 50.5275 33.2489C50.339 33.9515 50.2447 34.7312 50.2447 35.588C50.2447 36.479 50.339 37.2844 50.5275 38.0041C50.7331 38.7238 51.0158 39.3407 51.3757 39.8547C51.7527 40.3517 52.1982 40.7372 52.7123 41.0114C53.2263 41.2856 53.8089 41.4227 54.4601 41.4227C55.1113 41.4227 55.7024 41.2856 56.2336 41.0114C56.7649 40.7372 57.2189 40.3431 57.5959 39.829C57.9729 39.315 58.2642 38.6981 58.4699 37.9784C58.6755 37.2587 58.7783 36.4619 58.7783 35.588C58.7783 34.7312 58.6755 33.9515 58.4699 33.2489C58.2642 32.5464 57.9729 31.9466 57.5959 31.4497C57.2189 30.9356 56.7649 30.5415 56.2336 30.2673C55.7024 29.976 55.1113 29.8304 54.4601 29.8304ZM68.4762 38.4411C68.4762 39.1436 68.4933 39.7005 68.5275 40.1118C68.5618 40.5059 68.6475 40.8143 68.7846 41.0371C68.9388 41.2427 69.153 41.3798 69.4272 41.4484C69.7185 41.5169 70.1127 41.5683 70.6096 41.6026V42.4765H63.8752V41.6026C64.355 41.5683 64.732 41.5169 65.0062 41.4484C65.2975 41.3798 65.5202 41.2427 65.6745 41.0371C65.8287 40.8315 65.9229 40.5402 65.9572 40.1632C66.0086 39.7862 66.0343 39.2721 66.0343 38.621V35.2024C66.0343 33.1633 65.9829 31.9209 65.8801 31.4754C65.8287 31.2526 65.7601 31.0727 65.6745 30.9356C65.6059 30.7814 65.4945 30.67 65.3403 30.6015C65.1861 30.5158 64.989 30.4644 64.7491 30.4473C64.5092 30.413 64.2008 30.3959 63.8238 30.3959V29.5733L67.9364 28.5966L68.2449 31.1413H68.3476C68.9988 30.3359 69.7613 29.7104 70.6352 29.2649C71.5092 28.8194 72.4602 28.5966 73.4883 28.5966C74.2766 28.5966 74.9963 28.7251 75.6474 28.9822C76.2986 29.2392 76.7955 29.5905 77.1382 30.036C77.4295 30.4301 77.6352 30.9442 77.7551 31.5782C77.8751 32.1951 77.9351 33.0519 77.9351 34.1486V38.4411C77.9351 39.1436 77.9523 39.7005 77.9865 40.1118C78.0379 40.5059 78.1321 40.8143 78.2692 41.0371C78.4063 41.2427 78.6119 41.3798 78.8861 41.4484C79.1774 41.5169 79.5544 41.5683 80.017 41.6026V42.4765H73.3598V41.6026C73.8396 41.5854 74.2166 41.5426 74.4908 41.4741C74.7821 41.3884 74.9963 41.2427 75.1334 41.0371C75.2876 40.8315 75.3818 40.5402 75.4161 40.1632C75.4675 39.7691 75.4932 39.255 75.4932 38.621V35.2281C75.4932 34.2514 75.4419 33.4289 75.3391 32.7606C75.2363 32.0923 75.0649 31.5525 74.825 31.1413C74.6022 30.73 74.3023 30.4387 73.9253 30.2673C73.5483 30.0788 73.0942 29.9846 72.563 29.9846C71.7919 29.9846 71.0808 30.1902 70.4296 30.6015C69.7956 30.9956 69.2988 31.5439 68.9389 32.2465C68.8532 32.4179 68.7761 32.5807 68.7076 32.7349C68.6562 32.8891 68.6132 33.069 68.579 33.2746C68.5447 33.4803 68.519 33.7202 68.5018 33.9943C68.4847 34.2514 68.4762 34.5855 68.4762 34.9968V38.4411ZM82.856 42.4765H82.2906V38.0555H82.9333C83.6016 40.4716 84.8181 41.6797 86.5831 41.6797C87.2685 41.6797 87.8083 41.5169 88.2024 41.1913C88.6136 40.8486 88.8194 40.3345 88.8194 39.6491C88.8194 39.3921 88.7765 39.1779 88.6908 39.0065C88.6223 38.818 88.4765 38.6295 88.2538 38.4411C88.0482 38.2354 87.7483 38.0041 87.3542 37.7471C86.9772 37.49 86.4717 37.1644 85.8377 36.7703C85.255 36.4105 84.7495 36.0763 84.3211 35.7679C83.8928 35.4594 83.5329 35.151 83.2416 34.8426C82.9503 34.517 82.7275 34.1743 82.5733 33.8144C82.4362 33.4546 82.3677 33.0347 82.3677 32.5549C82.3677 31.9723 82.4619 31.4411 82.6504 30.9613C82.856 30.4644 83.1302 30.0446 83.4729 29.7019C83.8156 29.3591 84.2183 29.0935 84.681 28.9051C85.1437 28.6994 85.6492 28.5966 86.1975 28.5966C86.6602 28.5966 87.14 28.6737 87.6369 28.8279C88.1338 28.965 88.5708 29.1535 88.9478 29.3934L89.4619 28.8536H89.9502V32.5549H89.2819C88.9049 31.5097 88.4937 30.7643 88.0482 30.3187C87.6026 29.8732 87.0543 29.6505 86.4031 29.6505C85.8205 29.6505 85.3493 29.8047 84.9894 30.1131C84.6467 30.4216 84.4754 30.8499 84.4754 31.3983C84.4754 31.6896 84.5183 31.9466 84.604 32.1694C84.7068 32.375 84.861 32.5807 85.0667 32.7863C85.2723 32.9919 85.5292 33.2061 85.8377 33.4289C86.1632 33.6345 86.5488 33.8744 86.9943 34.1486C87.7311 34.6112 88.3567 35.0225 88.8708 35.3823C89.402 35.7422 89.8303 36.102 90.1558 36.4619C90.4814 36.8046 90.7213 37.1644 90.8755 37.5414C91.0298 37.9184 91.1069 38.3468 91.1069 38.8266C91.1069 40.0432 90.7128 41.0028 89.9245 41.7054C89.1363 42.3908 88.0996 42.7335 86.8144 42.7335C85.4778 42.7335 84.3297 42.348 83.3701 41.5769L82.856 42.4765ZM104.218 32.9662C104.218 32.2636 104.201 31.7153 104.167 31.3212C104.133 30.9099 104.039 30.6015 103.884 30.3959C103.747 30.1731 103.533 30.0274 103.242 29.9589C102.968 29.8732 102.582 29.8047 102.085 29.7533V28.8536H106.737V36.7446C106.737 37.7214 106.746 38.5182 106.763 39.135C106.797 39.7519 106.84 40.2146 106.892 40.523C106.926 40.7458 106.977 40.9257 107.046 41.0628C107.132 41.1828 107.251 41.2856 107.406 41.3712C107.56 41.4398 107.757 41.4912 107.997 41.5255C108.254 41.5426 108.579 41.5512 108.974 41.5512V42.4508L104.733 42.7592L104.45 39.6748H104.347C103.696 40.7372 102.942 41.5169 102.085 42.0138C101.245 42.4936 100.363 42.7335 99.4374 42.7335C98.7177 42.7335 98.0153 42.5965 97.3298 42.3223C96.6615 42.0481 96.1559 41.6797 95.8132 41.217C95.5219 40.84 95.3077 40.3174 95.1706 39.6491C95.0507 38.9808 94.9907 38.1155 94.9907 37.0531V32.9662C94.9907 32.2636 94.9736 31.7153 94.9393 31.3212C94.905 30.9099 94.8108 30.6015 94.6566 30.3959C94.5195 30.1731 94.3053 30.0274 94.014 29.9589C93.7398 29.8732 93.3543 29.8047 92.8573 29.7533V28.8536H97.5098V35.8707C97.5098 37.7385 97.7239 39.0922 98.1522 39.9319C98.5978 40.7715 99.3003 41.1913 100.26 41.1913C101.768 41.1913 102.942 40.206 103.782 38.2354C103.867 38.0298 103.936 37.8413 103.987 37.6699C104.039 37.4986 104.081 37.3101 104.116 37.1045C104.15 36.8988 104.176 36.6675 104.193 36.4105C104.21 36.1534 104.218 35.845 104.218 35.4851V32.9662ZM114.909 38.4668C114.909 39.1179 114.935 39.6405 114.986 40.0347C115.038 40.4288 115.14 40.7372 115.295 40.96C115.466 41.1828 115.697 41.337 115.989 41.4227C116.297 41.5083 116.7 41.5597 117.197 41.5769V42.4765H110.103V41.5769C110.617 41.5597 111.028 41.5083 111.336 41.4227C111.645 41.3198 111.885 41.1656 112.056 40.96C112.245 40.7544 112.364 40.4716 112.416 40.1118C112.484 39.7348 112.519 39.2464 112.519 38.6467V27.5685C112.519 26.6431 112.502 25.872 112.467 25.2552C112.45 24.6211 112.416 24.1927 112.364 23.97C112.279 23.5759 112.073 23.3103 111.748 23.1732C111.439 23.0361 110.874 22.9675 110.051 22.9675V22.0936L114.909 21.1426V38.4668ZM118.924 30.473V29.5219C119.832 28.9907 120.543 28.4595 121.057 27.9283C121.571 27.3971 121.965 26.7631 122.24 26.0263H122.985V29.2649H126.429V30.473H122.985V38.2868C122.985 38.8866 123.011 39.3921 123.062 39.8033C123.131 40.2146 123.234 40.5487 123.371 40.8058C123.508 41.0457 123.688 41.217 123.91 41.3198C124.133 41.4227 124.416 41.4741 124.759 41.4741C125.187 41.4741 125.547 41.3884 125.838 41.217C126.147 41.0285 126.446 40.7201 126.738 40.2917L127.38 40.7801C127.14 41.4141 126.721 41.9025 126.121 42.2452C125.538 42.5707 124.81 42.7335 123.936 42.7335C122.805 42.7335 121.94 42.4679 121.34 41.9367C120.757 41.3884 120.466 40.6087 120.466 39.5977V30.473H118.924ZM133.47 38.3896C133.47 39.0579 133.496 39.5977 133.547 40.009C133.616 40.4031 133.736 40.7201 133.907 40.96C134.079 41.1828 134.318 41.337 134.627 41.4227C134.935 41.5083 135.347 41.5597 135.861 41.5769V42.4765H128.484V41.5769C128.998 41.5597 129.418 41.5083 129.743 41.4227C130.069 41.3198 130.317 41.1656 130.489 40.96C130.677 40.7372 130.797 40.4374 130.849 40.0604C130.917 39.6663 130.951 39.1693 130.951 38.5696V35.2795C130.951 34.2857 130.934 33.4717 130.9 32.8377C130.883 32.1865 130.84 31.741 130.771 31.5011C130.686 31.107 130.489 30.8414 130.18 30.7043C129.872 30.5501 129.289 30.473 128.432 30.473V29.5733L133.47 28.5966V38.3896ZM130.514 23.3788C130.514 22.9333 130.669 22.5563 130.977 22.2478C131.285 21.9394 131.662 21.7852 132.108 21.7852C132.554 21.7852 132.93 21.9394 133.239 22.2478C133.547 22.5563 133.702 22.9333 133.702 23.3788C133.702 23.8243 133.547 24.2013 133.239 24.5097C132.93 24.8182 132.554 24.9724 132.108 24.9724C131.662 24.9724 131.285 24.8182 130.977 24.5097C130.669 24.2013 130.514 23.8243 130.514 23.3788ZM141.922 38.4411C141.922 39.1436 141.939 39.7005 141.974 40.1118C142.008 40.5059 142.093 40.8143 142.231 41.0371C142.385 41.2427 142.599 41.3798 142.873 41.4484C143.164 41.5169 143.559 41.5683 144.055 41.6026V42.4765H137.321V41.6026C137.801 41.5683 138.178 41.5169 138.452 41.4484C138.743 41.3798 138.966 41.2427 139.12 41.0371C139.275 40.8315 139.369 40.5402 139.403 40.1632C139.455 39.7862 139.48 39.2721 139.48 38.621V35.2024C139.48 33.1633 139.429 31.9209 139.326 31.4754C139.275 31.2526 139.206 31.0727 139.12 30.9356C139.052 30.7814 138.94 30.67 138.786 30.6015C138.632 30.5158 138.435 30.4644 138.195 30.4473C137.955 30.413 137.647 30.3959 137.27 30.3959V29.5733L141.382 28.5966L141.691 31.1413H141.794C142.445 30.3359 143.207 29.7104 144.081 29.2649C144.955 28.8194 145.906 28.5966 146.934 28.5966C147.723 28.5966 148.442 28.7251 149.093 28.9822C149.745 29.2392 150.241 29.5905 150.584 30.036C150.875 30.4301 151.081 30.9442 151.201 31.5782C151.321 32.1951 151.381 33.0519 151.381 34.1486V38.4411C151.381 39.1436 151.398 39.7005 151.432 40.1118C151.484 40.5059 151.578 40.8143 151.715 41.0371C151.852 41.2427 152.058 41.3798 152.332 41.4484C152.623 41.5169 153 41.5683 153.463 41.6026V42.4765H146.806V41.6026C147.286 41.5854 147.663 41.5426 147.937 41.4741C148.228 41.3884 148.442 41.2427 148.579 41.0371C148.734 40.8315 148.828 40.5402 148.862 40.1632C148.913 39.7691 148.939 39.255 148.939 38.621V35.2281C148.939 34.2514 148.888 33.4289 148.785 32.7606C148.682 32.0923 148.511 31.5525 148.271 31.1413C148.048 30.73 147.748 30.4387 147.371 30.2673C146.994 30.0788 146.54 29.9846 146.009 29.9846C145.238 29.9846 144.527 30.1902 143.876 30.6015C143.242 30.9956 142.745 31.5439 142.385 32.2465C142.299 32.4179 142.222 32.5807 142.153 32.7349C142.102 32.8891 142.059 33.069 142.025 33.2746C141.991 33.4803 141.965 33.7202 141.948 33.9943C141.931 34.2514 141.922 34.5855 141.922 34.9968V38.4411ZM161.134 36.9502C161.854 36.9502 162.411 36.6247 162.805 35.9735C163.216 35.3224 163.422 34.4056 163.422 33.2232C163.422 32.058 163.216 31.1584 162.805 30.5244C162.411 29.8732 161.845 29.5476 161.109 29.5476C160.372 29.5476 159.781 29.8732 159.335 30.5244C158.907 31.1755 158.692 32.0666 158.692 33.1975C158.692 34.3285 158.915 35.2367 159.361 35.9221C159.806 36.6075 160.397 36.9502 161.134 36.9502ZM159.721 39.9576C160.132 39.9918 160.509 40.0261 160.852 40.0604C161.194 40.0946 161.528 40.1289 161.854 40.1632C162.197 40.1975 162.531 40.2403 162.856 40.2917C163.199 40.3431 163.568 40.3945 163.962 40.4459C165.195 40.6344 166.181 41.1142 166.918 41.8853C167.672 42.6393 168.049 43.5903 168.049 44.7384C168.049 46.1778 167.474 47.2745 166.326 48.0285C165.195 48.7824 163.55 49.1594 161.391 49.1594C160.432 49.1594 159.549 49.0737 158.744 48.9024C157.956 48.731 157.279 48.4826 156.713 48.157C156.148 47.8485 155.702 47.4715 155.377 47.026C155.068 46.5805 154.914 46.0921 154.914 45.5609C154.914 45.2011 154.974 44.8669 155.094 44.5585C155.214 44.25 155.377 43.9759 155.582 43.736C155.788 43.5132 156.028 43.3333 156.302 43.1962C156.593 43.0591 156.893 42.9906 157.202 42.9906C157.784 42.9906 158.307 43.1705 158.77 43.5303C158.307 43.6332 157.93 43.8816 157.639 44.2757C157.347 44.687 157.202 45.1497 157.202 45.6637C157.202 46.4177 157.57 47.0003 158.307 47.4116C159.061 47.8228 160.123 48.0285 161.494 48.0285C164.424 48.0285 165.889 47.1288 165.889 45.3296C165.889 44.6442 165.658 44.0701 165.195 43.6075C164.733 43.1619 164.184 42.8963 163.55 42.8106C163.139 42.7592 162.711 42.6993 162.265 42.6307C161.837 42.5793 161.408 42.5279 160.98 42.4765C160.569 42.4251 160.183 42.3823 159.823 42.348C159.464 42.3137 159.172 42.2794 158.949 42.2452C157.99 42.1424 157.262 41.8853 156.765 41.4741C156.268 41.0628 156.019 40.4973 156.019 39.7776C156.019 39.1779 156.268 38.6467 156.765 38.184C157.262 37.7214 157.887 37.43 158.641 37.3101V37.2073C158.264 37.0531 157.913 36.8389 157.587 36.5647C157.262 36.2734 156.979 35.9478 156.739 35.588C156.516 35.2281 156.336 34.8426 156.199 34.4313C156.062 34.0029 155.994 33.566 155.994 33.1204C155.994 32.4693 156.114 31.8695 156.353 31.3212C156.61 30.7728 156.962 30.3016 157.407 29.9075C157.87 29.4962 158.41 29.1792 159.027 28.9565C159.643 28.7166 160.32 28.5966 161.057 28.5966C161.811 28.5966 162.522 28.7166 163.191 28.9565C163.859 29.1792 164.433 29.5134 164.913 29.9589C165.495 29.4791 166.009 29.1364 166.455 28.9308C166.9 28.708 167.32 28.5966 167.714 28.5966C168.331 28.5966 168.82 28.7423 169.179 29.0336C169.556 29.3077 169.745 29.6847 169.745 30.1645C169.745 30.4558 169.642 30.6872 169.436 30.8585C169.248 31.0299 169.008 31.1156 168.717 31.1156C168.477 31.1156 168.28 31.0727 168.126 30.987C167.971 30.9014 167.826 30.8157 167.689 30.73C167.569 30.6272 167.44 30.5329 167.303 30.4473C167.166 30.3616 166.995 30.3187 166.789 30.3187C166.378 30.3187 165.958 30.4644 165.53 30.7557C165.941 31.3897 166.146 32.1865 166.146 33.1461C166.146 34.6027 165.692 35.7507 164.784 36.5904C163.876 37.4129 162.514 37.8927 160.697 38.0298C159.652 38.1155 158.924 38.2269 158.513 38.3639C158.101 38.501 157.896 38.7495 157.896 39.1093C157.896 39.3835 158.05 39.5891 158.358 39.7262C158.667 39.8462 159.121 39.9233 159.721 39.9576Z" fill="black"/>
</svg>
